<svg width="429" height="278" viewBox="0 0 429 278" fill="none" xmlns="http://www.w3.org/2000/svg">
<path d="M296.143 72.3579C296.143 85.454 291.177 97.5607 281.246 108.678C271.314 119.796 257.764 128.581 240.595 135.035C223.426 141.489 204.751 144.716 184.571 144.716C175.485 144.716 166.188 143.962 156.679 142.455C143.577 150.746 128.891 156.776 112.621 160.544C108.817 161.392 104.274 162.146 98.9911 162.805H98.5156C97.3534 162.805 96.2705 162.428 95.2667 161.675C94.263 160.921 93.6555 159.932 93.4442 158.707C93.3385 158.424 93.2857 158.118 93.2857 157.788C93.2857 157.459 93.3121 157.152 93.365 156.87C93.4178 156.587 93.5234 156.304 93.6819 156.022L94.0781 155.315L94.6328 154.538L95.2667 153.831L95.9799 153.125L96.6138 152.489C97.1421 151.923 98.3571 150.746 100.259 148.956C102.161 147.165 103.534 145.776 104.379 144.787C105.225 143.797 106.413 142.431 107.945 140.688C109.477 138.945 110.798 137.131 111.907 135.247C113.017 133.363 114.1 131.29 115.156 129.029C102.055 122.245 91.7537 113.907 84.2522 104.015C76.7507 94.1218 73 83.5696 73 72.3579C73 59.2619 77.9658 47.1551 87.8973 36.0376C97.8289 24.9201 111.379 16.1345 128.548 9.6807C145.717 3.2269 164.391 0 184.571 0C204.751 0 223.426 3.2269 240.595 9.6807C257.764 16.1345 271.314 24.9201 281.246 36.0376C291.177 47.1551 296.143 59.2619 296.143 72.3579ZM357 108.537C357 119.843 353.249 130.419 345.748 140.264C338.246 150.11 327.945 158.424 314.844 165.208C315.9 167.469 316.983 169.542 318.093 171.426C319.202 173.31 320.523 175.124 322.055 176.867C323.587 178.61 324.775 179.976 325.621 180.965C326.466 181.955 327.839 183.344 329.741 185.135C331.643 186.925 332.858 188.102 333.386 188.668C333.492 188.762 333.703 188.974 334.02 189.304C334.337 189.633 334.575 189.869 334.733 190.01C334.892 190.152 335.103 190.387 335.367 190.717C335.631 191.047 335.816 191.306 335.922 191.494L336.318 192.201L336.635 193.049L336.714 193.967L336.556 194.886C336.239 196.205 335.552 197.241 334.496 197.995C333.439 198.749 332.277 199.079 331.009 198.984C325.726 198.325 321.183 197.571 317.379 196.723C301.109 192.954 286.423 186.925 273.321 178.634C263.813 180.141 254.515 180.895 245.429 180.895C216.796 180.895 191.862 174.677 170.625 162.24C176.753 162.617 181.402 162.805 184.571 162.805C201.582 162.805 217.906 160.685 233.542 156.446C249.179 152.206 263.126 146.129 275.382 138.215C288.589 129.547 298.731 119.56 305.81 108.254C312.889 96.9483 316.429 84.9829 316.429 72.3579C316.429 65.1033 315.214 57.9429 312.783 50.8767C326.413 57.566 337.19 65.9512 345.114 76.0324C353.038 86.1135 357 96.9483 357 108.537Z" fill="black"/>
<path d="M75.457 247.796C75.6849 246.6 75.8501 245.346 75.9526 244.036C76.0666 242.715 76.1235 241.37 76.1235 240.003C76.1235 238.556 76.0666 237.12 75.9526 235.696C75.8387 234.261 75.6735 232.882 75.457 231.561C74.819 231.378 74.124 231.219 73.3721 231.082C72.7227 230.957 71.965 230.843 71.0991 230.74C70.2446 230.638 69.3161 230.586 68.3135 230.586C68.1198 230.586 67.9204 230.586 67.7153 230.586C67.5103 230.586 67.3052 230.598 67.1001 230.621C67.1001 230.814 67.1001 231.145 67.1001 231.612C67.1001 232.079 67.1001 232.654 67.1001 233.338C67.1115 234.01 67.1172 234.773 67.1172 235.628C67.1286 236.471 67.14 237.36 67.1514 238.294C67.1628 239.228 67.1799 240.185 67.2026 241.165C67.2254 242.145 67.2539 243.113 67.2881 244.07C67.3223 245.027 67.3564 245.95 67.3906 246.839C67.4362 247.716 67.4875 248.525 67.5444 249.266C68.5926 249.22 69.5895 249.118 70.5352 248.958C71.4922 248.799 72.3353 248.633 73.0645 248.462C73.9189 248.257 74.7165 248.035 75.457 247.796ZM65.2715 226.485C66.6159 226.485 67.9945 226.553 69.4072 226.69C70.8314 226.827 72.21 227.072 73.543 227.425C74.8874 227.778 76.1577 228.262 77.354 228.877C78.5503 229.493 79.5928 230.273 80.4814 231.219C81.3815 232.164 82.0936 233.304 82.6177 234.637C83.1418 235.958 83.4038 237.514 83.4038 239.302C83.4038 241.034 83.1759 242.572 82.7202 243.917C82.2645 245.261 81.6436 246.446 80.8574 247.471C80.0827 248.485 79.1712 249.345 78.123 250.052C77.0749 250.758 75.9526 251.333 74.7563 251.778C73.5715 252.222 72.341 252.541 71.0649 252.735C69.7889 252.94 68.5356 253.042 67.3052 253.042C66.1089 253.042 65.055 253.014 64.1436 252.957C63.2321 252.911 62.4574 252.86 61.8193 252.803C61.0788 252.735 60.4351 252.655 59.8882 252.564C60.0249 250.331 60.1445 248.104 60.2471 245.882C60.3496 243.66 60.4009 241.427 60.4009 239.183C60.4009 238.077 60.3838 237.024 60.3496 236.021C60.3268 235.018 60.2926 234.027 60.2471 233.047C60.2015 232.068 60.1445 231.082 60.0762 230.091C60.0192 229.088 59.9565 228.029 59.8882 226.912C60.8338 226.73 61.7624 226.616 62.6738 226.57C63.5853 226.513 64.4512 226.485 65.2715 226.485ZM104.783 243.985L91.4189 245.062C91.4759 245.768 91.5557 246.469 91.6582 247.164C91.7607 247.859 91.8918 248.559 92.0513 249.266C93.0539 249.334 94.0223 249.368 94.9565 249.368C95.4692 249.368 95.9648 249.362 96.4434 249.351C96.9219 249.328 97.4175 249.3 97.9302 249.266C97.953 249.038 97.9701 248.81 97.9814 248.582C97.9928 248.354 97.9985 248.126 97.9985 247.898C97.9985 247.693 97.9928 247.494 97.9814 247.3C97.9814 247.095 97.9644 246.89 97.9302 246.685L104.373 246.822C104.054 247.904 103.593 248.833 102.989 249.607C102.396 250.382 101.69 251.02 100.87 251.521C100.061 252.011 99.1549 252.37 98.1523 252.598C97.1497 252.826 96.0959 252.94 94.9907 252.94C93.6349 252.94 92.3589 252.758 91.1626 252.393C89.9777 252.028 88.9409 251.442 88.0522 250.633C87.175 249.812 86.48 248.747 85.9673 247.437C85.466 246.127 85.2153 244.52 85.2153 242.618C85.2153 241.08 85.4831 239.758 86.0186 238.653C86.554 237.548 87.2661 236.636 88.1548 235.918C89.0549 235.201 90.0916 234.677 91.2651 234.346C92.45 234.004 93.6919 233.833 94.9907 233.833C96.3465 233.833 97.6169 234.016 98.8018 234.38C99.998 234.745 101.035 235.315 101.912 236.089C102.801 236.864 103.501 237.855 104.014 239.063C104.527 240.271 104.783 241.712 104.783 243.387V243.985ZM91.248 241.473H98.1011C98.1011 240.06 97.9587 238.715 97.6738 237.439C96.694 237.234 95.6686 237.132 94.5977 237.132C93.5495 237.132 92.4899 237.234 91.4189 237.439C91.3506 238.077 91.305 238.727 91.2822 239.388C91.2594 240.037 91.248 240.732 91.248 241.473ZM113.345 234.158C113.095 236.699 112.924 239.205 112.833 241.678C112.753 244.15 112.713 246.622 112.713 249.095C112.713 249.528 112.713 249.966 112.713 250.411C112.713 250.844 112.724 251.282 112.747 251.727H107.466C107.466 251.02 107.472 250.319 107.483 249.625C107.495 248.93 107.5 248.24 107.5 247.557C107.5 245.289 107.444 243.045 107.33 240.823C107.227 238.602 107.062 236.38 106.834 234.158H113.345ZM113.345 228.621C113.345 229.02 113.248 229.396 113.055 229.749C112.861 230.091 112.593 230.393 112.251 230.655C111.91 230.905 111.511 231.111 111.055 231.27C110.599 231.418 110.115 231.492 109.603 231.492C109.09 231.492 108.611 231.418 108.167 231.27C107.723 231.111 107.335 230.905 107.005 230.655C106.674 230.393 106.412 230.091 106.219 229.749C106.025 229.396 105.928 229.02 105.928 228.621C105.928 228.234 106.025 227.869 106.219 227.527C106.412 227.174 106.674 226.872 107.005 226.622C107.335 226.36 107.723 226.154 108.167 226.006C108.611 225.858 109.09 225.784 109.603 225.784C110.115 225.784 110.599 225.858 111.055 226.006C111.511 226.154 111.91 226.36 112.251 226.622C112.593 226.872 112.861 227.174 113.055 227.527C113.248 227.869 113.345 228.234 113.345 228.621ZM126.761 239.217L132.059 233.731L136.81 234.705L129.427 242.447L136.775 251.333L129.888 252.273L125.325 246.753L120.044 252.273L114.627 251.829L122.642 243.489L115.105 234.295H122.71L126.761 239.217ZM156.976 243.985L143.611 245.062C143.668 245.768 143.748 246.469 143.851 247.164C143.953 247.859 144.084 248.559 144.244 249.266C145.246 249.334 146.215 249.368 147.149 249.368C147.662 249.368 148.157 249.362 148.636 249.351C149.114 249.328 149.61 249.3 150.123 249.266C150.145 249.038 150.162 248.81 150.174 248.582C150.185 248.354 150.191 248.126 150.191 247.898C150.191 247.693 150.185 247.494 150.174 247.3C150.174 247.095 150.157 246.89 150.123 246.685L156.565 246.822C156.246 247.904 155.785 248.833 155.181 249.607C154.589 250.382 153.882 251.02 153.062 251.521C152.253 252.011 151.347 252.37 150.345 252.598C149.342 252.826 148.288 252.94 147.183 252.94C145.827 252.94 144.551 252.758 143.355 252.393C142.17 252.028 141.133 251.442 140.245 250.633C139.367 249.812 138.672 248.747 138.16 247.437C137.658 246.127 137.408 244.52 137.408 242.618C137.408 241.08 137.675 239.758 138.211 238.653C138.746 237.548 139.458 236.636 140.347 235.918C141.247 235.201 142.284 234.677 143.458 234.346C144.642 234.004 145.884 233.833 147.183 233.833C148.539 233.833 149.809 234.016 150.994 234.38C152.19 234.745 153.227 235.315 154.104 236.089C154.993 236.864 155.694 237.855 156.207 239.063C156.719 240.271 156.976 241.712 156.976 243.387V243.985ZM143.44 241.473H150.293C150.293 240.06 150.151 238.715 149.866 237.439C148.886 237.234 147.861 237.132 146.79 237.132C145.742 237.132 144.682 237.234 143.611 237.439C143.543 238.077 143.497 238.727 143.475 239.388C143.452 240.037 143.44 240.732 143.44 241.473ZM187.823 248.018C187.823 249.021 187.566 249.858 187.054 250.53C186.541 251.191 185.869 251.721 185.037 252.12C184.205 252.53 183.26 252.815 182.2 252.974C181.141 253.145 180.064 253.23 178.97 253.23C178.366 253.23 177.717 253.191 177.022 253.111C176.338 253.042 175.649 252.911 174.954 252.718C174.259 252.535 173.581 252.291 172.92 251.983C172.271 251.664 171.679 251.265 171.143 250.787C170.608 250.308 170.146 249.744 169.759 249.095C169.383 248.445 169.126 247.688 168.99 246.822L175.928 246.753L176.202 249.727H181.517L181.91 246.292C181.203 246.132 180.394 245.996 179.483 245.882C178.571 245.768 177.637 245.631 176.68 245.472C175.723 245.301 174.783 245.084 173.86 244.822C172.938 244.56 172.117 244.201 171.399 243.746C170.682 243.29 170.101 242.715 169.656 242.02C169.212 241.325 168.99 240.464 168.99 239.439C168.99 238.334 169.257 237.405 169.793 236.653C170.328 235.89 171.029 235.28 171.895 234.825C172.772 234.358 173.764 234.016 174.869 233.799C175.974 233.583 177.096 233.458 178.235 233.423C178.839 233.423 179.489 233.458 180.184 233.526C180.89 233.594 181.591 233.72 182.286 233.902C182.981 234.073 183.647 234.312 184.285 234.62C184.935 234.927 185.51 235.32 186.011 235.799C186.524 236.266 186.94 236.836 187.259 237.508C187.589 238.169 187.777 238.949 187.823 239.849L181.106 240.14V236.773H175.33V241.319C176.071 241.478 176.897 241.604 177.808 241.695C178.72 241.775 179.637 241.883 180.56 242.02C181.482 242.156 182.377 242.344 183.243 242.583C184.12 242.823 184.895 243.165 185.567 243.609C186.25 244.053 186.797 244.629 187.208 245.335C187.618 246.041 187.823 246.936 187.823 248.018ZM208.399 241.148C208.399 242.128 208.348 243.09 208.245 244.036C208.154 244.97 207.983 245.865 207.732 246.719C207.493 247.562 207.157 248.354 206.724 249.095C206.303 249.824 205.767 250.468 205.118 251.026C204.468 251.584 203.688 252.04 202.776 252.393C201.865 252.758 200.8 252.986 199.581 253.077C196.447 253.077 194.095 252.285 192.522 250.701C190.95 249.118 190.164 246.776 190.164 243.677C190.164 243.597 190.164 243.387 190.164 243.045C190.164 242.692 190.17 242.259 190.181 241.746C190.193 241.222 190.204 240.641 190.215 240.003C190.238 239.354 190.272 238.693 190.318 238.021C190.363 237.348 190.415 236.688 190.472 236.038C190.54 235.389 190.625 234.796 190.728 234.261H196.709C196.493 235.389 196.333 236.579 196.231 237.833C196.128 239.086 196.077 240.368 196.077 241.678C196.077 242.885 196.123 244.087 196.214 245.284C196.316 246.469 196.482 247.597 196.709 248.667C197.131 248.724 197.541 248.77 197.94 248.804C198.35 248.838 198.755 248.855 199.153 248.855C199.541 248.855 199.939 248.838 200.35 248.804C200.771 248.77 201.181 248.724 201.58 248.667C201.705 247.597 201.797 246.474 201.854 245.301C201.922 244.116 201.956 242.92 201.956 241.712C201.956 240.39 201.922 239.103 201.854 237.85C201.797 236.585 201.705 235.389 201.58 234.261H207.767C208.017 235.594 208.182 236.853 208.262 238.038C208.353 239.222 208.399 240.259 208.399 241.148ZM225.044 252.564C225.044 252.234 225.039 251.903 225.027 251.573C225.016 251.231 225.01 250.895 225.01 250.564C224.406 251.111 223.774 251.527 223.113 251.812C222.464 252.085 221.866 252.291 221.319 252.427C220.681 252.587 220.049 252.678 219.422 252.701C218.283 252.701 217.183 252.524 216.124 252.171C215.075 251.829 214.141 251.311 213.321 250.616C212.5 249.921 211.834 249.055 211.321 248.018C210.82 246.97 210.541 245.757 210.484 244.378C210.484 242.988 210.672 241.723 211.048 240.584C211.424 239.433 211.988 238.448 212.74 237.627C213.492 236.807 214.426 236.175 215.542 235.73C216.659 235.275 217.952 235.041 219.422 235.03C219.467 235.03 219.638 235.041 219.935 235.064C220.242 235.075 220.618 235.127 221.062 235.218C221.507 235.298 221.991 235.434 222.515 235.628C223.039 235.81 223.558 236.067 224.07 236.397L223.797 234.295L230.547 233.833C230.411 237.103 230.342 240.356 230.342 243.592C230.342 244.378 230.342 245.124 230.342 245.831C230.354 246.526 230.365 247.221 230.376 247.916C230.399 248.599 230.422 249.294 230.445 250C230.479 250.695 230.513 251.43 230.547 252.205L225.044 252.564ZM217.063 248.428C218.419 248.371 219.752 248.28 221.062 248.155C222.373 248.029 223.666 247.841 224.942 247.591C224.908 246.178 224.845 244.811 224.754 243.489C224.674 242.168 224.56 240.818 224.412 239.439H223.438C222.333 239.439 221.222 239.479 220.105 239.559C219 239.627 217.884 239.747 216.756 239.917C216.619 241.114 216.551 242.316 216.551 243.523C216.551 243.979 216.562 244.406 216.585 244.805C216.608 245.193 216.636 245.58 216.67 245.967C216.716 246.355 216.767 246.748 216.824 247.146C216.893 247.545 216.972 247.972 217.063 248.428ZM256.832 248.462C256.9 247.494 256.945 246.554 256.968 245.643C257.002 244.731 257.02 243.831 257.02 242.942C257.02 242.02 257.002 241.114 256.968 240.225C256.945 239.325 256.9 238.396 256.832 237.439C256.444 237.382 256.057 237.348 255.669 237.337C255.293 237.314 254.912 237.303 254.524 237.303C252.929 237.303 251.391 237.479 249.91 237.833C249.876 238.448 249.842 239.057 249.808 239.661C249.785 240.265 249.773 240.869 249.773 241.473C249.773 242.68 249.819 243.888 249.91 245.096C250.013 246.292 250.161 247.545 250.354 248.855C250.617 248.878 250.879 248.89 251.141 248.89C251.414 248.89 251.693 248.89 251.978 248.89C252.764 248.89 253.562 248.855 254.371 248.787C255.191 248.719 256.011 248.611 256.832 248.462ZM263.172 243.079C263.172 244.435 262.904 245.711 262.369 246.907C261.845 248.092 261.127 249.129 260.215 250.018C259.304 250.906 258.233 251.607 257.002 252.12C255.783 252.644 254.479 252.906 253.089 252.906C251.71 252.906 250.44 252.644 249.278 252.12C248.127 251.607 247.13 250.906 246.287 250.018C245.455 249.129 244.806 248.092 244.339 246.907C243.872 245.711 243.638 244.435 243.638 243.079C243.638 241.404 243.872 239.952 244.339 238.721C244.806 237.491 245.455 236.471 246.287 235.662C247.13 234.853 248.127 234.255 249.278 233.868C250.44 233.469 251.71 233.27 253.089 233.27C254.479 233.27 255.783 233.492 257.002 233.936C258.233 234.38 259.304 235.024 260.215 235.867C261.127 236.71 261.845 237.741 262.369 238.96C262.904 240.168 263.172 241.541 263.172 243.079ZM285.799 243.079C285.799 244.503 285.605 245.785 285.218 246.924C284.842 248.052 284.295 249.009 283.577 249.795C282.859 250.582 281.982 251.185 280.945 251.607C279.909 252.028 278.735 252.239 277.425 252.239C276.673 252.216 275.932 252.114 275.203 251.932C274.896 251.852 274.571 251.755 274.229 251.641C273.899 251.516 273.562 251.368 273.221 251.197C272.89 251.014 272.571 250.804 272.264 250.564C271.956 250.325 271.671 250.046 271.409 249.727C271.443 251.675 271.489 253.601 271.546 255.503C271.603 257.417 271.677 259.257 271.768 261.023L265.291 260.613C265.416 258.597 265.525 256.478 265.616 254.256C265.707 252.034 265.781 249.795 265.838 247.54C265.906 245.272 265.952 243.022 265.975 240.789C266.009 238.556 266.026 236.414 266.026 234.363H271.768C271.7 235.07 271.648 235.77 271.614 236.465C271.876 236.181 272.161 235.936 272.469 235.73C272.788 235.514 273.112 235.326 273.443 235.167C273.773 235.007 274.104 234.87 274.434 234.756C274.776 234.642 275.101 234.551 275.408 234.483C276.126 234.312 276.861 234.215 277.613 234.192C278.239 234.192 278.877 234.284 279.527 234.466C280.176 234.637 280.803 234.893 281.407 235.235C282.022 235.577 282.592 235.998 283.116 236.5C283.651 237.001 284.118 237.582 284.517 238.243C284.916 238.903 285.229 239.638 285.457 240.447C285.685 241.245 285.799 242.122 285.799 243.079ZM271.409 247.522C272.241 247.728 273.021 247.876 273.75 247.967C274.491 248.047 275.266 248.086 276.075 248.086C276.553 248.086 277.055 248.069 277.579 248.035C278.103 248.001 278.672 247.955 279.288 247.898C279.345 247.386 279.379 246.879 279.39 246.377C279.413 245.876 279.424 245.369 279.424 244.856C279.424 243.82 279.384 242.8 279.305 241.797C279.225 240.783 279.111 239.764 278.963 238.738C277.881 238.67 276.929 238.636 276.109 238.636C275.71 238.636 275.328 238.647 274.964 238.67C274.599 238.681 274.229 238.704 273.853 238.738C273.488 238.761 273.112 238.79 272.725 238.824C272.349 238.858 271.945 238.898 271.512 238.943C271.443 241.393 271.409 243.888 271.409 246.429V247.522ZM294.668 234.158C294.418 236.699 294.247 239.205 294.156 241.678C294.076 244.15 294.036 246.622 294.036 249.095C294.036 249.528 294.036 249.966 294.036 250.411C294.036 250.844 294.048 251.282 294.07 251.727H288.79C288.79 251.02 288.795 250.319 288.807 249.625C288.818 248.93 288.824 248.24 288.824 247.557C288.824 245.289 288.767 243.045 288.653 240.823C288.55 238.602 288.385 236.38 288.157 234.158H294.668ZM294.668 228.621C294.668 229.02 294.572 229.396 294.378 229.749C294.184 230.091 293.917 230.393 293.575 230.655C293.233 230.905 292.834 231.111 292.378 231.27C291.923 231.418 291.438 231.492 290.926 231.492C290.413 231.492 289.935 231.418 289.49 231.27C289.046 231.111 288.659 230.905 288.328 230.655C287.998 230.393 287.736 230.091 287.542 229.749C287.348 229.396 287.251 229.02 287.251 228.621C287.251 228.234 287.348 227.869 287.542 227.527C287.736 227.174 287.998 226.872 288.328 226.622C288.659 226.36 289.046 226.154 289.49 226.006C289.935 225.858 290.413 225.784 290.926 225.784C291.438 225.784 291.923 225.858 292.378 226.006C292.834 226.154 293.233 226.36 293.575 226.622C293.917 226.872 294.184 227.174 294.378 227.527C294.572 227.869 294.668 228.234 294.668 228.621ZM316.355 243.079C316.355 244.594 316.276 246.138 316.116 247.71C315.957 249.283 315.683 250.855 315.296 252.427H309.349C309.497 250.73 309.611 249.055 309.69 247.403C309.77 245.739 309.81 244.065 309.81 242.378C309.81 241.809 309.81 241.245 309.81 240.687C309.81 240.117 309.799 239.547 309.776 238.978C309.263 238.921 308.756 238.886 308.255 238.875C307.754 238.852 307.247 238.841 306.734 238.841C305.765 238.841 304.769 238.875 303.743 238.943C303.709 239.878 303.681 240.743 303.658 241.541C303.646 242.339 303.641 243.13 303.641 243.917C303.641 244.498 303.646 245.09 303.658 245.694C303.669 246.286 303.686 246.924 303.709 247.608C303.743 248.292 303.783 249.032 303.829 249.83C303.874 250.616 303.931 251.482 304 252.427H298.257C298.257 251.06 298.252 249.852 298.24 248.804C298.229 247.756 298.212 246.793 298.189 245.916C298.166 245.027 298.132 244.184 298.086 243.387C298.052 242.578 298.007 241.735 297.95 240.857C297.893 239.969 297.83 239.006 297.762 237.969C297.693 236.921 297.614 235.719 297.522 234.363L304 233.97L303.863 236.397C304.512 235.941 305.179 235.588 305.862 235.337C306.546 235.087 307.173 234.899 307.742 234.773C308.403 234.637 309.047 234.557 309.673 234.534C310.505 234.534 311.246 234.648 311.895 234.876C312.556 235.104 313.131 235.423 313.621 235.833C314.122 236.232 314.544 236.705 314.886 237.251C315.228 237.798 315.507 238.391 315.723 239.029C315.951 239.655 316.111 240.316 316.202 241.011C316.304 241.706 316.355 242.396 316.355 243.079ZM325.635 234.158C325.385 236.699 325.214 239.205 325.123 241.678C325.043 244.15 325.003 246.622 325.003 249.095C325.003 249.528 325.003 249.966 325.003 250.411C325.003 250.844 325.014 251.282 325.037 251.727H319.756C319.756 251.02 319.762 250.319 319.773 249.625C319.785 248.93 319.791 248.24 319.791 247.557C319.791 245.289 319.734 243.045 319.62 240.823C319.517 238.602 319.352 236.38 319.124 234.158H325.635ZM325.635 228.621C325.635 229.02 325.538 229.396 325.345 229.749C325.151 230.091 324.883 230.393 324.542 230.655C324.2 230.905 323.801 231.111 323.345 231.27C322.889 231.418 322.405 231.492 321.893 231.492C321.38 231.492 320.901 231.418 320.457 231.27C320.013 231.111 319.625 230.905 319.295 230.655C318.965 230.393 318.702 230.091 318.509 229.749C318.315 229.396 318.218 229.02 318.218 228.621C318.218 228.234 318.315 227.869 318.509 227.527C318.702 227.174 318.965 226.872 319.295 226.622C319.625 226.36 320.013 226.154 320.457 226.006C320.901 225.858 321.38 225.784 321.893 225.784C322.405 225.784 322.889 225.858 323.345 226.006C323.801 226.154 324.2 226.36 324.542 226.622C324.883 226.872 325.151 227.174 325.345 227.527C325.538 227.869 325.635 228.234 325.635 228.621ZM342.588 252.564C342.588 252.234 342.583 251.903 342.571 251.573C342.56 251.231 342.554 250.895 342.554 250.564C341.95 251.111 341.318 251.527 340.657 251.812C340.008 252.085 339.41 252.291 338.863 252.427C338.225 252.587 337.592 252.678 336.966 252.701C335.826 252.701 334.727 252.524 333.667 252.171C332.619 251.829 331.685 251.311 330.865 250.616C330.044 249.921 329.378 249.055 328.865 248.018C328.364 246.97 328.085 245.757 328.028 244.378C328.028 242.988 328.216 241.723 328.592 240.584C328.968 239.433 329.532 238.448 330.284 237.627C331.036 236.807 331.97 236.175 333.086 235.73C334.203 235.275 335.496 235.041 336.966 235.03C337.011 235.03 337.182 235.041 337.479 235.064C337.786 235.075 338.162 235.127 338.606 235.218C339.051 235.298 339.535 235.434 340.059 235.628C340.583 235.81 341.102 236.067 341.614 236.397L341.341 234.295L348.091 233.833C347.955 237.103 347.886 240.356 347.886 243.592C347.886 244.378 347.886 245.124 347.886 245.831C347.898 246.526 347.909 247.221 347.92 247.916C347.943 248.599 347.966 249.294 347.989 250C348.023 250.695 348.057 251.43 348.091 252.205L342.588 252.564ZM334.607 248.428C335.963 248.371 337.296 248.28 338.606 248.155C339.917 248.029 341.21 247.841 342.486 247.591C342.452 246.178 342.389 244.811 342.298 243.489C342.218 242.168 342.104 240.818 341.956 239.439H340.982C339.877 239.439 338.766 239.479 337.649 239.559C336.544 239.627 335.428 239.747 334.3 239.917C334.163 241.114 334.095 242.316 334.095 243.523C334.095 243.979 334.106 244.406 334.129 244.805C334.152 245.193 334.18 245.58 334.214 245.967C334.26 246.355 334.311 246.748 334.368 247.146C334.437 247.545 334.516 247.972 334.607 248.428ZM345.425 227.391C345.448 227.618 345.471 227.835 345.494 228.04C345.528 228.245 345.545 228.444 345.545 228.638C345.545 229.219 345.471 229.726 345.323 230.159C345.186 230.592 344.998 230.974 344.759 231.304C344.531 231.623 344.269 231.891 343.973 232.107C343.676 232.324 343.375 232.506 343.067 232.654C342.349 232.996 341.529 233.19 340.606 233.235C340.002 233.213 339.432 233.11 338.897 232.928C338.441 232.78 337.997 232.54 337.564 232.21C337.131 231.88 336.823 231.412 336.641 230.809H334.966C334.898 231.025 334.852 231.242 334.83 231.458C334.807 231.663 334.795 231.88 334.795 232.107C334.795 232.301 334.801 232.489 334.812 232.671C334.835 232.854 334.875 233.042 334.932 233.235L330.557 232.876C330.557 232.238 330.631 231.674 330.779 231.185C330.939 230.695 331.144 230.273 331.395 229.92C331.657 229.555 331.947 229.248 332.266 228.997C332.597 228.746 332.933 228.541 333.274 228.382C334.072 228.006 334.983 227.789 336.009 227.732C336.02 227.732 336.123 227.738 336.316 227.75C336.51 227.761 336.755 227.795 337.051 227.852C337.347 227.909 337.661 228 337.991 228.125C338.333 228.239 338.652 228.41 338.948 228.638C339.244 228.866 339.489 229.157 339.683 229.51C339.888 229.863 339.996 230.296 340.008 230.809H341.58C341.603 230.649 341.614 230.501 341.614 230.364C341.614 230.216 341.614 230.074 341.614 229.937C341.614 229.515 341.574 229.094 341.495 228.672C341.426 228.239 341.301 227.812 341.119 227.391H345.425ZM363.882 248.462C363.951 247.494 363.996 246.554 364.019 245.643C364.053 244.731 364.07 243.831 364.07 242.942C364.07 242.02 364.053 241.114 364.019 240.225C363.996 239.325 363.951 238.396 363.882 237.439C363.495 237.382 363.108 237.348 362.72 237.337C362.344 237.314 361.963 237.303 361.575 237.303C359.98 237.303 358.442 237.479 356.961 237.833C356.927 238.448 356.893 239.057 356.858 239.661C356.836 240.265 356.824 240.869 356.824 241.473C356.824 242.68 356.87 243.888 356.961 245.096C357.063 246.292 357.212 247.545 357.405 248.855C357.667 248.878 357.929 248.89 358.191 248.89C358.465 248.89 358.744 248.89 359.029 248.89C359.815 248.89 360.612 248.855 361.421 248.787C362.242 248.719 363.062 248.611 363.882 248.462ZM370.223 243.079C370.223 244.435 369.955 245.711 369.419 246.907C368.895 248.092 368.178 249.129 367.266 250.018C366.355 250.906 365.284 251.607 364.053 252.12C362.834 252.644 361.53 252.906 360.14 252.906C358.761 252.906 357.491 252.644 356.329 252.12C355.178 251.607 354.181 250.906 353.338 250.018C352.506 249.129 351.857 248.092 351.39 246.907C350.923 245.711 350.689 244.435 350.689 243.079C350.689 241.404 350.923 239.952 351.39 238.721C351.857 237.491 352.506 236.471 353.338 235.662C354.181 234.853 355.178 234.255 356.329 233.868C357.491 233.469 358.761 233.27 360.14 233.27C361.53 233.27 362.834 233.492 364.053 233.936C365.284 234.38 366.355 235.024 367.266 235.867C368.178 236.71 368.895 237.741 369.419 238.96C369.955 240.168 370.223 241.541 370.223 243.079Z" fill="black"/>
</svg>
