<svg width="429" height="340" viewBox="0 0 429 340" fill="none" xmlns="http://www.w3.org/2000/svg">
<path d="M84.9932 232.132C84.2526 232.132 83.5519 232.143 82.8911 232.166C82.2303 232.177 81.5695 232.2 80.9087 232.234C80.2479 232.269 79.57 232.314 78.875 232.371C78.18 232.428 77.4395 232.496 76.6533 232.576C76.7673 231.995 76.847 231.368 76.8926 230.696C76.9495 230.024 76.978 229.335 76.978 228.628C76.978 228.195 76.9666 227.763 76.9438 227.33C76.9325 226.897 76.8983 226.486 76.8413 226.099C76.021 225.871 75.0924 225.706 74.0557 225.604C73.0189 225.49 71.9764 225.433 70.9282 225.433C70.1877 225.433 69.4699 225.461 68.7749 225.518C68.0799 225.564 67.4419 225.632 66.8608 225.723C66.633 227.113 66.4621 228.537 66.3481 229.996C66.2456 231.443 66.1943 232.912 66.1943 234.405C66.1943 236 66.2513 237.583 66.3652 239.156C66.4792 240.728 66.6444 242.283 66.8608 243.821C67.2824 243.969 67.7609 244.1 68.2964 244.214C68.8319 244.328 69.3901 244.425 69.9712 244.505C70.5522 244.585 71.139 244.647 71.7314 244.693C72.3353 244.738 72.9163 244.761 73.4746 244.761C73.862 244.761 74.2323 244.756 74.5854 244.744C74.95 244.721 75.2918 244.681 75.6108 244.625C75.7703 243.941 75.8957 243.183 75.9868 242.352C76.0894 241.508 76.1406 240.665 76.1406 239.822C76.1406 239.15 76.1064 238.495 76.0381 237.857C76.9495 237.948 77.8154 238.016 78.6357 238.062C79.4674 238.096 80.3162 238.113 81.1821 238.113C82.2987 238.113 83.5234 238.079 84.8564 238.011C84.64 239.253 84.3153 240.352 83.8823 241.309C83.4494 242.266 82.9424 243.104 82.3613 243.821C81.7917 244.539 81.165 245.154 80.4814 245.667C79.8092 246.18 79.1143 246.607 78.3965 246.949C77.6901 247.291 76.9837 247.564 76.2773 247.769C75.571 247.974 74.9045 248.128 74.2778 248.23C73.6626 248.333 73.0986 248.396 72.5859 248.418C72.0846 248.453 71.6802 248.47 71.3726 248.47C69.5496 248.47 67.9603 248.287 66.6045 247.923C65.2601 247.558 64.1094 247.063 63.1523 246.436C62.1953 245.809 61.4035 245.08 60.7769 244.249C60.1616 243.417 59.6774 242.534 59.3242 241.6C58.971 240.654 58.7261 239.686 58.5894 238.694C58.4526 237.703 58.3843 236.74 58.3843 235.806C58.3843 233.676 58.652 231.756 59.1875 230.047C59.723 228.338 60.5547 226.868 61.6826 225.638C62.8219 224.407 64.2689 223.439 66.0234 222.732C67.778 222.015 69.8743 221.587 72.3125 221.451C73.8848 221.451 75.383 221.684 76.8071 222.151C78.2313 222.618 79.5073 223.302 80.6353 224.202C81.7746 225.102 82.7259 226.219 83.4893 227.552C84.2526 228.885 84.7539 230.411 84.9932 232.132ZM101.075 247.564C101.075 247.234 101.069 246.903 101.058 246.573C101.046 246.231 101.041 245.895 101.041 245.564C100.437 246.111 99.8044 246.527 99.1436 246.812C98.4941 247.085 97.896 247.291 97.3491 247.427C96.7111 247.587 96.0788 247.678 95.4521 247.701C94.3128 247.701 93.2134 247.524 92.1538 247.171C91.1056 246.829 90.1714 246.311 89.3511 245.616C88.5308 244.921 87.8643 244.055 87.3516 243.018C86.8503 241.97 86.5711 240.757 86.5142 239.378C86.5142 237.988 86.7021 236.723 87.0781 235.584C87.4541 234.433 88.0181 233.448 88.77 232.627C89.522 231.807 90.4562 231.175 91.5728 230.73C92.6893 230.275 93.9824 230.041 95.4521 230.03C95.4977 230.03 95.6686 230.041 95.9648 230.064C96.2725 230.075 96.6484 230.127 97.0928 230.218C97.5371 230.298 98.0213 230.434 98.5454 230.628C99.0695 230.81 99.5879 231.067 100.101 231.397L99.8271 229.295L106.578 228.833C106.441 232.103 106.373 235.356 106.373 238.592C106.373 239.378 106.373 240.124 106.373 240.831C106.384 241.526 106.395 242.221 106.407 242.916C106.43 243.599 106.452 244.294 106.475 245C106.509 245.695 106.543 246.43 106.578 247.205L101.075 247.564ZM93.0938 243.428C94.4495 243.371 95.7826 243.28 97.0928 243.155C98.403 243.029 99.6961 242.841 100.972 242.591C100.938 241.178 100.875 239.811 100.784 238.489C100.704 237.168 100.59 235.818 100.442 234.439H99.4683C98.3631 234.439 97.2523 234.479 96.1357 234.559C95.0306 234.627 93.9141 234.747 92.7861 234.917C92.6494 236.114 92.5811 237.316 92.5811 238.523C92.5811 238.979 92.5924 239.406 92.6152 239.805C92.638 240.193 92.6665 240.58 92.7007 240.967C92.7463 241.355 92.7975 241.748 92.8545 242.146C92.9229 242.545 93.0026 242.972 93.0938 243.428ZM129.751 222.288C129.489 226.367 129.301 230.503 129.188 234.695C129.074 238.877 129.017 243.035 129.017 247.171H123.326L123.428 245.257C122.881 245.781 122.278 246.185 121.617 246.47C120.956 246.755 120.329 246.96 119.737 247.085C119.042 247.234 118.347 247.319 117.652 247.342C116.353 247.342 115.18 247.108 114.131 246.641C113.095 246.174 112.212 245.519 111.482 244.676C110.765 243.833 110.212 242.819 109.825 241.634C109.437 240.449 109.244 239.144 109.244 237.72C109.244 236.775 109.358 235.897 109.585 235.088C109.813 234.279 110.127 233.545 110.525 232.884C110.924 232.223 111.391 231.642 111.927 231.141C112.462 230.639 113.032 230.218 113.636 229.876C114.24 229.534 114.866 229.278 115.516 229.107C116.165 228.925 116.809 228.833 117.447 228.833C118.233 228.856 119.002 228.959 119.754 229.141C120.073 229.221 120.403 229.323 120.745 229.449C121.087 229.563 121.423 229.705 121.753 229.876C122.095 230.047 122.42 230.246 122.728 230.474C123.047 230.702 123.337 230.97 123.599 231.277C123.565 229.694 123.525 228.127 123.479 226.578C123.434 225.017 123.383 223.462 123.326 221.912L129.751 222.288ZM121.36 242.864C121.679 242.864 122.015 242.864 122.369 242.864C122.733 242.864 123.109 242.853 123.497 242.83C123.554 241.657 123.588 240.477 123.599 239.292C123.622 238.096 123.633 236.894 123.633 235.687V233.602C122.779 233.51 121.987 233.436 121.258 233.379C120.54 233.311 119.771 233.277 118.951 233.277C118.518 233.277 118.068 233.288 117.601 233.311C117.145 233.322 116.638 233.345 116.08 233.379C115.931 234.405 115.823 235.424 115.755 236.438C115.687 237.452 115.652 238.478 115.652 239.515C115.652 240.027 115.652 240.534 115.652 241.036C115.664 241.537 115.698 242.044 115.755 242.557C116.325 242.614 116.849 242.659 117.327 242.693C117.817 242.728 118.284 242.762 118.729 242.796C119.184 242.819 119.623 242.836 120.044 242.847C120.477 242.859 120.916 242.864 121.36 242.864ZM146.534 247.564C146.534 247.234 146.528 246.903 146.517 246.573C146.505 246.231 146.5 245.895 146.5 245.564C145.896 246.111 145.263 246.527 144.603 246.812C143.953 247.085 143.355 247.291 142.808 247.427C142.17 247.587 141.538 247.678 140.911 247.701C139.772 247.701 138.672 247.524 137.613 247.171C136.565 246.829 135.63 246.311 134.81 245.616C133.99 244.921 133.323 244.055 132.811 243.018C132.309 241.97 132.03 240.757 131.973 239.378C131.973 237.988 132.161 236.723 132.537 235.584C132.913 234.433 133.477 233.448 134.229 232.627C134.981 231.807 135.915 231.175 137.032 230.73C138.148 230.275 139.441 230.041 140.911 230.03C140.957 230.03 141.128 230.041 141.424 230.064C141.731 230.075 142.107 230.127 142.552 230.218C142.996 230.298 143.48 230.434 144.004 230.628C144.528 230.81 145.047 231.067 145.56 231.397L145.286 229.295L152.037 228.833C151.9 232.103 151.832 235.356 151.832 238.592C151.832 239.378 151.832 240.124 151.832 240.831C151.843 241.526 151.854 242.221 151.866 242.916C151.889 243.599 151.911 244.294 151.934 245C151.968 245.695 152.002 246.43 152.037 247.205L146.534 247.564ZM138.553 243.428C139.909 243.371 141.242 243.28 142.552 243.155C143.862 243.029 145.155 242.841 146.431 242.591C146.397 241.178 146.334 239.811 146.243 238.489C146.163 237.168 146.049 235.818 145.901 234.439H144.927C143.822 234.439 142.711 234.479 141.595 234.559C140.49 234.627 139.373 234.747 138.245 234.917C138.108 236.114 138.04 237.316 138.04 238.523C138.04 238.979 138.051 239.406 138.074 239.805C138.097 240.193 138.125 240.58 138.16 240.967C138.205 241.355 138.257 241.748 138.313 242.146C138.382 242.545 138.462 242.972 138.553 243.428ZM173.467 243.018C173.467 244.021 173.211 244.858 172.698 245.53C172.186 246.191 171.513 246.721 170.682 247.12C169.85 247.53 168.904 247.815 167.845 247.974C166.785 248.145 165.708 248.23 164.615 248.23C164.011 248.23 163.361 248.191 162.667 248.111C161.983 248.042 161.294 247.911 160.599 247.718C159.904 247.535 159.226 247.291 158.565 246.983C157.916 246.664 157.323 246.265 156.788 245.787C156.252 245.308 155.791 244.744 155.403 244.095C155.027 243.445 154.771 242.688 154.634 241.822L161.573 241.753L161.846 244.727H167.161L167.554 241.292C166.848 241.132 166.039 240.996 165.127 240.882C164.216 240.768 163.282 240.631 162.325 240.472C161.368 240.301 160.428 240.084 159.505 239.822C158.582 239.56 157.762 239.201 157.044 238.746C156.326 238.29 155.745 237.715 155.301 237.02C154.856 236.325 154.634 235.464 154.634 234.439C154.634 233.334 154.902 232.405 155.438 231.653C155.973 230.89 156.674 230.28 157.54 229.825C158.417 229.358 159.408 229.016 160.513 228.799C161.618 228.583 162.741 228.458 163.88 228.423C164.484 228.423 165.133 228.458 165.828 228.526C166.535 228.594 167.235 228.72 167.93 228.902C168.625 229.073 169.292 229.312 169.93 229.62C170.579 229.927 171.154 230.32 171.656 230.799C172.168 231.266 172.584 231.836 172.903 232.508C173.234 233.169 173.422 233.949 173.467 234.849L166.751 235.14V231.773H160.975V236.319C161.715 236.478 162.541 236.604 163.453 236.695C164.364 236.775 165.281 236.883 166.204 237.02C167.127 237.156 168.021 237.344 168.887 237.583C169.764 237.823 170.539 238.165 171.211 238.609C171.895 239.053 172.442 239.629 172.852 240.335C173.262 241.041 173.467 241.936 173.467 243.018ZM192.181 233.978C191.076 233.921 189.965 233.869 188.848 233.824C187.743 233.778 186.638 233.738 185.533 233.704C185.396 235.971 185.276 238.233 185.174 240.489C185.071 242.745 184.992 245.018 184.935 247.308L179.944 247.803C180.013 243.633 180.047 239.503 180.047 235.413V233.602H178.816C178.133 233.602 177.449 233.607 176.766 233.619C176.082 233.63 175.398 233.636 174.715 233.636V229.295C175.011 229.295 175.307 229.301 175.604 229.312C175.911 229.323 176.224 229.329 176.543 229.329H180.013C180.013 228.27 180.007 227.227 179.996 226.202C179.984 225.165 179.967 224.128 179.944 223.091H186.421C186.307 224.117 186.205 225.136 186.114 226.15C186.034 227.153 185.96 228.156 185.892 229.158C186.951 229.113 187.994 229.067 189.019 229.021C190.056 228.965 191.11 228.902 192.181 228.833V233.978ZM207.151 238.814C207.174 238.529 207.197 238.25 207.22 237.977C207.243 237.692 207.254 237.407 207.254 237.122C207.254 236.142 207.151 235.174 206.946 234.217C205.887 234.262 204.833 234.336 203.785 234.439C202.748 234.542 201.7 234.678 200.64 234.849V238.25C200.64 239.743 200.64 241.224 200.64 242.693C200.64 244.152 200.652 245.621 200.674 247.103L194.59 247.53C194.625 247.108 194.642 246.692 194.642 246.282C194.653 245.872 194.659 245.456 194.659 245.035C194.659 242.391 194.607 239.777 194.505 237.19C194.414 234.604 194.277 232.007 194.095 229.397L200.674 228.833C200.674 229.153 200.669 229.472 200.657 229.791C200.646 230.098 200.64 230.411 200.64 230.73C201.301 230.252 201.962 229.887 202.623 229.637C203.295 229.386 203.904 229.198 204.451 229.073C205.078 228.936 205.687 228.856 206.28 228.833C207.624 228.902 208.826 229.209 209.886 229.756C210.33 229.984 210.769 230.28 211.202 230.645C211.635 230.998 212.022 231.437 212.364 231.961C212.706 232.474 212.979 233.083 213.184 233.79C213.389 234.485 213.492 235.293 213.492 236.216C213.492 236.535 213.475 236.871 213.44 237.225C213.406 237.566 213.361 237.931 213.304 238.318L207.151 238.814ZM228.018 243.462C228.086 242.494 228.132 241.554 228.155 240.643C228.189 239.731 228.206 238.831 228.206 237.942C228.206 237.02 228.189 236.114 228.155 235.225C228.132 234.325 228.086 233.396 228.018 232.439C227.631 232.382 227.243 232.348 226.856 232.337C226.48 232.314 226.098 232.303 225.711 232.303C224.116 232.303 222.578 232.479 221.097 232.833C221.062 233.448 221.028 234.057 220.994 234.661C220.971 235.265 220.96 235.869 220.96 236.473C220.96 237.68 221.006 238.888 221.097 240.096C221.199 241.292 221.347 242.545 221.541 243.855C221.803 243.878 222.065 243.89 222.327 243.89C222.601 243.89 222.88 243.89 223.165 243.89C223.951 243.89 224.748 243.855 225.557 243.787C226.377 243.719 227.198 243.611 228.018 243.462ZM234.358 238.079C234.358 239.435 234.091 240.711 233.555 241.907C233.031 243.092 232.313 244.129 231.402 245.018C230.49 245.906 229.419 246.607 228.189 247.12C226.97 247.644 225.665 247.906 224.275 247.906C222.897 247.906 221.626 247.644 220.464 247.12C219.314 246.607 218.317 245.906 217.474 245.018C216.642 244.129 215.993 243.092 215.525 241.907C215.058 240.711 214.825 239.435 214.825 238.079C214.825 236.404 215.058 234.952 215.525 233.721C215.993 232.491 216.642 231.471 217.474 230.662C218.317 229.853 219.314 229.255 220.464 228.868C221.626 228.469 222.897 228.27 224.275 228.27C225.665 228.27 226.97 228.492 228.189 228.936C229.419 229.38 230.49 230.024 231.402 230.867C232.313 231.71 233.031 232.741 233.555 233.96C234.091 235.168 234.358 236.541 234.358 238.079ZM266.214 238.985L252.85 240.062C252.907 240.768 252.986 241.469 253.089 242.164C253.191 242.859 253.322 243.559 253.482 244.266C254.485 244.334 255.453 244.368 256.387 244.368C256.9 244.368 257.396 244.362 257.874 244.351C258.353 244.328 258.848 244.3 259.361 244.266C259.384 244.038 259.401 243.81 259.412 243.582C259.424 243.354 259.429 243.126 259.429 242.898C259.429 242.693 259.424 242.494 259.412 242.3C259.412 242.095 259.395 241.89 259.361 241.685L265.804 241.822C265.485 242.904 265.023 243.833 264.419 244.607C263.827 245.382 263.121 246.02 262.3 246.521C261.491 247.011 260.586 247.37 259.583 247.598C258.58 247.826 257.527 247.94 256.421 247.94C255.066 247.94 253.79 247.758 252.593 247.393C251.408 247.028 250.372 246.442 249.483 245.633C248.606 244.812 247.911 243.747 247.398 242.437C246.897 241.127 246.646 239.52 246.646 237.618C246.646 236.08 246.914 234.758 247.449 233.653C247.985 232.548 248.697 231.636 249.585 230.918C250.486 230.201 251.522 229.677 252.696 229.346C253.881 229.004 255.123 228.833 256.421 228.833C257.777 228.833 259.048 229.016 260.232 229.38C261.429 229.745 262.465 230.315 263.343 231.089C264.231 231.864 264.932 232.855 265.445 234.063C265.958 235.271 266.214 236.712 266.214 238.387V238.985ZM252.679 236.473H259.532C259.532 235.06 259.389 233.715 259.104 232.439C258.125 232.234 257.099 232.132 256.028 232.132C254.98 232.132 253.921 232.234 252.85 232.439C252.781 233.077 252.736 233.727 252.713 234.388C252.69 235.037 252.679 235.732 252.679 236.473ZM297.129 247.598C295.569 247.496 293.996 247.416 292.413 247.359C290.829 247.302 289.24 247.273 287.645 247.273C286.289 247.273 284.933 247.296 283.577 247.342C282.221 247.387 280.848 247.473 279.458 247.598C279.55 245.547 279.618 243.514 279.664 241.497C279.709 239.469 279.732 237.43 279.732 235.379C279.732 233.089 279.709 230.81 279.664 228.543C279.618 226.264 279.55 224.014 279.458 221.792H287.012C286.967 224.493 286.921 227.119 286.875 229.671C286.853 230.765 286.836 231.893 286.824 233.055C286.813 234.217 286.796 235.362 286.773 236.49C286.762 237.618 286.75 238.7 286.739 239.737C286.739 240.762 286.739 241.691 286.739 242.522L297.129 242.232V247.598ZM311.485 243.462C311.553 242.494 311.599 241.554 311.622 240.643C311.656 239.731 311.673 238.831 311.673 237.942C311.673 237.02 311.656 236.114 311.622 235.225C311.599 234.325 311.553 233.396 311.485 232.439C311.097 232.382 310.71 232.348 310.323 232.337C309.947 232.314 309.565 232.303 309.178 232.303C307.583 232.303 306.045 232.479 304.563 232.833C304.529 233.448 304.495 234.057 304.461 234.661C304.438 235.265 304.427 235.869 304.427 236.473C304.427 237.68 304.472 238.888 304.563 240.096C304.666 241.292 304.814 242.545 305.008 243.855C305.27 243.878 305.532 243.89 305.794 243.89C306.067 243.89 306.347 243.89 306.631 243.89C307.417 243.89 308.215 243.855 309.024 243.787C309.844 243.719 310.665 243.611 311.485 243.462ZM317.825 238.079C317.825 239.435 317.557 240.711 317.022 241.907C316.498 243.092 315.78 244.129 314.869 245.018C313.957 245.906 312.886 246.607 311.656 247.12C310.437 247.644 309.132 247.906 307.742 247.906C306.364 247.906 305.093 247.644 303.931 247.12C302.78 246.607 301.784 245.906 300.94 245.018C300.109 244.129 299.459 243.092 298.992 241.907C298.525 240.711 298.292 239.435 298.292 238.079C298.292 236.404 298.525 234.952 298.992 233.721C299.459 232.491 300.109 231.471 300.94 230.662C301.784 229.853 302.78 229.255 303.931 228.868C305.093 228.469 306.364 228.27 307.742 228.27C309.132 228.27 310.437 228.492 311.656 228.936C312.886 229.38 313.957 230.024 314.869 230.867C315.78 231.71 316.498 232.741 317.022 233.96C317.557 235.168 317.825 236.541 317.825 238.079ZM339.188 228.833C339.017 232.331 338.88 235.328 338.777 237.823C338.686 240.318 338.618 242.363 338.572 243.958C338.515 245.838 338.475 247.387 338.453 248.606C338.396 250.053 338.077 251.301 337.496 252.349C336.926 253.397 336.18 254.269 335.257 254.964C334.345 255.659 333.303 256.189 332.129 256.553C330.967 256.918 329.76 257.14 328.506 257.22C327.242 257.22 326.085 257.066 325.037 256.758C324 256.451 323.095 256.018 322.32 255.459C321.556 254.901 320.93 254.24 320.44 253.477C319.961 252.714 319.654 251.871 319.517 250.948L326.456 250.469C326.342 250.765 326.268 251.067 326.233 251.375C326.211 251.683 326.199 251.996 326.199 252.315C326.199 252.6 326.211 252.89 326.233 253.187C326.268 253.483 326.342 253.779 326.456 254.075C326.615 254.098 326.775 254.109 326.934 254.109C327.094 254.109 327.259 254.109 327.43 254.109C329.059 254.109 330.671 253.933 332.266 253.58C332.369 252.304 332.454 251.033 332.522 249.769C332.591 248.515 332.653 247.256 332.71 245.992C332.164 246.333 331.605 246.596 331.036 246.778C330.466 246.949 329.942 247.08 329.463 247.171C328.905 247.273 328.358 247.33 327.823 247.342C327.185 247.342 326.541 247.251 325.892 247.068C325.242 246.897 324.616 246.641 324.012 246.299C323.408 245.958 322.838 245.536 322.303 245.035C321.767 244.533 321.3 243.952 320.901 243.292C320.503 242.631 320.189 241.902 319.961 241.104C319.734 240.295 319.62 239.412 319.62 238.455C319.62 237.031 319.808 235.732 320.184 234.559C320.571 233.374 321.124 232.36 321.841 231.517C322.559 230.662 323.436 230.001 324.473 229.534C325.51 229.067 326.683 228.833 327.994 228.833C328.529 228.845 329.076 228.902 329.634 229.004C330.113 229.096 330.637 229.238 331.207 229.432C331.776 229.614 332.323 229.882 332.847 230.235C332.847 229.939 332.841 229.637 332.83 229.329C332.819 229.021 332.813 228.72 332.813 228.423L339.188 228.833ZM332.933 236.541C332.933 236.006 332.927 235.476 332.916 234.952C332.916 234.416 332.904 233.881 332.881 233.345C332.676 233.322 332.471 233.311 332.266 233.311C332.061 233.311 331.862 233.311 331.668 233.311C331.235 233.311 330.808 233.317 330.386 233.328C329.965 233.34 329.532 233.362 329.087 233.396C328.643 233.419 328.176 233.453 327.686 233.499C327.196 233.533 326.666 233.579 326.097 233.636C326.062 234.16 326.034 234.673 326.011 235.174C326 235.664 325.994 236.165 325.994 236.678C325.994 237.715 326.034 238.74 326.114 239.754C326.194 240.757 326.307 241.771 326.456 242.796C327.002 242.83 327.504 242.859 327.959 242.881C328.415 242.893 328.86 242.898 329.292 242.898C329.919 242.898 330.512 242.887 331.07 242.864C331.628 242.841 332.221 242.796 332.847 242.728C332.87 241.691 332.887 240.66 332.898 239.634C332.921 238.609 332.933 237.578 332.933 236.541ZM348.57 229.158C348.319 231.699 348.148 234.205 348.057 236.678C347.977 239.15 347.938 241.622 347.938 244.095C347.938 244.528 347.938 244.966 347.938 245.411C347.938 245.844 347.949 246.282 347.972 246.727H342.691C342.691 246.02 342.697 245.319 342.708 244.625C342.719 243.93 342.725 243.24 342.725 242.557C342.725 240.289 342.668 238.045 342.554 235.823C342.452 233.602 342.286 231.38 342.059 229.158H348.57ZM348.57 223.621C348.57 224.02 348.473 224.396 348.279 224.749C348.086 225.091 347.818 225.393 347.476 225.655C347.134 225.905 346.736 226.111 346.28 226.27C345.824 226.418 345.34 226.492 344.827 226.492C344.314 226.492 343.836 226.418 343.392 226.27C342.947 226.111 342.56 225.905 342.229 225.655C341.899 225.393 341.637 225.091 341.443 224.749C341.25 224.396 341.153 224.02 341.153 223.621C341.153 223.234 341.25 222.869 341.443 222.527C341.637 222.174 341.899 221.872 342.229 221.622C342.56 221.36 342.947 221.154 343.392 221.006C343.836 220.858 344.314 220.784 344.827 220.784C345.34 220.784 345.824 220.858 346.28 221.006C346.736 221.154 347.134 221.36 347.476 221.622C347.818 221.872 348.086 222.174 348.279 222.527C348.473 222.869 348.57 223.234 348.57 223.621ZM370.257 238.079C370.257 239.594 370.177 241.138 370.018 242.71C369.858 244.283 369.585 245.855 369.197 247.427H363.25C363.398 245.73 363.512 244.055 363.592 242.403C363.672 240.739 363.711 239.065 363.711 237.378C363.711 236.809 363.711 236.245 363.711 235.687C363.711 235.117 363.7 234.547 363.677 233.978C363.165 233.921 362.658 233.886 362.156 233.875C361.655 233.852 361.148 233.841 360.635 233.841C359.667 233.841 358.67 233.875 357.645 233.943C357.61 234.878 357.582 235.743 357.559 236.541C357.548 237.339 357.542 238.13 357.542 238.917C357.542 239.498 357.548 240.09 357.559 240.694C357.57 241.286 357.588 241.924 357.61 242.608C357.645 243.292 357.684 244.032 357.73 244.83C357.776 245.616 357.833 246.482 357.901 247.427H352.159C352.159 246.06 352.153 244.852 352.142 243.804C352.13 242.756 352.113 241.793 352.09 240.916C352.068 240.027 352.033 239.184 351.988 238.387C351.954 237.578 351.908 236.735 351.851 235.857C351.794 234.969 351.731 234.006 351.663 232.969C351.595 231.921 351.515 230.719 351.424 229.363L357.901 228.97L357.764 231.397C358.414 230.941 359.08 230.588 359.764 230.337C360.447 230.087 361.074 229.899 361.644 229.773C362.304 229.637 362.948 229.557 363.575 229.534C364.406 229.534 365.147 229.648 365.796 229.876C366.457 230.104 367.033 230.423 367.522 230.833C368.024 231.232 368.445 231.705 368.787 232.251C369.129 232.798 369.408 233.391 369.625 234.029C369.852 234.655 370.012 235.316 370.103 236.011C370.206 236.706 370.257 237.396 370.257 238.079Z" fill="black"/>
<path d="M197.503 115.652H177.749C146.439 115.652 120.956 142.574 120.956 175.652V191.304C120.956 195.634 124.265 199.13 128.364 199.13H246.887C250.986 199.13 254.295 195.634 254.295 191.304V175.652C254.295 142.574 228.813 115.652 197.503 115.652ZM239.48 183.478H135.772V175.652C135.772 151.182 154.587 131.304 177.749 131.304H197.503C220.664 131.304 239.48 151.182 239.48 175.652V183.478ZM187.626 110.435C216.219 110.435 239.48 85.8609 239.48 55.6524C239.48 25.4438 216.219 0.869995 187.626 0.869995C159.032 0.869995 135.772 25.4438 135.772 55.6524C135.772 85.8609 159.032 110.435 187.626 110.435ZM187.626 16.5221C208.071 16.5221 224.664 34.0525 224.664 55.6524C224.664 77.2523 208.071 94.7826 187.626 94.7826C167.18 94.7826 150.587 77.2523 150.587 55.6524C150.587 34.0525 167.18 16.5221 187.626 16.5221ZM332.768 99.8435C332.768 99.7913 332.768 99.687 332.718 99.6348V99.5826C332.373 98.6957 331.879 97.9652 331.286 97.287C331.226 97.2074 331.176 97.1197 331.138 97.0261L311.384 76.1566C308.47 73.0784 303.779 73.0784 300.914 76.1566C298.05 79.2349 298.001 84.1914 300.914 87.2175L307.976 94.7826H261.654C257.555 94.7826 254.246 98.2783 254.246 102.609C254.246 106.939 257.555 110.435 261.654 110.435H307.976L300.865 117.948C300.172 118.671 299.622 119.532 299.247 120.481C298.871 121.431 298.678 122.449 298.678 123.478C298.678 124.507 298.871 125.526 299.247 126.475C299.622 127.424 300.172 128.286 300.865 129.009C302.297 130.522 304.223 131.304 306.1 131.304C307.976 131.304 309.902 130.522 311.335 129.009L331.089 108.139C331.731 107.461 332.175 106.678 332.57 105.843C332.669 105.583 332.768 105.322 332.817 105.061C333.015 104.435 333.113 103.809 333.163 103.13C333.163 102.87 333.212 102.609 333.212 102.348C333.212 101.461 333.064 100.678 332.768 99.8435Z" fill="black"/>
</svg>
