<svg width="378" height="285" viewBox="0 0 378 285" fill="none" xmlns="http://www.w3.org/2000/svg">
<path d="M268.746 39.4147L239.976 6.51149C236.221 2.47779 231.3 0.16331 226.15 0.00831897C221.001 -0.146672 215.981 1.86864 212.045 5.6709L117.544 113.747C114.15 117.662 112.037 122.792 111.559 128.277L107.044 178.353C106.903 180.112 107.102 181.885 107.629 183.545C108.155 185.206 108.995 186.713 110.089 187.96C111.07 189.073 112.234 189.953 113.513 190.551C114.792 191.148 116.162 191.451 117.544 191.442H118.489L162.275 186.879C167.071 186.332 171.557 183.916 174.98 180.034L269.481 71.9577C273.149 67.5262 275.131 61.6125 274.993 55.5125C274.856 49.4125 272.609 43.6238 268.746 39.4147ZM160.385 162.862L128.884 166.224L131.719 130.199L191.045 63.1915L219.395 95.6144L160.385 162.862ZM233.046 79.5231L204.905 47.3403L225.38 23.3234L254.046 56.1065L233.046 79.5231Z" fill="black"/>
<path d="M46.5732 217.508C46.5732 219.251 46.2428 220.761 45.582 222.037C44.9326 223.313 44.0155 224.384 42.8306 225.25C41.6457 226.104 40.2158 226.771 38.541 227.25C36.8776 227.728 35.0319 228.036 33.0039 228.172C33.0951 229.095 33.1805 230.041 33.2603 231.009C33.3514 231.966 33.4596 232.98 33.585 234.051L25.5015 234.615C25.7293 231.687 25.9059 228.776 26.0312 225.882C26.168 222.977 26.2363 220.055 26.2363 217.115C26.2363 216.352 26.2306 215.657 26.2192 215.03C26.2192 214.404 26.2078 213.794 26.1851 213.202C26.1737 212.609 26.1509 212 26.1167 211.373C26.0825 210.746 26.0426 210.046 25.9971 209.271C27.3757 208.849 28.777 208.548 30.2012 208.365C31.6367 208.183 33.1178 208.092 34.6445 208.092C35.4079 208.092 36.2339 208.132 37.1226 208.211C38.0112 208.291 38.8942 208.451 39.7715 208.69C40.6602 208.929 41.509 209.265 42.3179 209.698C43.1382 210.12 43.8617 210.678 44.4883 211.373C45.1263 212.068 45.6333 212.923 46.0093 213.937C46.3853 214.939 46.5732 216.13 46.5732 217.508ZM32.3716 211.698C32.3716 212.78 32.3716 213.84 32.3716 214.876C32.383 215.902 32.4001 216.927 32.4229 217.953C32.4456 218.967 32.4741 219.992 32.5083 221.029C32.5539 222.066 32.6108 223.131 32.6792 224.225H33.3115C34.3141 224.225 35.3224 224.196 36.3364 224.139C37.3504 224.071 38.3132 223.957 39.2246 223.797C39.3841 223.182 39.498 222.407 39.5664 221.473C39.6462 220.539 39.686 219.542 39.686 218.482C39.686 217.822 39.6689 217.155 39.6348 216.483C39.6006 215.811 39.555 215.167 39.498 214.552C39.4411 213.937 39.3613 213.367 39.2588 212.843C39.1676 212.307 39.0651 211.852 38.9512 211.476C38.7917 211.453 38.6037 211.436 38.3872 211.424C38.1821 211.413 37.9486 211.407 37.6865 211.407C37.1624 211.407 36.5928 211.424 35.9775 211.458C35.3737 211.493 34.7983 211.527 34.2515 211.561C33.6248 211.607 32.9982 211.652 32.3716 211.698ZM67.4058 225.831L54.0415 226.908C54.0985 227.614 54.1782 228.315 54.2808 229.01C54.3833 229.705 54.5143 230.405 54.6738 231.112C55.6764 231.18 56.6449 231.214 57.5791 231.214C58.0918 231.214 58.5874 231.209 59.0659 231.197C59.5444 231.174 60.04 231.146 60.5527 231.112C60.5755 230.884 60.5926 230.656 60.604 230.428C60.6154 230.2 60.6211 229.972 60.6211 229.745C60.6211 229.54 60.6154 229.34 60.604 229.146C60.604 228.941 60.5869 228.736 60.5527 228.531L66.9956 228.668C66.6766 229.75 66.2152 230.679 65.6113 231.454C65.0189 232.228 64.3125 232.866 63.4922 233.368C62.6833 233.858 61.7775 234.216 60.7749 234.444C59.7723 234.672 58.7184 234.786 57.6133 234.786C56.2575 234.786 54.9814 234.604 53.7852 234.239C52.6003 233.875 51.5635 233.288 50.6748 232.479C49.7975 231.659 49.1025 230.593 48.5898 229.283C48.0885 227.973 47.8379 226.367 47.8379 224.464C47.8379 222.926 48.1056 221.604 48.6411 220.499C49.1766 219.394 49.8887 218.482 50.7773 217.765C51.6774 217.047 52.7142 216.523 53.8877 216.192C55.0726 215.851 56.3145 215.68 57.6133 215.68C58.9691 215.68 60.2394 215.862 61.4243 216.227C62.6206 216.591 63.6574 217.161 64.5347 217.936C65.4233 218.71 66.124 219.701 66.6367 220.909C67.1494 222.117 67.4058 223.558 67.4058 225.233V225.831ZM53.8706 223.319H60.7236C60.7236 221.906 60.5812 220.562 60.2964 219.286C59.3166 219.081 58.2912 218.978 57.2202 218.978C56.172 218.978 55.1125 219.081 54.0415 219.286C53.9731 219.924 53.9276 220.573 53.9048 221.234C53.882 221.883 53.8706 222.578 53.8706 223.319ZM82.6157 225.66C82.6385 225.375 82.6613 225.096 82.6841 224.823C82.7069 224.538 82.7183 224.253 82.7183 223.968C82.7183 222.988 82.6157 222.02 82.4106 221.063C81.3511 221.109 80.2972 221.183 79.249 221.285C78.2122 221.388 77.1641 221.524 76.1045 221.695V225.096C76.1045 226.589 76.1045 228.07 76.1045 229.54C76.1045 230.998 76.1159 232.468 76.1387 233.949L70.0547 234.376C70.0889 233.954 70.106 233.539 70.106 233.128C70.1174 232.718 70.123 232.302 70.123 231.881C70.123 229.238 70.0718 226.623 69.9692 224.037C69.8781 221.45 69.7414 218.853 69.5591 216.244L76.1387 215.68C76.1387 215.999 76.133 216.318 76.1216 216.637C76.1102 216.944 76.1045 217.258 76.1045 217.577C76.7653 217.098 77.4261 216.734 78.0869 216.483C78.7591 216.232 79.3687 216.044 79.9155 215.919C80.5422 215.782 81.1517 215.702 81.7441 215.68C83.0885 215.748 84.2905 216.056 85.3501 216.603C85.7944 216.83 86.2331 217.127 86.666 217.491C87.099 217.844 87.4863 218.283 87.8281 218.807C88.1699 219.32 88.4434 219.929 88.6484 220.636C88.8535 221.331 88.9561 222.14 88.9561 223.062C88.9561 223.382 88.939 223.718 88.9048 224.071C88.8706 224.413 88.825 224.777 88.7681 225.165L82.6157 225.66ZM109.122 229.864C109.122 230.867 108.866 231.704 108.353 232.376C107.84 233.037 107.168 233.567 106.336 233.966C105.505 234.376 104.559 234.661 103.5 234.82C102.44 234.991 101.363 235.077 100.27 235.077C99.6657 235.077 99.0163 235.037 98.3213 234.957C97.6377 234.889 96.9484 234.758 96.2534 234.564C95.5584 234.382 94.8805 234.137 94.2197 233.829C93.5703 233.51 92.9779 233.111 92.4424 232.633C91.9069 232.154 91.4455 231.59 91.0581 230.941C90.6821 230.292 90.4258 229.534 90.2891 228.668L97.2275 228.6L97.501 231.573H102.816L103.209 228.138C102.503 227.979 101.694 227.842 100.782 227.728C99.8708 227.614 98.9365 227.477 97.9795 227.318C97.0225 227.147 96.0825 226.931 95.1597 226.668C94.2368 226.406 93.4165 226.048 92.6987 225.592C91.981 225.136 91.3999 224.561 90.9556 223.866C90.5112 223.171 90.2891 222.311 90.2891 221.285C90.2891 220.18 90.5568 219.251 91.0923 218.5C91.6278 217.736 92.3285 217.127 93.1943 216.671C94.0716 216.204 95.0628 215.862 96.168 215.646C97.2731 215.429 98.3953 215.304 99.5347 215.27C100.139 215.27 100.788 215.304 101.483 215.372C102.189 215.44 102.89 215.566 103.585 215.748C104.28 215.919 104.946 216.158 105.584 216.466C106.234 216.773 106.809 217.167 107.311 217.645C107.823 218.112 108.239 218.682 108.558 219.354C108.889 220.015 109.076 220.795 109.122 221.695L102.406 221.986V218.619H96.6294V223.165C97.37 223.325 98.196 223.45 99.1074 223.541C100.019 223.621 100.936 223.729 101.859 223.866C102.782 224.002 103.676 224.19 104.542 224.43C105.419 224.669 106.194 225.011 106.866 225.455C107.55 225.899 108.097 226.475 108.507 227.181C108.917 227.888 109.122 228.782 109.122 229.864ZM124.093 230.309C124.161 229.34 124.207 228.4 124.229 227.489C124.264 226.577 124.281 225.677 124.281 224.789C124.281 223.866 124.264 222.96 124.229 222.071C124.207 221.171 124.161 220.243 124.093 219.286C123.705 219.229 123.318 219.194 122.931 219.183C122.555 219.16 122.173 219.149 121.786 219.149C120.191 219.149 118.653 219.326 117.171 219.679C117.137 220.294 117.103 220.903 117.069 221.507C117.046 222.111 117.035 222.715 117.035 223.319C117.035 224.527 117.08 225.734 117.171 226.942C117.274 228.138 117.422 229.391 117.616 230.702C117.878 230.724 118.14 230.736 118.402 230.736C118.675 230.736 118.954 230.736 119.239 230.736C120.025 230.736 120.823 230.702 121.632 230.633C122.452 230.565 123.272 230.457 124.093 230.309ZM130.433 224.925C130.433 226.281 130.165 227.557 129.63 228.753C129.106 229.938 128.388 230.975 127.477 231.864C126.565 232.752 125.494 233.453 124.264 233.966C123.045 234.49 121.74 234.752 120.35 234.752C118.972 234.752 117.701 234.49 116.539 233.966C115.388 233.453 114.391 232.752 113.548 231.864C112.717 230.975 112.067 229.938 111.6 228.753C111.133 227.557 110.899 226.281 110.899 224.925C110.899 223.25 111.133 221.798 111.6 220.567C112.067 219.337 112.717 218.317 113.548 217.508C114.391 216.699 115.388 216.101 116.539 215.714C117.701 215.315 118.972 215.116 120.35 215.116C121.74 215.116 123.045 215.338 124.264 215.782C125.494 216.227 126.565 216.87 127.477 217.713C128.388 218.556 129.106 219.588 129.63 220.807C130.165 222.014 130.433 223.387 130.433 224.925ZM151.522 224.925C151.522 226.441 151.442 227.984 151.283 229.557C151.123 231.129 150.85 232.701 150.462 234.273H144.515C144.663 232.576 144.777 230.901 144.857 229.249C144.937 227.586 144.977 225.911 144.977 224.225C144.977 223.655 144.977 223.091 144.977 222.533C144.977 221.963 144.965 221.393 144.942 220.824C144.43 220.767 143.923 220.733 143.421 220.721C142.92 220.698 142.413 220.687 141.9 220.687C140.932 220.687 139.935 220.721 138.91 220.79C138.875 221.724 138.847 222.59 138.824 223.387C138.813 224.185 138.807 224.977 138.807 225.763C138.807 226.344 138.813 226.936 138.824 227.54C138.836 228.132 138.853 228.771 138.875 229.454C138.91 230.138 138.95 230.878 138.995 231.676C139.041 232.462 139.098 233.328 139.166 234.273H133.424C133.424 232.906 133.418 231.699 133.407 230.65C133.395 229.602 133.378 228.639 133.355 227.762C133.333 226.874 133.299 226.03 133.253 225.233C133.219 224.424 133.173 223.581 133.116 222.704C133.059 221.815 132.997 220.852 132.928 219.815C132.86 218.767 132.78 217.565 132.689 216.209L139.166 215.816L139.029 218.243C139.679 217.787 140.345 217.434 141.029 217.184C141.712 216.933 142.339 216.745 142.909 216.62C143.569 216.483 144.213 216.403 144.84 216.38C145.672 216.38 146.412 216.494 147.062 216.722C147.722 216.95 148.298 217.269 148.788 217.679C149.289 218.078 149.71 218.551 150.052 219.098C150.394 219.645 150.673 220.237 150.89 220.875C151.118 221.502 151.277 222.162 151.368 222.857C151.471 223.552 151.522 224.242 151.522 224.925ZM168.39 234.41C168.39 234.08 168.384 233.749 168.373 233.419C168.361 233.077 168.355 232.741 168.355 232.411C167.752 232.958 167.119 233.373 166.458 233.658C165.809 233.932 165.211 234.137 164.664 234.273C164.026 234.433 163.394 234.524 162.767 234.547C161.628 234.547 160.528 234.37 159.469 234.017C158.421 233.675 157.486 233.157 156.666 232.462C155.846 231.767 155.179 230.901 154.667 229.864C154.165 228.816 153.886 227.603 153.829 226.224C153.829 224.834 154.017 223.569 154.393 222.43C154.769 221.279 155.333 220.294 156.085 219.474C156.837 218.653 157.771 218.021 158.888 217.577C160.004 217.121 161.297 216.887 162.767 216.876C162.813 216.876 162.984 216.887 163.28 216.91C163.587 216.922 163.963 216.973 164.408 217.064C164.852 217.144 165.336 217.28 165.86 217.474C166.384 217.656 166.903 217.913 167.416 218.243L167.142 216.141L173.893 215.68C173.756 218.95 173.688 222.202 173.688 225.438C173.688 226.224 173.688 226.97 173.688 227.677C173.699 228.372 173.71 229.067 173.722 229.762C173.744 230.445 173.767 231.14 173.79 231.847C173.824 232.542 173.858 233.277 173.893 234.051L168.39 234.41ZM160.409 230.274C161.764 230.217 163.097 230.126 164.408 230.001C165.718 229.876 167.011 229.688 168.287 229.437C168.253 228.024 168.19 226.657 168.099 225.335C168.019 224.014 167.905 222.664 167.757 221.285H166.783C165.678 221.285 164.567 221.325 163.451 221.405C162.346 221.473 161.229 221.593 160.101 221.764C159.964 222.96 159.896 224.162 159.896 225.37C159.896 225.825 159.907 226.253 159.93 226.651C159.953 227.039 159.981 227.426 160.016 227.813C160.061 228.201 160.112 228.594 160.169 228.993C160.238 229.391 160.318 229.819 160.409 230.274ZM183.463 208.092C183.167 212.376 182.967 216.642 182.865 220.892C182.774 225.13 182.728 229.357 182.728 233.573H177.396C177.453 231.476 177.493 229.397 177.516 227.335C177.538 225.273 177.55 223.199 177.55 221.114C177.55 218.927 177.538 216.756 177.516 214.603C177.493 212.45 177.453 210.279 177.396 208.092H183.463ZM192.623 216.004C192.372 218.545 192.201 221.052 192.11 223.524C192.031 225.996 191.991 228.469 191.991 230.941C191.991 231.374 191.991 231.812 191.991 232.257C191.991 232.69 192.002 233.128 192.025 233.573H186.744C186.744 232.866 186.75 232.166 186.761 231.471C186.773 230.776 186.778 230.086 186.778 229.403C186.778 227.136 186.721 224.891 186.607 222.669C186.505 220.448 186.34 218.226 186.112 216.004H192.623ZM192.623 210.467C192.623 210.866 192.526 211.242 192.333 211.595C192.139 211.937 191.871 212.239 191.529 212.501C191.188 212.752 190.789 212.957 190.333 213.116C189.877 213.264 189.393 213.338 188.88 213.338C188.368 213.338 187.889 213.264 187.445 213.116C187 212.957 186.613 212.752 186.283 212.501C185.952 212.239 185.69 211.937 185.497 211.595C185.303 211.242 185.206 210.866 185.206 210.467C185.206 210.08 185.303 209.715 185.497 209.374C185.69 209.02 185.952 208.718 186.283 208.468C186.613 208.206 187 208.001 187.445 207.853C187.889 207.704 188.368 207.63 188.88 207.63C189.393 207.63 189.877 207.704 190.333 207.853C190.789 208.001 191.188 208.206 191.529 208.468C191.871 208.718 192.139 209.02 192.333 209.374C192.526 209.715 192.623 210.08 192.623 210.467ZM203.253 229.71C203.834 229.71 204.449 229.705 205.099 229.693C205.748 229.682 206.409 229.665 207.081 229.642C207.765 229.608 208.454 229.574 209.149 229.54C209.844 229.505 210.522 229.46 211.183 229.403L211.08 233.248C208.3 233.408 205.514 233.527 202.723 233.607C199.943 233.675 197.118 233.709 194.247 233.709C194.702 233.083 195.192 232.394 195.716 231.642C196.24 230.89 196.782 230.115 197.34 229.317C197.898 228.52 198.451 227.717 198.998 226.908C199.556 226.099 200.091 225.318 200.604 224.566C201.8 222.812 203.008 221.029 204.227 219.217C203.133 219.24 202.051 219.269 200.98 219.303C200.524 219.314 200.046 219.331 199.544 219.354C199.055 219.365 198.559 219.382 198.058 219.405C197.568 219.417 197.089 219.434 196.622 219.457C196.155 219.479 195.716 219.502 195.306 219.525V215.543C196.719 215.6 198.132 215.64 199.544 215.663C200.957 215.674 202.376 215.68 203.8 215.68C205.178 215.68 206.546 215.674 207.901 215.663C209.257 215.64 210.624 215.6 212.003 215.543L203.253 229.71ZM227.623 234.41C227.623 234.08 227.617 233.749 227.606 233.419C227.595 233.077 227.589 232.741 227.589 232.411C226.985 232.958 226.353 233.373 225.692 233.658C225.042 233.932 224.444 234.137 223.897 234.273C223.259 234.433 222.627 234.524 222 234.547C220.861 234.547 219.762 234.37 218.702 234.017C217.654 233.675 216.72 233.157 215.899 232.462C215.079 231.767 214.413 230.901 213.9 229.864C213.399 228.816 213.119 227.603 213.062 226.224C213.062 224.834 213.25 223.569 213.626 222.43C214.002 221.279 214.566 220.294 215.318 219.474C216.07 218.653 217.005 218.021 218.121 217.577C219.238 217.121 220.531 216.887 222 216.876C222.046 216.876 222.217 216.887 222.513 216.91C222.821 216.922 223.197 216.973 223.641 217.064C224.085 217.144 224.57 217.28 225.094 217.474C225.618 217.656 226.136 217.913 226.649 218.243L226.375 216.141L233.126 215.68C232.989 218.95 232.921 222.202 232.921 225.438C232.921 226.224 232.921 226.97 232.921 227.677C232.932 228.372 232.944 229.067 232.955 229.762C232.978 230.445 233.001 231.14 233.023 231.847C233.058 232.542 233.092 233.277 233.126 234.051L227.623 234.41ZM219.642 230.274C220.998 230.217 222.331 230.126 223.641 230.001C224.951 229.876 226.244 229.688 227.521 229.437C227.486 228.024 227.424 226.657 227.333 225.335C227.253 224.014 227.139 222.664 226.991 221.285H226.017C224.911 221.285 223.801 221.325 222.684 221.405C221.579 221.473 220.462 221.593 219.334 221.764C219.198 222.96 219.129 224.162 219.129 225.37C219.129 225.825 219.141 226.253 219.164 226.651C219.186 227.039 219.215 227.426 219.249 227.813C219.295 228.201 219.346 228.594 219.403 228.993C219.471 229.391 219.551 229.819 219.642 230.274ZM249.72 238.751C249.72 239.366 249.566 239.885 249.259 240.306C248.963 240.728 248.598 241.069 248.165 241.332C247.743 241.605 247.293 241.799 246.815 241.913C246.348 242.038 245.943 242.101 245.602 242.101C245.317 242.112 244.964 242.101 244.542 242.066C244.177 242.044 243.722 242.009 243.175 241.964C242.628 241.918 241.967 241.85 241.192 241.759V239.725C241.922 239.793 242.645 239.828 243.363 239.828C243.716 239.828 244.063 239.816 244.405 239.793C244.747 239.782 245.1 239.759 245.465 239.725C245.522 239.554 245.556 239.372 245.567 239.178C245.59 238.996 245.602 238.819 245.602 238.648C245.602 238.466 245.59 238.29 245.567 238.119C245.556 237.948 245.522 237.771 245.465 237.589C245.203 237.555 244.929 237.521 244.645 237.486C244.371 237.464 244.092 237.452 243.807 237.452C243.545 237.452 243.266 237.464 242.97 237.486C242.685 237.521 242.394 237.555 242.098 237.589C242.144 237.464 242.218 237.298 242.32 237.093C242.423 236.888 242.542 236.655 242.679 236.393C242.827 236.131 242.987 235.851 243.158 235.555C243.34 235.259 243.522 234.957 243.705 234.649C242.577 234.501 241.528 234.205 240.56 233.761C239.603 233.305 238.771 232.673 238.065 231.864C237.37 231.043 236.823 230.024 236.424 228.805C236.026 227.586 235.826 226.139 235.826 224.464C235.826 222.926 236.094 221.604 236.629 220.499C237.165 219.394 237.877 218.482 238.766 217.765C239.666 217.047 240.702 216.523 241.876 216.192C243.061 215.851 244.303 215.68 245.602 215.68C246.752 215.68 247.846 215.816 248.883 216.09C249.92 216.352 250.854 216.762 251.686 217.32C252.529 217.867 253.246 218.574 253.839 219.439C254.431 220.294 254.859 221.314 255.121 222.499H248.285C248.342 222.225 248.382 221.952 248.404 221.678C248.427 221.393 248.438 221.109 248.438 220.824C248.438 220.562 248.427 220.305 248.404 220.055C248.382 219.804 248.342 219.548 248.285 219.286C247.795 219.194 247.299 219.132 246.798 219.098C246.297 219.063 245.778 219.046 245.243 219.046C244.719 219.046 244.189 219.063 243.653 219.098C243.118 219.132 242.577 219.194 242.03 219.286C241.973 219.901 241.927 220.505 241.893 221.097C241.87 221.69 241.859 222.288 241.859 222.892C241.859 224.282 241.927 225.66 242.064 227.027C242.212 228.383 242.411 229.745 242.662 231.112C243.175 231.169 243.665 231.209 244.132 231.231C244.61 231.243 245.1 231.249 245.602 231.249C246.091 231.249 246.576 231.243 247.054 231.231C247.533 231.209 248.028 231.169 248.541 231.112C248.564 230.873 248.581 230.639 248.592 230.411C248.604 230.183 248.609 229.961 248.609 229.745C248.609 229.54 248.604 229.334 248.592 229.129C248.581 228.924 248.564 228.725 248.541 228.531L254.984 228.668C254.688 229.705 254.26 230.599 253.702 231.351C253.144 232.092 252.483 232.707 251.72 233.197C250.968 233.687 250.125 234.057 249.19 234.308C248.268 234.558 247.293 234.706 246.268 234.752L245.704 236.119C246.707 236.165 247.481 236.324 248.028 236.598C248.575 236.882 248.974 237.184 249.225 237.503C249.521 237.879 249.686 238.295 249.72 238.751ZM271.305 234.41C271.305 234.08 271.299 233.749 271.288 233.419C271.276 233.077 271.271 232.741 271.271 232.411C270.667 232.958 270.034 233.373 269.374 233.658C268.724 233.932 268.126 234.137 267.579 234.273C266.941 234.433 266.309 234.524 265.682 234.547C264.543 234.547 263.443 234.37 262.384 234.017C261.336 233.675 260.401 233.157 259.581 232.462C258.761 231.767 258.094 230.901 257.582 229.864C257.08 228.816 256.801 227.603 256.744 226.224C256.744 224.834 256.932 223.569 257.308 222.43C257.684 221.279 258.248 220.294 259 219.474C259.752 218.653 260.686 218.021 261.803 217.577C262.919 217.121 264.212 216.887 265.682 216.876C265.728 216.876 265.899 216.887 266.195 216.91C266.502 216.922 266.878 216.973 267.323 217.064C267.767 217.144 268.251 217.28 268.775 217.474C269.299 217.656 269.818 217.913 270.331 218.243L270.057 216.141L276.808 215.68C276.671 218.95 276.603 222.202 276.603 225.438C276.603 226.224 276.603 226.97 276.603 227.677C276.614 228.372 276.625 229.067 276.637 229.762C276.66 230.445 276.682 231.14 276.705 231.847C276.739 232.542 276.773 233.277 276.808 234.051L271.305 234.41ZM263.324 230.274C264.68 230.217 266.013 230.126 267.323 230.001C268.633 229.876 269.926 229.688 271.202 229.437C271.168 228.024 271.105 226.657 271.014 225.335C270.934 224.014 270.82 222.664 270.672 221.285H269.698C268.593 221.285 267.482 221.325 266.366 221.405C265.261 221.473 264.144 221.593 263.016 221.764C262.879 222.96 262.811 224.162 262.811 225.37C262.811 225.825 262.822 226.253 262.845 226.651C262.868 227.039 262.896 227.426 262.931 227.813C262.976 228.201 263.028 228.594 263.084 228.993C263.153 229.391 263.233 229.819 263.324 230.274ZM274.142 209.237C274.164 209.465 274.187 209.681 274.21 209.886C274.244 210.091 274.261 210.291 274.261 210.484C274.261 211.065 274.187 211.572 274.039 212.005C273.902 212.438 273.714 212.82 273.475 213.15C273.247 213.469 272.985 213.737 272.689 213.954C272.393 214.17 272.091 214.352 271.783 214.5C271.065 214.842 270.245 215.036 269.322 215.082C268.718 215.059 268.149 214.956 267.613 214.774C267.158 214.626 266.713 214.387 266.28 214.056C265.847 213.726 265.54 213.259 265.357 212.655H263.683C263.614 212.871 263.569 213.088 263.546 213.304C263.523 213.509 263.512 213.726 263.512 213.954C263.512 214.147 263.517 214.335 263.529 214.518C263.552 214.7 263.591 214.888 263.648 215.082L259.273 214.723C259.273 214.085 259.347 213.521 259.496 213.031C259.655 212.541 259.86 212.119 260.111 211.766C260.373 211.402 260.663 211.094 260.982 210.843C261.313 210.593 261.649 210.388 261.991 210.228C262.788 209.852 263.7 209.636 264.725 209.579C264.736 209.579 264.839 209.584 265.033 209.596C265.226 209.607 265.471 209.641 265.768 209.698C266.064 209.755 266.377 209.846 266.708 209.972C267.049 210.086 267.368 210.257 267.665 210.484C267.961 210.712 268.206 211.003 268.399 211.356C268.604 211.709 268.713 212.142 268.724 212.655H270.296C270.319 212.495 270.331 212.347 270.331 212.21C270.331 212.062 270.331 211.92 270.331 211.783C270.331 211.362 270.291 210.94 270.211 210.519C270.143 210.086 270.017 209.658 269.835 209.237H274.142ZM292.599 230.309C292.667 229.34 292.713 228.4 292.735 227.489C292.77 226.577 292.787 225.677 292.787 224.789C292.787 223.866 292.77 222.96 292.735 222.071C292.713 221.171 292.667 220.243 292.599 219.286C292.211 219.229 291.824 219.194 291.437 219.183C291.061 219.16 290.679 219.149 290.292 219.149C288.696 219.149 287.158 219.326 285.677 219.679C285.643 220.294 285.609 220.903 285.575 221.507C285.552 222.111 285.541 222.715 285.541 223.319C285.541 224.527 285.586 225.734 285.677 226.942C285.78 228.138 285.928 229.391 286.122 230.702C286.384 230.724 286.646 230.736 286.908 230.736C287.181 230.736 287.46 230.736 287.745 230.736C288.531 230.736 289.329 230.702 290.138 230.633C290.958 230.565 291.778 230.457 292.599 230.309ZM298.939 224.925C298.939 226.281 298.671 227.557 298.136 228.753C297.612 229.938 296.894 230.975 295.982 231.864C295.071 232.752 294 233.453 292.77 233.966C291.55 234.49 290.246 234.752 288.856 234.752C287.477 234.752 286.207 234.49 285.045 233.966C283.894 233.453 282.897 232.752 282.054 231.864C281.222 230.975 280.573 229.938 280.106 228.753C279.639 227.557 279.405 226.281 279.405 224.925C279.405 223.25 279.639 221.798 280.106 220.567C280.573 219.337 281.222 218.317 282.054 217.508C282.897 216.699 283.894 216.101 285.045 215.714C286.207 215.315 287.477 215.116 288.856 215.116C290.246 215.116 291.55 215.338 292.77 215.782C294 216.227 295.071 216.87 295.982 217.713C296.894 218.556 297.612 219.588 298.136 220.807C298.671 222.014 298.939 223.387 298.939 224.925ZM331.734 209.134C331.472 213.213 331.284 217.349 331.17 221.542C331.056 225.723 331 229.881 331 234.017H325.309L325.411 232.103C324.864 232.627 324.26 233.032 323.6 233.316C322.939 233.601 322.312 233.806 321.72 233.932C321.025 234.08 320.33 234.165 319.635 234.188C318.336 234.188 317.162 233.954 316.114 233.487C315.077 233.02 314.194 232.365 313.465 231.522C312.748 230.679 312.195 229.665 311.808 228.48C311.42 227.295 311.227 225.991 311.227 224.566C311.227 223.621 311.34 222.743 311.568 221.935C311.796 221.126 312.11 220.391 312.508 219.73C312.907 219.069 313.374 218.488 313.91 217.987C314.445 217.486 315.015 217.064 315.619 216.722C316.222 216.38 316.849 216.124 317.499 215.953C318.148 215.771 318.792 215.68 319.43 215.68C320.216 215.702 320.985 215.805 321.737 215.987C322.056 216.067 322.386 216.17 322.728 216.295C323.07 216.409 323.406 216.551 323.736 216.722C324.078 216.893 324.403 217.092 324.71 217.32C325.029 217.548 325.32 217.816 325.582 218.124C325.548 216.54 325.508 214.973 325.462 213.424C325.417 211.863 325.366 210.308 325.309 208.758L331.734 209.134ZM323.343 229.71C323.662 229.71 323.998 229.71 324.352 229.71C324.716 229.71 325.092 229.699 325.479 229.676C325.536 228.503 325.571 227.324 325.582 226.139C325.605 224.942 325.616 223.74 325.616 222.533V220.448C324.762 220.357 323.97 220.283 323.241 220.226C322.523 220.157 321.754 220.123 320.934 220.123C320.501 220.123 320.051 220.134 319.583 220.157C319.128 220.169 318.621 220.191 318.062 220.226C317.914 221.251 317.806 222.271 317.738 223.285C317.669 224.299 317.635 225.324 317.635 226.361C317.635 226.874 317.635 227.381 317.635 227.882C317.647 228.383 317.681 228.89 317.738 229.403C318.307 229.46 318.832 229.505 319.31 229.54C319.8 229.574 320.267 229.608 320.711 229.642C321.167 229.665 321.606 229.682 322.027 229.693C322.46 229.705 322.899 229.71 323.343 229.71ZM353.524 225.831L340.16 226.908C340.217 227.614 340.296 228.315 340.399 229.01C340.501 229.705 340.632 230.405 340.792 231.112C341.795 231.18 342.763 231.214 343.697 231.214C344.21 231.214 344.706 231.209 345.184 231.197C345.663 231.174 346.158 231.146 346.671 231.112C346.694 230.884 346.711 230.656 346.722 230.428C346.734 230.2 346.739 229.972 346.739 229.745C346.739 229.54 346.734 229.34 346.722 229.146C346.722 228.941 346.705 228.736 346.671 228.531L353.114 228.668C352.795 229.75 352.333 230.679 351.729 231.454C351.137 232.228 350.431 232.866 349.61 233.368C348.801 233.858 347.896 234.216 346.893 234.444C345.89 234.672 344.837 234.786 343.731 234.786C342.376 234.786 341.1 234.604 339.903 234.239C338.718 233.875 337.682 233.288 336.793 232.479C335.916 231.659 335.221 230.593 334.708 229.283C334.207 227.973 333.956 226.367 333.956 224.464C333.956 222.926 334.224 221.604 334.759 220.499C335.295 219.394 336.007 218.482 336.896 217.765C337.796 217.047 338.832 216.523 340.006 216.192C341.191 215.851 342.433 215.68 343.731 215.68C345.087 215.68 346.358 215.862 347.542 216.227C348.739 216.591 349.776 217.161 350.653 217.936C351.542 218.71 352.242 219.701 352.755 220.909C353.268 222.117 353.524 223.558 353.524 225.233V225.831ZM339.989 223.319H346.842C346.842 221.906 346.699 220.562 346.415 219.286C345.435 219.081 344.409 218.978 343.338 218.978C342.29 218.978 341.231 219.081 340.16 219.286C340.091 219.924 340.046 220.573 340.023 221.234C340 221.883 339.989 222.578 339.989 223.319ZM161.998 267.508C161.998 269.251 161.668 270.761 161.007 272.037C160.357 273.313 159.44 274.384 158.255 275.25C157.07 276.104 155.641 276.771 153.966 277.25C152.302 277.728 150.457 278.036 148.429 278.172C148.52 279.095 148.605 280.041 148.685 281.009C148.776 281.966 148.884 282.98 149.01 284.051L140.926 284.615C141.154 281.687 141.331 278.776 141.456 275.882C141.593 272.977 141.661 270.055 141.661 267.115C141.661 266.352 141.655 265.657 141.644 265.03C141.644 264.404 141.633 263.794 141.61 263.202C141.598 262.609 141.576 262 141.542 261.373C141.507 260.746 141.467 260.046 141.422 259.271C142.8 258.849 144.202 258.548 145.626 258.365C147.062 258.183 148.543 258.092 150.069 258.092C150.833 258.092 151.659 258.132 152.547 258.211C153.436 258.291 154.319 258.451 155.196 258.69C156.085 258.929 156.934 259.265 157.743 259.698C158.563 260.12 159.286 260.678 159.913 261.373C160.551 262.068 161.058 262.923 161.434 263.937C161.81 264.939 161.998 266.13 161.998 267.508ZM147.796 261.698C147.796 262.78 147.796 263.84 147.796 264.876C147.808 265.902 147.825 266.927 147.848 267.953C147.87 268.967 147.899 269.992 147.933 271.029C147.979 272.066 148.036 273.131 148.104 274.225H148.736C149.739 274.225 150.747 274.196 151.761 274.139C152.775 274.071 153.738 273.957 154.649 273.797C154.809 273.182 154.923 272.407 154.991 271.473C155.071 270.539 155.111 269.542 155.111 268.482C155.111 267.822 155.094 267.155 155.06 266.483C155.025 265.811 154.98 265.167 154.923 264.552C154.866 263.937 154.786 263.367 154.684 262.843C154.592 262.307 154.49 261.852 154.376 261.476C154.216 261.453 154.028 261.436 153.812 261.424C153.607 261.413 153.373 261.407 153.111 261.407C152.587 261.407 152.018 261.424 151.402 261.458C150.799 261.493 150.223 261.527 149.676 261.561C149.05 261.607 148.423 261.652 147.796 261.698ZM182.831 275.831L169.466 276.908C169.523 277.614 169.603 278.315 169.706 279.01C169.808 279.705 169.939 280.405 170.099 281.112C171.101 281.18 172.07 281.214 173.004 281.214C173.517 281.214 174.012 281.209 174.491 281.197C174.969 281.174 175.465 281.146 175.978 281.112C176 280.884 176.017 280.656 176.029 280.428C176.04 280.2 176.046 279.972 176.046 279.745C176.046 279.54 176.04 279.34 176.029 279.146C176.029 278.941 176.012 278.736 175.978 278.531L182.42 278.668C182.101 279.75 181.64 280.679 181.036 281.454C180.444 282.228 179.737 282.866 178.917 283.368C178.108 283.858 177.202 284.216 176.2 284.444C175.197 284.672 174.143 284.786 173.038 284.786C171.682 284.786 170.406 284.604 169.21 284.239C168.025 283.875 166.988 283.288 166.1 282.479C165.222 281.659 164.527 280.593 164.015 279.283C163.513 277.973 163.263 276.367 163.263 274.464C163.263 272.926 163.53 271.604 164.066 270.499C164.601 269.394 165.313 268.482 166.202 267.765C167.102 267.047 168.139 266.523 169.312 266.192C170.497 265.851 171.739 265.68 173.038 265.68C174.394 265.68 175.664 265.862 176.849 266.227C178.045 266.591 179.082 267.161 179.959 267.936C180.848 268.71 181.549 269.701 182.062 270.909C182.574 272.117 182.831 273.558 182.831 275.233V275.831ZM169.295 273.319H176.148C176.148 271.906 176.006 270.562 175.721 269.286C174.741 269.081 173.716 268.978 172.645 268.978C171.597 268.978 170.537 269.081 169.466 269.286C169.398 269.924 169.352 270.573 169.33 271.234C169.307 271.883 169.295 272.578 169.295 273.319ZM198.041 275.66C198.063 275.375 198.086 275.096 198.109 274.823C198.132 274.538 198.143 274.253 198.143 273.968C198.143 272.988 198.041 272.02 197.835 271.063C196.776 271.109 195.722 271.183 194.674 271.285C193.637 271.388 192.589 271.524 191.529 271.695V275.096C191.529 276.589 191.529 278.07 191.529 279.54C191.529 280.998 191.541 282.468 191.563 283.949L185.479 284.376C185.514 283.954 185.531 283.539 185.531 283.128C185.542 282.718 185.548 282.302 185.548 281.881C185.548 279.238 185.497 276.623 185.394 274.037C185.303 271.45 185.166 268.853 184.984 266.244L191.563 265.68C191.563 265.999 191.558 266.318 191.546 266.637C191.535 266.944 191.529 267.258 191.529 267.577C192.19 267.098 192.851 266.734 193.512 266.483C194.184 266.232 194.793 266.044 195.34 265.919C195.967 265.782 196.576 265.702 197.169 265.68C198.513 265.748 199.715 266.056 200.775 266.603C201.219 266.83 201.658 267.127 202.091 267.491C202.524 267.844 202.911 268.283 203.253 268.807C203.595 269.32 203.868 269.929 204.073 270.636C204.278 271.331 204.381 272.14 204.381 273.062C204.381 273.382 204.364 273.718 204.33 274.071C204.295 274.413 204.25 274.777 204.193 275.165L198.041 275.66ZM213.866 266.62C214.105 266.62 214.515 266.614 215.096 266.603C215.689 266.591 216.389 266.58 217.198 266.568C218.007 266.557 218.89 266.546 219.847 266.534C220.816 266.523 221.79 266.511 222.77 266.5C223.749 266.477 224.712 266.454 225.658 266.432C226.603 266.409 227.458 266.38 228.221 266.346C228.096 267.611 227.993 268.853 227.914 270.072C227.834 271.291 227.765 272.504 227.708 273.712C227.663 274.908 227.629 276.104 227.606 277.301C227.595 278.497 227.589 279.71 227.589 280.941C227.589 281.374 227.589 281.812 227.589 282.257C227.589 282.69 227.6 283.128 227.623 283.573H222.342C222.342 282.866 222.348 282.166 222.359 281.471C222.371 280.776 222.376 280.086 222.376 279.403C222.376 277.842 222.348 276.349 222.291 274.925C222.245 273.501 222.16 272.066 222.035 270.619C221.362 270.607 220.622 270.602 219.813 270.602C219.015 270.59 218.229 270.579 217.455 270.567C216.691 270.556 215.991 270.55 215.353 270.55C214.726 270.539 214.253 270.528 213.934 270.516C214.025 272.715 214.173 274.897 214.378 277.062C214.595 279.215 214.88 281.385 215.233 283.573L208.875 284.188C208.762 282.821 208.665 281.493 208.585 280.206C208.505 278.919 208.437 277.694 208.38 276.532C208.323 275.37 208.277 274.287 208.243 273.285C208.209 272.271 208.186 271.359 208.175 270.55L205.406 270.653V266.38C205.862 266.415 206.312 266.449 206.756 266.483C207.212 266.506 207.674 266.528 208.141 266.551C208.141 266.472 208.152 266.289 208.175 266.004C208.198 265.72 208.249 265.366 208.329 264.945C208.408 264.523 208.534 264.056 208.705 263.543C208.875 263.031 209.109 262.512 209.405 261.988C209.701 261.464 210.066 260.957 210.499 260.467C210.943 259.966 211.479 259.527 212.105 259.151C212.732 258.764 213.461 258.456 214.293 258.229C215.136 257.989 216.104 257.87 217.198 257.87C217.597 257.87 218.013 257.892 218.446 257.938C218.89 257.972 219.352 258.035 219.83 258.126V262.774C219.283 262.683 218.736 262.621 218.189 262.586C217.654 262.552 217.101 262.535 216.532 262.535C216.11 262.535 215.677 262.547 215.233 262.569C214.789 262.592 214.344 262.638 213.9 262.706C213.877 263.287 213.866 263.868 213.866 264.449C213.866 265.019 213.866 265.594 213.866 266.175V266.62ZM228.221 260.467C228.221 260.866 228.124 261.242 227.931 261.595C227.737 261.937 227.469 262.239 227.127 262.501C226.786 262.752 226.387 262.957 225.931 263.116C225.475 263.264 224.991 263.338 224.479 263.338C223.966 263.338 223.487 263.264 223.043 263.116C222.599 262.957 222.211 262.752 221.881 262.501C221.55 262.239 221.288 261.937 221.095 261.595C220.901 261.242 220.804 260.866 220.804 260.467C220.804 260.08 220.901 259.715 221.095 259.374C221.288 259.02 221.55 258.718 221.881 258.468C222.211 258.206 222.599 258.001 223.043 257.853C223.487 257.704 223.966 257.63 224.479 257.63C224.991 257.63 225.475 257.704 225.931 257.853C226.387 258.001 226.786 258.206 227.127 258.468C227.469 258.718 227.737 259.02 227.931 259.374C228.124 259.715 228.221 260.08 228.221 260.467ZM237.501 258.092C237.205 262.376 237.005 266.642 236.903 270.892C236.812 275.13 236.766 279.357 236.766 283.573H231.434C231.491 281.476 231.531 279.397 231.554 277.335C231.576 275.273 231.588 273.199 231.588 271.114C231.588 268.927 231.576 266.756 231.554 264.603C231.531 262.45 231.491 260.279 231.434 258.092H237.501Z" fill="black"/>
</svg>
