<svg width="429" height="348" viewBox="0 0 429 348" fill="none" xmlns="http://www.w3.org/2000/svg">
<path d="M304.539 44.0731L272.035 7.67483C267.793 3.21266 262.234 0.652337 256.416 0.480882C250.598 0.309428 244.926 2.53881 240.48 6.74495L133.715 126.301C129.881 130.632 127.493 136.307 126.954 142.375L121.853 197.77C121.693 199.715 121.918 201.677 122.513 203.513C123.108 205.35 124.057 207.018 125.293 208.397C126.401 209.628 127.716 210.602 129.161 211.263C130.607 211.924 132.154 212.259 133.715 212.249H134.783L184.251 207.201C189.67 206.597 194.738 203.923 198.605 199.629L305.369 80.0729C309.513 75.1707 311.753 68.6288 311.597 61.8809C311.441 55.1329 308.903 48.7293 304.539 44.0731ZM182.115 180.633L146.527 184.353L149.73 144.501L216.755 70.3756L248.784 106.243L182.115 180.633ZM264.206 88.4419L232.414 52.8406L255.546 26.2725L287.931 62.538L264.206 88.4419Z" fill="black"/>
<path d="M72.0732 238.662C72.0732 240.405 71.7428 241.915 71.082 243.191C70.4326 244.467 69.5155 245.538 68.3306 246.404C67.1457 247.258 65.7158 247.925 64.041 248.403C62.3776 248.882 60.5319 249.189 58.5039 249.326C58.5951 250.249 58.6805 251.195 58.7603 252.163C58.8514 253.12 58.9596 254.134 59.085 255.205L51.0015 255.769C51.2293 252.841 51.4059 249.93 51.5312 247.036C51.668 244.131 51.7363 241.208 51.7363 238.269C51.7363 237.506 51.7306 236.811 51.7192 236.184C51.7192 235.557 51.7078 234.948 51.6851 234.355C51.6737 233.763 51.6509 233.153 51.6167 232.527C51.5825 231.9 51.5426 231.2 51.4971 230.425C52.8757 230.003 54.277 229.701 55.7012 229.519C57.1367 229.337 58.6178 229.246 60.1445 229.246C60.9079 229.246 61.7339 229.285 62.6226 229.365C63.5112 229.445 64.3942 229.604 65.2715 229.844C66.1602 230.083 67.009 230.419 67.8179 230.852C68.6382 231.274 69.3617 231.832 69.9883 232.527C70.6263 233.222 71.1333 234.076 71.5093 235.09C71.8853 236.093 72.0732 237.284 72.0732 238.662ZM57.8716 232.852C57.8716 233.934 57.8716 234.993 57.8716 236.03C57.883 237.056 57.9001 238.081 57.9229 239.106C57.9456 240.12 57.9741 241.146 58.0083 242.183C58.0539 243.219 58.1108 244.285 58.1792 245.378H58.8115C59.8141 245.378 60.8224 245.35 61.8364 245.293C62.8504 245.225 63.8132 245.111 64.7246 244.951C64.8841 244.336 64.998 243.561 65.0664 242.627C65.1462 241.693 65.186 240.696 65.186 239.636C65.186 238.975 65.1689 238.309 65.1348 237.637C65.1006 236.965 65.055 236.321 64.998 235.706C64.9411 235.09 64.8613 234.521 64.7588 233.997C64.6676 233.461 64.5651 233.005 64.4512 232.629C64.2917 232.607 64.1037 232.59 63.8872 232.578C63.6821 232.567 63.4486 232.561 63.1865 232.561C62.6624 232.561 62.0928 232.578 61.4775 232.612C60.8737 232.646 60.2983 232.681 59.7515 232.715C59.1248 232.76 58.4982 232.806 57.8716 232.852ZM92.9058 246.985L79.5415 248.062C79.5985 248.768 79.6782 249.469 79.7808 250.164C79.8833 250.859 80.0143 251.559 80.1738 252.266C81.1764 252.334 82.1449 252.368 83.0791 252.368C83.5918 252.368 84.0874 252.362 84.5659 252.351C85.0444 252.328 85.54 252.3 86.0527 252.266C86.0755 252.038 86.0926 251.81 86.104 251.582C86.1154 251.354 86.1211 251.126 86.1211 250.898C86.1211 250.693 86.1154 250.494 86.104 250.3C86.104 250.095 86.0869 249.89 86.0527 249.685L92.4956 249.822C92.1766 250.904 91.7152 251.833 91.1113 252.607C90.5189 253.382 89.8125 254.02 88.9922 254.521C88.1833 255.011 87.2775 255.37 86.2749 255.598C85.2723 255.826 84.2184 255.94 83.1133 255.94C81.7575 255.94 80.4814 255.758 79.2852 255.393C78.1003 255.028 77.0635 254.442 76.1748 253.633C75.2975 252.812 74.6025 251.747 74.0898 250.437C73.5885 249.127 73.3379 247.52 73.3379 245.618C73.3379 244.08 73.6056 242.758 74.1411 241.653C74.6766 240.548 75.3887 239.636 76.2773 238.918C77.1774 238.201 78.2142 237.677 79.3877 237.346C80.5726 237.004 81.8145 236.833 83.1133 236.833C84.4691 236.833 85.7394 237.016 86.9243 237.38C88.1206 237.745 89.1574 238.315 90.0347 239.089C90.9233 239.864 91.624 240.855 92.1367 242.063C92.6494 243.271 92.9058 244.712 92.9058 246.387V246.985ZM79.3706 244.473H86.2236C86.2236 243.06 86.0812 241.715 85.7964 240.439C84.8166 240.234 83.7912 240.132 82.7202 240.132C81.672 240.132 80.6125 240.234 79.5415 240.439C79.4731 241.077 79.4276 241.727 79.4048 242.388C79.382 243.037 79.3706 243.732 79.3706 244.473ZM108.116 246.814C108.139 246.529 108.161 246.25 108.184 245.977C108.207 245.692 108.218 245.407 108.218 245.122C108.218 244.142 108.116 243.174 107.911 242.217C106.851 242.262 105.797 242.336 104.749 242.439C103.712 242.542 102.664 242.678 101.604 242.849V246.25C101.604 247.743 101.604 249.224 101.604 250.693C101.604 252.152 101.616 253.621 101.639 255.103L95.5547 255.53C95.5889 255.108 95.606 254.692 95.606 254.282C95.6174 253.872 95.623 253.456 95.623 253.035C95.623 250.391 95.5718 247.777 95.4692 245.19C95.3781 242.604 95.2414 240.007 95.0591 237.397L101.639 236.833C101.639 237.153 101.633 237.472 101.622 237.791C101.61 238.098 101.604 238.411 101.604 238.73C102.265 238.252 102.926 237.887 103.587 237.637C104.259 237.386 104.869 237.198 105.416 237.073C106.042 236.936 106.652 236.856 107.244 236.833C108.589 236.902 109.791 237.209 110.85 237.756C111.294 237.984 111.733 238.28 112.166 238.645C112.599 238.998 112.986 239.437 113.328 239.961C113.67 240.474 113.943 241.083 114.148 241.79C114.354 242.485 114.456 243.293 114.456 244.216C114.456 244.535 114.439 244.871 114.405 245.225C114.371 245.566 114.325 245.931 114.268 246.318L108.116 246.814ZM134.622 251.018C134.622 252.021 134.366 252.858 133.853 253.53C133.34 254.191 132.668 254.721 131.836 255.12C131.005 255.53 130.059 255.815 129 255.974C127.94 256.145 126.863 256.23 125.77 256.23C125.166 256.23 124.516 256.191 123.821 256.111C123.138 256.042 122.448 255.911 121.753 255.718C121.058 255.535 120.381 255.291 119.72 254.983C119.07 254.664 118.478 254.265 117.942 253.787C117.407 253.308 116.945 252.744 116.558 252.095C116.182 251.445 115.926 250.688 115.789 249.822L122.728 249.753L123.001 252.727H128.316L128.709 249.292C128.003 249.132 127.194 248.996 126.282 248.882C125.371 248.768 124.437 248.631 123.479 248.472C122.522 248.301 121.583 248.084 120.66 247.822C119.737 247.56 118.917 247.201 118.199 246.746C117.481 246.29 116.9 245.715 116.456 245.02C116.011 244.325 115.789 243.464 115.789 242.439C115.789 241.334 116.057 240.405 116.592 239.653C117.128 238.89 117.828 238.28 118.694 237.825C119.572 237.358 120.563 237.016 121.668 236.799C122.773 236.583 123.895 236.458 125.035 236.423C125.639 236.423 126.288 236.458 126.983 236.526C127.689 236.594 128.39 236.72 129.085 236.902C129.78 237.073 130.446 237.312 131.084 237.62C131.734 237.927 132.309 238.32 132.811 238.799C133.323 239.266 133.739 239.836 134.058 240.508C134.389 241.169 134.576 241.949 134.622 242.849L127.906 243.14V239.773H122.129V244.319C122.87 244.478 123.696 244.604 124.607 244.695C125.519 244.775 126.436 244.883 127.359 245.02C128.282 245.156 129.176 245.344 130.042 245.583C130.919 245.823 131.694 246.165 132.366 246.609C133.05 247.053 133.597 247.629 134.007 248.335C134.417 249.041 134.622 249.936 134.622 251.018ZM149.593 251.462C149.661 250.494 149.707 249.554 149.729 248.643C149.764 247.731 149.781 246.831 149.781 245.942C149.781 245.02 149.764 244.114 149.729 243.225C149.707 242.325 149.661 241.396 149.593 240.439C149.205 240.382 148.818 240.348 148.431 240.337C148.055 240.314 147.673 240.303 147.286 240.303C145.691 240.303 144.153 240.479 142.671 240.833C142.637 241.448 142.603 242.057 142.569 242.661C142.546 243.265 142.535 243.869 142.535 244.473C142.535 245.68 142.58 246.888 142.671 248.096C142.774 249.292 142.922 250.545 143.116 251.855C143.378 251.878 143.64 251.89 143.902 251.89C144.175 251.89 144.454 251.89 144.739 251.89C145.525 251.89 146.323 251.855 147.132 251.787C147.952 251.719 148.772 251.611 149.593 251.462ZM155.933 246.079C155.933 247.435 155.665 248.711 155.13 249.907C154.606 251.092 153.888 252.129 152.977 253.018C152.065 253.906 150.994 254.607 149.764 255.12C148.545 255.644 147.24 255.906 145.85 255.906C144.472 255.906 143.201 255.644 142.039 255.12C140.888 254.607 139.891 253.906 139.048 253.018C138.217 252.129 137.567 251.092 137.1 249.907C136.633 248.711 136.399 247.435 136.399 246.079C136.399 244.404 136.633 242.952 137.1 241.721C137.567 240.491 138.217 239.471 139.048 238.662C139.891 237.853 140.888 237.255 142.039 236.868C143.201 236.469 144.472 236.27 145.85 236.27C147.24 236.27 148.545 236.492 149.764 236.936C150.994 237.38 152.065 238.024 152.977 238.867C153.888 239.71 154.606 240.741 155.13 241.96C155.665 243.168 155.933 244.541 155.933 246.079ZM177.022 246.079C177.022 247.594 176.942 249.138 176.783 250.71C176.623 252.283 176.35 253.855 175.962 255.427H170.015C170.163 253.73 170.277 252.055 170.357 250.403C170.437 248.739 170.477 247.065 170.477 245.378C170.477 244.809 170.477 244.245 170.477 243.687C170.477 243.117 170.465 242.547 170.442 241.978C169.93 241.921 169.423 241.886 168.921 241.875C168.42 241.852 167.913 241.841 167.4 241.841C166.432 241.841 165.435 241.875 164.41 241.943C164.375 242.878 164.347 243.743 164.324 244.541C164.313 245.339 164.307 246.13 164.307 246.917C164.307 247.498 164.313 248.09 164.324 248.694C164.336 249.286 164.353 249.924 164.375 250.608C164.41 251.292 164.45 252.032 164.495 252.83C164.541 253.616 164.598 254.482 164.666 255.427H158.924C158.924 254.06 158.918 252.852 158.907 251.804C158.895 250.756 158.878 249.793 158.855 248.916C158.833 248.027 158.799 247.184 158.753 246.387C158.719 245.578 158.673 244.735 158.616 243.857C158.559 242.969 158.497 242.006 158.428 240.969C158.36 239.921 158.28 238.719 158.189 237.363L164.666 236.97L164.529 239.397C165.179 238.941 165.845 238.588 166.529 238.337C167.212 238.087 167.839 237.899 168.409 237.773C169.069 237.637 169.713 237.557 170.34 237.534C171.172 237.534 171.912 237.648 172.562 237.876C173.222 238.104 173.798 238.423 174.288 238.833C174.789 239.232 175.21 239.705 175.552 240.251C175.894 240.798 176.173 241.391 176.39 242.029C176.618 242.655 176.777 243.316 176.868 244.011C176.971 244.706 177.022 245.396 177.022 246.079ZM193.89 255.564C193.89 255.234 193.884 254.903 193.873 254.573C193.861 254.231 193.855 253.895 193.855 253.564C193.252 254.111 192.619 254.527 191.958 254.812C191.309 255.085 190.711 255.291 190.164 255.427C189.526 255.587 188.894 255.678 188.267 255.701C187.128 255.701 186.028 255.524 184.969 255.171C183.921 254.829 182.986 254.311 182.166 253.616C181.346 252.921 180.679 252.055 180.167 251.018C179.665 249.97 179.386 248.757 179.329 247.378C179.329 245.988 179.517 244.723 179.893 243.584C180.269 242.433 180.833 241.448 181.585 240.627C182.337 239.807 183.271 239.175 184.388 238.73C185.504 238.275 186.797 238.041 188.267 238.03C188.313 238.03 188.484 238.041 188.78 238.064C189.087 238.075 189.463 238.127 189.908 238.218C190.352 238.298 190.836 238.434 191.36 238.628C191.884 238.81 192.403 239.067 192.916 239.397L192.642 237.295L199.393 236.833C199.256 240.103 199.188 243.356 199.188 246.592C199.188 247.378 199.188 248.124 199.188 248.831C199.199 249.526 199.21 250.221 199.222 250.916C199.244 251.599 199.267 252.294 199.29 253C199.324 253.695 199.358 254.43 199.393 255.205L193.89 255.564ZM185.909 251.428C187.264 251.371 188.597 251.28 189.908 251.155C191.218 251.029 192.511 250.841 193.787 250.591C193.753 249.178 193.69 247.811 193.599 246.489C193.519 245.168 193.405 243.818 193.257 242.439H192.283C191.178 242.439 190.067 242.479 188.951 242.559C187.846 242.627 186.729 242.747 185.601 242.917C185.464 244.114 185.396 245.316 185.396 246.523C185.396 246.979 185.407 247.406 185.43 247.805C185.453 248.193 185.481 248.58 185.516 248.967C185.561 249.355 185.612 249.748 185.669 250.146C185.738 250.545 185.818 250.972 185.909 251.428ZM208.963 229.246C208.667 233.529 208.467 237.796 208.365 242.046C208.274 246.284 208.228 250.511 208.228 254.727H202.896C202.953 252.63 202.993 250.551 203.016 248.489C203.038 246.427 203.05 244.353 203.05 242.268C203.05 240.081 203.038 237.91 203.016 235.757C202.993 233.604 202.953 231.433 202.896 229.246H208.963ZM218.123 237.158C217.872 239.699 217.701 242.205 217.61 244.678C217.531 247.15 217.491 249.622 217.491 252.095C217.491 252.528 217.491 252.966 217.491 253.411C217.491 253.844 217.502 254.282 217.525 254.727H212.244C212.244 254.02 212.25 253.319 212.261 252.625C212.273 251.93 212.278 251.24 212.278 250.557C212.278 248.289 212.221 246.045 212.107 243.823C212.005 241.602 211.84 239.38 211.612 237.158H218.123ZM218.123 231.621C218.123 232.02 218.026 232.396 217.833 232.749C217.639 233.091 217.371 233.393 217.029 233.655C216.688 233.905 216.289 234.111 215.833 234.27C215.377 234.418 214.893 234.492 214.38 234.492C213.868 234.492 213.389 234.418 212.945 234.27C212.5 234.111 212.113 233.905 211.783 233.655C211.452 233.393 211.19 233.091 210.997 232.749C210.803 232.396 210.706 232.02 210.706 231.621C210.706 231.234 210.803 230.869 210.997 230.527C211.19 230.174 211.452 229.872 211.783 229.622C212.113 229.36 212.5 229.154 212.945 229.006C213.389 228.858 213.868 228.784 214.38 228.784C214.893 228.784 215.377 228.858 215.833 229.006C216.289 229.154 216.688 229.36 217.029 229.622C217.371 229.872 217.639 230.174 217.833 230.527C218.026 230.869 218.123 231.234 218.123 231.621ZM228.753 250.864C229.334 250.864 229.949 250.859 230.599 250.847C231.248 250.836 231.909 250.819 232.581 250.796C233.265 250.762 233.954 250.728 234.649 250.693C235.344 250.659 236.022 250.614 236.683 250.557L236.58 254.402C233.8 254.561 231.014 254.681 228.223 254.761C225.443 254.829 222.618 254.863 219.747 254.863C220.202 254.237 220.692 253.547 221.216 252.795C221.74 252.043 222.282 251.269 222.84 250.471C223.398 249.674 223.951 248.87 224.498 248.062C225.056 247.253 225.591 246.472 226.104 245.72C227.3 243.966 228.508 242.183 229.727 240.371C228.633 240.394 227.551 240.422 226.48 240.457C226.024 240.468 225.546 240.485 225.044 240.508C224.555 240.519 224.059 240.536 223.558 240.559C223.068 240.57 222.589 240.588 222.122 240.61C221.655 240.633 221.216 240.656 220.806 240.679V236.697C222.219 236.754 223.632 236.794 225.044 236.816C226.457 236.828 227.876 236.833 229.3 236.833C230.678 236.833 232.046 236.828 233.401 236.816C234.757 236.794 236.124 236.754 237.503 236.697L228.753 250.864ZM253.123 255.564C253.123 255.234 253.117 254.903 253.106 254.573C253.095 254.231 253.089 253.895 253.089 253.564C252.485 254.111 251.853 254.527 251.192 254.812C250.542 255.085 249.944 255.291 249.397 255.427C248.759 255.587 248.127 255.678 247.5 255.701C246.361 255.701 245.262 255.524 244.202 255.171C243.154 254.829 242.22 254.311 241.399 253.616C240.579 252.921 239.913 252.055 239.4 251.018C238.899 249.97 238.619 248.757 238.562 247.378C238.562 245.988 238.75 244.723 239.126 243.584C239.502 242.433 240.066 241.448 240.818 240.627C241.57 239.807 242.505 239.175 243.621 238.73C244.738 238.275 246.031 238.041 247.5 238.03C247.546 238.03 247.717 238.041 248.013 238.064C248.321 238.075 248.697 238.127 249.141 238.218C249.585 238.298 250.07 238.434 250.594 238.628C251.118 238.81 251.636 239.067 252.149 239.397L251.875 237.295L258.626 236.833C258.489 240.103 258.421 243.356 258.421 246.592C258.421 247.378 258.421 248.124 258.421 248.831C258.432 249.526 258.444 250.221 258.455 250.916C258.478 251.599 258.501 252.294 258.523 253C258.558 253.695 258.592 254.43 258.626 255.205L253.123 255.564ZM245.142 251.428C246.498 251.371 247.831 251.28 249.141 251.155C250.451 251.029 251.744 250.841 253.021 250.591C252.986 249.178 252.924 247.811 252.833 246.489C252.753 245.168 252.639 243.818 252.491 242.439H251.517C250.411 242.439 249.301 242.479 248.184 242.559C247.079 242.627 245.962 242.747 244.834 242.917C244.698 244.114 244.629 245.316 244.629 246.523C244.629 246.979 244.641 247.406 244.664 247.805C244.686 248.193 244.715 248.58 244.749 248.967C244.795 249.355 244.846 249.748 244.903 250.146C244.971 250.545 245.051 250.972 245.142 251.428ZM275.22 259.905C275.22 260.52 275.066 261.038 274.759 261.46C274.463 261.882 274.098 262.223 273.665 262.485C273.243 262.759 272.793 262.952 272.315 263.066C271.848 263.192 271.443 263.254 271.102 263.254C270.817 263.266 270.464 263.254 270.042 263.22C269.677 263.197 269.222 263.163 268.675 263.118C268.128 263.072 267.467 263.004 266.692 262.913V260.879C267.422 260.947 268.145 260.981 268.863 260.981C269.216 260.981 269.563 260.97 269.905 260.947C270.247 260.936 270.6 260.913 270.965 260.879C271.022 260.708 271.056 260.526 271.067 260.332C271.09 260.15 271.102 259.973 271.102 259.802C271.102 259.62 271.09 259.443 271.067 259.272C271.056 259.102 271.022 258.925 270.965 258.743C270.703 258.708 270.429 258.674 270.145 258.64C269.871 258.617 269.592 258.606 269.307 258.606C269.045 258.606 268.766 258.617 268.47 258.64C268.185 258.674 267.894 258.708 267.598 258.743C267.644 258.617 267.718 258.452 267.82 258.247C267.923 258.042 268.042 257.808 268.179 257.546C268.327 257.284 268.487 257.005 268.658 256.709C268.84 256.413 269.022 256.111 269.205 255.803C268.077 255.655 267.028 255.359 266.06 254.915C265.103 254.459 264.271 253.826 263.565 253.018C262.87 252.197 262.323 251.178 261.924 249.958C261.526 248.739 261.326 247.292 261.326 245.618C261.326 244.08 261.594 242.758 262.129 241.653C262.665 240.548 263.377 239.636 264.266 238.918C265.166 238.201 266.202 237.677 267.376 237.346C268.561 237.004 269.803 236.833 271.102 236.833C272.252 236.833 273.346 236.97 274.383 237.244C275.42 237.506 276.354 237.916 277.186 238.474C278.029 239.021 278.746 239.727 279.339 240.593C279.931 241.448 280.359 242.467 280.621 243.652H273.785C273.842 243.379 273.882 243.105 273.904 242.832C273.927 242.547 273.938 242.262 273.938 241.978C273.938 241.715 273.927 241.459 273.904 241.208C273.882 240.958 273.842 240.701 273.785 240.439C273.295 240.348 272.799 240.286 272.298 240.251C271.797 240.217 271.278 240.2 270.743 240.2C270.219 240.2 269.689 240.217 269.153 240.251C268.618 240.286 268.077 240.348 267.53 240.439C267.473 241.055 267.427 241.659 267.393 242.251C267.37 242.843 267.359 243.442 267.359 244.045C267.359 245.435 267.427 246.814 267.564 248.181C267.712 249.537 267.911 250.898 268.162 252.266C268.675 252.323 269.165 252.362 269.632 252.385C270.11 252.397 270.6 252.402 271.102 252.402C271.591 252.402 272.076 252.397 272.554 252.385C273.033 252.362 273.528 252.323 274.041 252.266C274.064 252.026 274.081 251.793 274.092 251.565C274.104 251.337 274.109 251.115 274.109 250.898C274.109 250.693 274.104 250.488 274.092 250.283C274.081 250.078 274.064 249.879 274.041 249.685L280.484 249.822C280.188 250.859 279.76 251.753 279.202 252.505C278.644 253.245 277.983 253.861 277.22 254.351C276.468 254.84 275.625 255.211 274.69 255.461C273.768 255.712 272.793 255.86 271.768 255.906L271.204 257.273C272.207 257.319 272.981 257.478 273.528 257.751C274.075 258.036 274.474 258.338 274.725 258.657C275.021 259.033 275.186 259.449 275.22 259.905ZM296.805 255.564C296.805 255.234 296.799 254.903 296.788 254.573C296.776 254.231 296.771 253.895 296.771 253.564C296.167 254.111 295.534 254.527 294.874 254.812C294.224 255.085 293.626 255.291 293.079 255.427C292.441 255.587 291.809 255.678 291.182 255.701C290.043 255.701 288.943 255.524 287.884 255.171C286.836 254.829 285.901 254.311 285.081 253.616C284.261 252.921 283.594 252.055 283.082 251.018C282.58 249.97 282.301 248.757 282.244 247.378C282.244 245.988 282.432 244.723 282.808 243.584C283.184 242.433 283.748 241.448 284.5 240.627C285.252 239.807 286.186 239.175 287.303 238.73C288.419 238.275 289.712 238.041 291.182 238.03C291.228 238.03 291.399 238.041 291.695 238.064C292.002 238.075 292.378 238.127 292.823 238.218C293.267 238.298 293.751 238.434 294.275 238.628C294.799 238.81 295.318 239.067 295.831 239.397L295.557 237.295L302.308 236.833C302.171 240.103 302.103 243.356 302.103 246.592C302.103 247.378 302.103 248.124 302.103 248.831C302.114 249.526 302.125 250.221 302.137 250.916C302.16 251.599 302.182 252.294 302.205 253C302.239 253.695 302.273 254.43 302.308 255.205L296.805 255.564ZM288.824 251.428C290.18 251.371 291.513 251.28 292.823 251.155C294.133 251.029 295.426 250.841 296.702 250.591C296.668 249.178 296.605 247.811 296.514 246.489C296.434 245.168 296.32 243.818 296.172 242.439H295.198C294.093 242.439 292.982 242.479 291.866 242.559C290.761 242.627 289.644 242.747 288.516 242.917C288.379 244.114 288.311 245.316 288.311 246.523C288.311 246.979 288.322 247.406 288.345 247.805C288.368 248.193 288.396 248.58 288.431 248.967C288.476 249.355 288.528 249.748 288.584 250.146C288.653 250.545 288.733 250.972 288.824 251.428ZM299.642 230.391C299.664 230.618 299.687 230.835 299.71 231.04C299.744 231.245 299.761 231.444 299.761 231.638C299.761 232.219 299.687 232.726 299.539 233.159C299.402 233.592 299.214 233.974 298.975 234.304C298.747 234.623 298.485 234.891 298.189 235.107C297.893 235.324 297.591 235.506 297.283 235.654C296.565 235.996 295.745 236.19 294.822 236.235C294.218 236.213 293.649 236.11 293.113 235.928C292.658 235.78 292.213 235.54 291.78 235.21C291.347 234.88 291.04 234.412 290.857 233.809H289.183C289.114 234.025 289.069 234.242 289.046 234.458C289.023 234.663 289.012 234.88 289.012 235.107C289.012 235.301 289.017 235.489 289.029 235.671C289.052 235.854 289.091 236.042 289.148 236.235L284.773 235.876C284.773 235.238 284.847 234.674 284.996 234.185C285.155 233.695 285.36 233.273 285.611 232.92C285.873 232.555 286.163 232.248 286.482 231.997C286.813 231.746 287.149 231.541 287.491 231.382C288.288 231.006 289.2 230.789 290.225 230.732C290.236 230.732 290.339 230.738 290.533 230.75C290.726 230.761 290.971 230.795 291.268 230.852C291.564 230.909 291.877 231 292.208 231.125C292.549 231.239 292.868 231.41 293.165 231.638C293.461 231.866 293.706 232.157 293.899 232.51C294.104 232.863 294.213 233.296 294.224 233.809H295.796C295.819 233.649 295.831 233.501 295.831 233.364C295.831 233.216 295.831 233.074 295.831 232.937C295.831 232.515 295.791 232.094 295.711 231.672C295.643 231.239 295.517 230.812 295.335 230.391H299.642ZM318.099 251.462C318.167 250.494 318.213 249.554 318.235 248.643C318.27 247.731 318.287 246.831 318.287 245.942C318.287 245.02 318.27 244.114 318.235 243.225C318.213 242.325 318.167 241.396 318.099 240.439C317.711 240.382 317.324 240.348 316.937 240.337C316.561 240.314 316.179 240.303 315.792 240.303C314.196 240.303 312.658 240.479 311.177 240.833C311.143 241.448 311.109 242.057 311.075 242.661C311.052 243.265 311.041 243.869 311.041 244.473C311.041 245.68 311.086 246.888 311.177 248.096C311.28 249.292 311.428 250.545 311.622 251.855C311.884 251.878 312.146 251.89 312.408 251.89C312.681 251.89 312.96 251.89 313.245 251.89C314.031 251.89 314.829 251.855 315.638 251.787C316.458 251.719 317.278 251.611 318.099 251.462ZM324.439 246.079C324.439 247.435 324.171 248.711 323.636 249.907C323.112 251.092 322.394 252.129 321.482 253.018C320.571 253.906 319.5 254.607 318.27 255.12C317.05 255.644 315.746 255.906 314.356 255.906C312.977 255.906 311.707 255.644 310.545 255.12C309.394 254.607 308.397 253.906 307.554 253.018C306.722 252.129 306.073 251.092 305.606 249.907C305.139 248.711 304.905 247.435 304.905 246.079C304.905 244.404 305.139 242.952 305.606 241.721C306.073 240.491 306.722 239.471 307.554 238.662C308.397 237.853 309.394 237.255 310.545 236.868C311.707 236.469 312.977 236.27 314.356 236.27C315.746 236.27 317.05 236.492 318.27 236.936C319.5 237.38 320.571 238.024 321.482 238.867C322.394 239.71 323.112 240.741 323.636 241.96C324.171 243.168 324.439 244.541 324.439 246.079ZM357.234 230.288C356.972 234.367 356.784 238.503 356.67 242.695C356.556 246.877 356.5 251.035 356.5 255.171H350.809L350.911 253.257C350.364 253.781 349.76 254.185 349.1 254.47C348.439 254.755 347.812 254.96 347.22 255.085C346.525 255.234 345.83 255.319 345.135 255.342C343.836 255.342 342.662 255.108 341.614 254.641C340.577 254.174 339.694 253.519 338.965 252.676C338.248 251.833 337.695 250.819 337.308 249.634C336.92 248.449 336.727 247.144 336.727 245.72C336.727 244.775 336.84 243.897 337.068 243.088C337.296 242.279 337.61 241.545 338.008 240.884C338.407 240.223 338.874 239.642 339.41 239.141C339.945 238.639 340.515 238.218 341.119 237.876C341.722 237.534 342.349 237.278 342.999 237.107C343.648 236.925 344.292 236.833 344.93 236.833C345.716 236.856 346.485 236.959 347.237 237.141C347.556 237.221 347.886 237.323 348.228 237.449C348.57 237.563 348.906 237.705 349.236 237.876C349.578 238.047 349.903 238.246 350.21 238.474C350.529 238.702 350.82 238.97 351.082 239.277C351.048 237.694 351.008 236.127 350.962 234.578C350.917 233.017 350.866 231.462 350.809 229.912L357.234 230.288ZM348.843 250.864C349.162 250.864 349.498 250.864 349.852 250.864C350.216 250.864 350.592 250.853 350.979 250.83C351.036 249.657 351.071 248.477 351.082 247.292C351.105 246.096 351.116 244.894 351.116 243.687V241.602C350.262 241.51 349.47 241.436 348.741 241.379C348.023 241.311 347.254 241.277 346.434 241.277C346.001 241.277 345.551 241.288 345.083 241.311C344.628 241.322 344.121 241.345 343.562 241.379C343.414 242.405 343.306 243.424 343.238 244.438C343.169 245.452 343.135 246.478 343.135 247.515C343.135 248.027 343.135 248.534 343.135 249.036C343.147 249.537 343.181 250.044 343.238 250.557C343.807 250.614 344.332 250.659 344.81 250.693C345.3 250.728 345.767 250.762 346.211 250.796C346.667 250.819 347.106 250.836 347.527 250.847C347.96 250.859 348.399 250.864 348.843 250.864ZM379.024 246.985L365.66 248.062C365.717 248.768 365.796 249.469 365.899 250.164C366.001 250.859 366.132 251.559 366.292 252.266C367.295 252.334 368.263 252.368 369.197 252.368C369.71 252.368 370.206 252.362 370.684 252.351C371.163 252.328 371.658 252.3 372.171 252.266C372.194 252.038 372.211 251.81 372.222 251.582C372.234 251.354 372.239 251.126 372.239 250.898C372.239 250.693 372.234 250.494 372.222 250.3C372.222 250.095 372.205 249.89 372.171 249.685L378.614 249.822C378.295 250.904 377.833 251.833 377.229 252.607C376.637 253.382 375.931 254.02 375.11 254.521C374.301 255.011 373.396 255.37 372.393 255.598C371.39 255.826 370.337 255.94 369.231 255.94C367.876 255.94 366.6 255.758 365.403 255.393C364.218 255.028 363.182 254.442 362.293 253.633C361.416 252.812 360.721 251.747 360.208 250.437C359.707 249.127 359.456 247.52 359.456 245.618C359.456 244.08 359.724 242.758 360.259 241.653C360.795 240.548 361.507 239.636 362.396 238.918C363.296 238.201 364.332 237.677 365.506 237.346C366.691 237.004 367.933 236.833 369.231 236.833C370.587 236.833 371.858 237.016 373.042 237.38C374.239 237.745 375.276 238.315 376.153 239.089C377.042 239.864 377.742 240.855 378.255 242.063C378.768 243.271 379.024 244.712 379.024 246.387V246.985ZM365.489 244.473H372.342C372.342 243.06 372.199 241.715 371.915 240.439C370.935 240.234 369.909 240.132 368.838 240.132C367.79 240.132 366.731 240.234 365.66 240.439C365.591 241.077 365.546 241.727 365.523 242.388C365.5 243.037 365.489 243.732 365.489 244.473ZM187.498 288.662C187.498 290.405 187.168 291.915 186.507 293.191C185.857 294.467 184.94 295.538 183.755 296.404C182.57 297.258 181.141 297.925 179.466 298.403C177.802 298.882 175.957 299.189 173.929 299.326C174.02 300.249 174.105 301.195 174.185 302.163C174.276 303.12 174.384 304.134 174.51 305.205L166.426 305.769C166.654 302.841 166.831 299.93 166.956 297.036C167.093 294.131 167.161 291.208 167.161 288.269C167.161 287.506 167.155 286.811 167.144 286.184C167.144 285.557 167.133 284.948 167.11 284.355C167.098 283.763 167.076 283.153 167.042 282.527C167.007 281.9 166.967 281.2 166.922 280.425C168.3 280.003 169.702 279.701 171.126 279.519C172.562 279.337 174.043 279.246 175.569 279.246C176.333 279.246 177.159 279.285 178.047 279.365C178.936 279.445 179.819 279.604 180.696 279.844C181.585 280.083 182.434 280.419 183.243 280.852C184.063 281.274 184.786 281.832 185.413 282.527C186.051 283.222 186.558 284.076 186.934 285.09C187.31 286.093 187.498 287.284 187.498 288.662ZM173.296 282.852C173.296 283.934 173.296 284.993 173.296 286.03C173.308 287.056 173.325 288.081 173.348 289.106C173.37 290.12 173.399 291.146 173.433 292.183C173.479 293.219 173.536 294.285 173.604 295.378H174.236C175.239 295.378 176.247 295.35 177.261 295.293C178.275 295.225 179.238 295.111 180.149 294.951C180.309 294.336 180.423 293.561 180.491 292.627C180.571 291.693 180.611 290.696 180.611 289.636C180.611 288.975 180.594 288.309 180.56 287.637C180.525 286.965 180.48 286.321 180.423 285.706C180.366 285.09 180.286 284.521 180.184 283.997C180.092 283.461 179.99 283.005 179.876 282.629C179.716 282.607 179.528 282.59 179.312 282.578C179.107 282.567 178.873 282.561 178.611 282.561C178.087 282.561 177.518 282.578 176.902 282.612C176.299 282.646 175.723 282.681 175.176 282.715C174.55 282.76 173.923 282.806 173.296 282.852ZM208.331 296.985L194.966 298.062C195.023 298.768 195.103 299.469 195.206 300.164C195.308 300.859 195.439 301.559 195.599 302.266C196.601 302.334 197.57 302.368 198.504 302.368C199.017 302.368 199.512 302.362 199.991 302.351C200.469 302.328 200.965 302.3 201.478 302.266C201.5 302.038 201.517 301.81 201.529 301.582C201.54 301.354 201.546 301.126 201.546 300.898C201.546 300.693 201.54 300.494 201.529 300.3C201.529 300.095 201.512 299.89 201.478 299.685L207.92 299.822C207.601 300.904 207.14 301.833 206.536 302.607C205.944 303.382 205.237 304.02 204.417 304.521C203.608 305.011 202.702 305.37 201.7 305.598C200.697 305.826 199.643 305.94 198.538 305.94C197.182 305.94 195.906 305.758 194.71 305.393C193.525 305.028 192.488 304.442 191.6 303.633C190.722 302.812 190.027 301.747 189.515 300.437C189.013 299.127 188.763 297.52 188.763 295.618C188.763 294.08 189.03 292.758 189.566 291.653C190.101 290.548 190.813 289.636 191.702 288.918C192.602 288.201 193.639 287.677 194.812 287.346C195.997 287.004 197.239 286.833 198.538 286.833C199.894 286.833 201.164 287.016 202.349 287.38C203.545 287.745 204.582 288.315 205.459 289.089C206.348 289.864 207.049 290.855 207.562 292.063C208.074 293.271 208.331 294.712 208.331 296.387V296.985ZM194.795 294.473H201.648C201.648 293.06 201.506 291.715 201.221 290.439C200.241 290.234 199.216 290.132 198.145 290.132C197.097 290.132 196.037 290.234 194.966 290.439C194.898 291.077 194.852 291.727 194.83 292.388C194.807 293.037 194.795 293.732 194.795 294.473ZM223.541 296.814C223.563 296.529 223.586 296.25 223.609 295.977C223.632 295.692 223.643 295.407 223.643 295.122C223.643 294.142 223.541 293.174 223.335 292.217C222.276 292.262 221.222 292.336 220.174 292.439C219.137 292.542 218.089 292.678 217.029 292.849V296.25C217.029 297.743 217.029 299.224 217.029 300.693C217.029 302.152 217.041 303.621 217.063 305.103L210.979 305.53C211.014 305.108 211.031 304.692 211.031 304.282C211.042 303.872 211.048 303.456 211.048 303.035C211.048 300.391 210.997 297.777 210.894 295.19C210.803 292.604 210.666 290.007 210.484 287.397L217.063 286.833C217.063 287.153 217.058 287.472 217.046 287.791C217.035 288.098 217.029 288.411 217.029 288.73C217.69 288.252 218.351 287.887 219.012 287.637C219.684 287.386 220.293 287.198 220.84 287.073C221.467 286.936 222.076 286.856 222.669 286.833C224.013 286.902 225.215 287.209 226.275 287.756C226.719 287.984 227.158 288.28 227.591 288.645C228.024 288.998 228.411 289.437 228.753 289.961C229.095 290.474 229.368 291.083 229.573 291.79C229.778 292.485 229.881 293.293 229.881 294.216C229.881 294.535 229.864 294.871 229.83 295.225C229.795 295.566 229.75 295.931 229.693 296.318L223.541 296.814ZM239.366 287.773C239.605 287.773 240.015 287.768 240.596 287.756C241.189 287.745 241.889 287.734 242.698 287.722C243.507 287.711 244.39 287.699 245.347 287.688C246.316 287.677 247.29 287.665 248.27 287.654C249.249 287.631 250.212 287.608 251.158 287.585C252.103 287.563 252.958 287.534 253.721 287.5C253.596 288.765 253.493 290.007 253.414 291.226C253.334 292.445 253.265 293.658 253.208 294.866C253.163 296.062 253.129 297.258 253.106 298.455C253.095 299.651 253.089 300.864 253.089 302.095C253.089 302.528 253.089 302.966 253.089 303.411C253.089 303.844 253.1 304.282 253.123 304.727H247.842C247.842 304.02 247.848 303.319 247.859 302.625C247.871 301.93 247.876 301.24 247.876 300.557C247.876 298.996 247.848 297.503 247.791 296.079C247.745 294.655 247.66 293.219 247.535 291.772C246.862 291.761 246.122 291.755 245.313 291.755C244.515 291.744 243.729 291.733 242.955 291.721C242.191 291.71 241.491 291.704 240.853 291.704C240.226 291.693 239.753 291.681 239.434 291.67C239.525 293.869 239.673 296.051 239.878 298.215C240.095 300.369 240.38 302.539 240.733 304.727L234.375 305.342C234.262 303.975 234.165 302.647 234.085 301.36C234.005 300.072 233.937 298.848 233.88 297.686C233.823 296.523 233.777 295.441 233.743 294.438C233.709 293.424 233.686 292.513 233.675 291.704L230.906 291.807V287.534C231.362 287.568 231.812 287.603 232.256 287.637C232.712 287.66 233.174 287.682 233.641 287.705C233.641 287.625 233.652 287.443 233.675 287.158C233.698 286.873 233.749 286.52 233.829 286.099C233.908 285.677 234.034 285.21 234.205 284.697C234.375 284.185 234.609 283.666 234.905 283.142C235.201 282.618 235.566 282.111 235.999 281.621C236.443 281.12 236.979 280.681 237.605 280.305C238.232 279.918 238.961 279.61 239.793 279.382C240.636 279.143 241.604 279.023 242.698 279.023C243.097 279.023 243.513 279.046 243.946 279.092C244.39 279.126 244.852 279.189 245.33 279.28V283.928C244.783 283.837 244.236 283.774 243.689 283.74C243.154 283.706 242.601 283.689 242.032 283.689C241.61 283.689 241.177 283.7 240.733 283.723C240.289 283.746 239.844 283.792 239.4 283.86C239.377 284.441 239.366 285.022 239.366 285.603C239.366 286.173 239.366 286.748 239.366 287.329V287.773ZM253.721 281.621C253.721 282.02 253.624 282.396 253.431 282.749C253.237 283.091 252.969 283.393 252.627 283.655C252.286 283.905 251.887 284.111 251.431 284.27C250.975 284.418 250.491 284.492 249.979 284.492C249.466 284.492 248.987 284.418 248.543 284.27C248.099 284.111 247.711 283.905 247.381 283.655C247.05 283.393 246.788 283.091 246.595 282.749C246.401 282.396 246.304 282.02 246.304 281.621C246.304 281.234 246.401 280.869 246.595 280.527C246.788 280.174 247.05 279.872 247.381 279.622C247.711 279.36 248.099 279.154 248.543 279.006C248.987 278.858 249.466 278.784 249.979 278.784C250.491 278.784 250.975 278.858 251.431 279.006C251.887 279.154 252.286 279.36 252.627 279.622C252.969 279.872 253.237 280.174 253.431 280.527C253.624 280.869 253.721 281.234 253.721 281.621ZM263.001 279.246C262.705 283.529 262.505 287.796 262.403 292.046C262.312 296.284 262.266 300.511 262.266 304.727H256.934C256.991 302.63 257.031 300.551 257.054 298.489C257.076 296.427 257.088 294.353 257.088 292.268C257.088 290.081 257.076 287.91 257.054 285.757C257.031 283.604 256.991 281.433 256.934 279.246H263.001Z" fill="black"/>
</svg>
