<svg width="429" height="305" viewBox="0 0 429 305" fill="none" xmlns="http://www.w3.org/2000/svg">
<path d="M113.003 255.164C112.16 255.05 111.42 254.948 110.782 254.856C110.155 254.777 109.563 254.708 109.004 254.651C108.458 254.606 107.922 254.572 107.398 254.549C106.874 254.526 106.304 254.515 105.689 254.515C105.985 253.523 106.236 252.509 106.441 251.473C106.657 250.436 106.828 249.371 106.954 248.277C106.27 248.254 105.569 248.237 104.852 248.226C104.134 248.214 103.422 248.208 102.715 248.208C101.268 248.208 99.8784 248.243 98.5454 248.311C98.6024 249.336 98.6821 250.362 98.7847 251.387C98.8872 252.401 99.0182 253.415 99.1777 254.429C98.3688 254.486 97.6453 254.537 97.0073 254.583C96.3693 254.629 95.8053 254.668 95.3154 254.703C94.8255 254.748 94.404 254.788 94.0508 254.822C93.6976 254.868 93.3957 254.908 93.145 254.942C92.564 255.022 92.1709 255.096 91.9658 255.164C91.8177 254.424 91.6924 253.643 91.5898 252.823C91.4987 252.002 91.4246 251.188 91.3677 250.379C91.3221 249.559 91.2879 248.761 91.2651 247.986C91.2424 247.212 91.231 246.494 91.231 245.833C91.231 244.454 91.2822 243.07 91.3848 241.68C91.4987 240.29 91.7038 238.951 92 237.664C92.3076 236.377 92.7292 235.18 93.2646 234.075C93.8001 232.959 94.5008 231.99 95.3667 231.17C96.2326 230.338 97.2808 229.689 98.5112 229.222C99.7417 228.743 101.2 228.504 102.886 228.504C104.618 228.504 106.207 228.772 107.654 229.307C109.101 229.831 110.343 230.646 111.38 231.751C112.428 232.856 113.237 234.263 113.807 235.972C114.388 237.67 114.678 239.692 114.678 242.039C114.678 242.643 114.661 243.395 114.627 244.295C114.604 245.195 114.536 246.209 114.422 247.337C114.308 248.465 114.137 249.695 113.909 251.028C113.693 252.35 113.391 253.729 113.003 255.164ZM101.519 243.868C102.51 243.868 103.496 243.851 104.476 243.816C105.467 243.771 106.407 243.697 107.295 243.594C107.318 243.332 107.33 243.07 107.33 242.808C107.33 242.535 107.33 242.256 107.33 241.971C107.33 240.239 107.25 238.57 107.09 236.963C106.942 235.357 106.72 233.864 106.424 232.486C106.162 232.463 105.871 232.446 105.552 232.435C105.245 232.423 104.914 232.417 104.561 232.417C104.094 232.417 103.61 232.429 103.108 232.452C102.618 232.463 102.134 232.486 101.656 232.52C101.189 232.543 100.739 232.577 100.306 232.623C99.8727 232.668 99.4967 232.719 99.1777 232.776C98.9271 234.588 98.7391 236.411 98.6138 238.245C98.4998 240.068 98.4429 241.919 98.4429 243.799C98.9328 243.833 99.4341 243.856 99.9468 243.868C100.471 243.868 100.995 243.868 101.519 243.868ZM136.622 235.955C136.451 239.453 136.314 242.449 136.211 244.944C136.12 247.439 136.052 249.485 136.006 251.08C135.949 252.959 135.91 254.509 135.887 255.728C135.83 257.175 135.511 258.423 134.93 259.471C134.36 260.519 133.614 261.39 132.691 262.085C131.779 262.78 130.737 263.31 129.563 263.675C128.401 264.039 127.194 264.262 125.94 264.341C124.676 264.341 123.519 264.188 122.471 263.88C121.434 263.572 120.529 263.139 119.754 262.581C118.991 262.023 118.364 261.362 117.874 260.599C117.396 259.835 117.088 258.992 116.951 258.069L123.89 257.591C123.776 257.887 123.702 258.189 123.667 258.497C123.645 258.804 123.633 259.118 123.633 259.437C123.633 259.721 123.645 260.012 123.667 260.308C123.702 260.604 123.776 260.901 123.89 261.197C124.049 261.22 124.209 261.231 124.368 261.231C124.528 261.231 124.693 261.231 124.864 261.231C126.493 261.231 128.105 261.054 129.7 260.701C129.803 259.425 129.888 258.155 129.957 256.89C130.025 255.637 130.088 254.378 130.145 253.113C129.598 253.455 129.039 253.717 128.47 253.899C127.9 254.07 127.376 254.201 126.897 254.292C126.339 254.395 125.792 254.452 125.257 254.463C124.619 254.463 123.975 254.372 123.326 254.19C122.676 254.019 122.05 253.763 121.446 253.421C120.842 253.079 120.272 252.658 119.737 252.156C119.201 251.655 118.734 251.074 118.335 250.413C117.937 249.752 117.623 249.023 117.396 248.226C117.168 247.417 117.054 246.534 117.054 245.577C117.054 244.153 117.242 242.854 117.618 241.68C118.005 240.495 118.558 239.481 119.275 238.638C119.993 237.784 120.87 237.123 121.907 236.656C122.944 236.189 124.118 235.955 125.428 235.955C125.963 235.966 126.51 236.023 127.068 236.126C127.547 236.217 128.071 236.36 128.641 236.553C129.21 236.736 129.757 237.003 130.281 237.356C130.281 237.06 130.276 236.758 130.264 236.451C130.253 236.143 130.247 235.841 130.247 235.545L136.622 235.955ZM130.367 243.663C130.367 243.127 130.361 242.597 130.35 242.073C130.35 241.538 130.338 241.002 130.315 240.467C130.11 240.444 129.905 240.433 129.7 240.433C129.495 240.433 129.296 240.433 129.102 240.433C128.669 240.433 128.242 240.438 127.82 240.45C127.399 240.461 126.966 240.484 126.521 240.518C126.077 240.541 125.61 240.575 125.12 240.621C124.63 240.655 124.1 240.7 123.531 240.757C123.497 241.281 123.468 241.794 123.445 242.295C123.434 242.785 123.428 243.287 123.428 243.799C123.428 244.836 123.468 245.861 123.548 246.875C123.628 247.878 123.742 248.892 123.89 249.917C124.437 249.952 124.938 249.98 125.394 250.003C125.849 250.014 126.294 250.02 126.727 250.02C127.353 250.02 127.946 250.009 128.504 249.986C129.062 249.963 129.655 249.917 130.281 249.849C130.304 248.812 130.321 247.781 130.333 246.756C130.355 245.73 130.367 244.699 130.367 243.663ZM158.599 246.106L145.235 247.183C145.292 247.889 145.372 248.59 145.474 249.285C145.577 249.98 145.708 250.681 145.867 251.387C146.87 251.456 147.838 251.49 148.772 251.49C149.285 251.49 149.781 251.484 150.259 251.473C150.738 251.45 151.233 251.421 151.746 251.387C151.769 251.159 151.786 250.931 151.797 250.704C151.809 250.476 151.814 250.248 151.814 250.02C151.814 249.815 151.809 249.616 151.797 249.422C151.797 249.217 151.78 249.012 151.746 248.807L158.189 248.943C157.87 250.026 157.409 250.954 156.805 251.729C156.212 252.504 155.506 253.142 154.686 253.643C153.877 254.133 152.971 254.492 151.968 254.72C150.966 254.948 149.912 255.062 148.807 255.062C147.451 255.062 146.175 254.879 144.979 254.515C143.794 254.15 142.757 253.563 141.868 252.754C140.991 251.934 140.296 250.869 139.783 249.559C139.282 248.248 139.031 246.642 139.031 244.739C139.031 243.201 139.299 241.88 139.834 240.774C140.37 239.669 141.082 238.758 141.971 238.04C142.871 237.322 143.908 236.798 145.081 236.468C146.266 236.126 147.508 235.955 148.807 235.955C150.162 235.955 151.433 236.137 152.618 236.502C153.814 236.867 154.851 237.436 155.728 238.211C156.617 238.986 157.317 239.977 157.83 241.185C158.343 242.392 158.599 243.833 158.599 245.508V246.106ZM145.064 243.594H151.917C151.917 242.181 151.775 240.837 151.49 239.561C150.51 239.356 149.485 239.253 148.414 239.253C147.365 239.253 146.306 239.356 145.235 239.561C145.167 240.199 145.121 240.848 145.098 241.509C145.075 242.159 145.064 242.854 145.064 243.594ZM179.483 245.201C179.483 246.716 179.403 248.26 179.244 249.832C179.084 251.404 178.811 252.977 178.423 254.549H172.476C172.624 252.851 172.738 251.176 172.818 249.524C172.898 247.861 172.938 246.186 172.938 244.5C172.938 243.93 172.938 243.366 172.938 242.808C172.938 242.238 172.926 241.669 172.903 241.099C172.391 241.042 171.884 241.008 171.382 240.997C170.881 240.974 170.374 240.962 169.861 240.962C168.893 240.962 167.896 240.997 166.871 241.065C166.836 241.999 166.808 242.865 166.785 243.663C166.774 244.46 166.768 245.252 166.768 246.038C166.768 246.619 166.774 247.212 166.785 247.815C166.797 248.408 166.814 249.046 166.836 249.729C166.871 250.413 166.91 251.154 166.956 251.951C167.002 252.737 167.059 253.603 167.127 254.549H161.385C161.385 253.182 161.379 251.974 161.368 250.926C161.356 249.878 161.339 248.915 161.316 248.038C161.294 247.149 161.259 246.306 161.214 245.508C161.18 244.699 161.134 243.856 161.077 242.979C161.02 242.09 160.958 241.128 160.889 240.091C160.821 239.043 160.741 237.841 160.65 236.485L167.127 236.092L166.99 238.519C167.64 238.063 168.306 237.71 168.99 237.459C169.673 237.208 170.3 237.02 170.87 236.895C171.53 236.758 172.174 236.679 172.801 236.656C173.632 236.656 174.373 236.77 175.022 236.998C175.683 237.225 176.259 237.544 176.749 237.955C177.25 238.353 177.671 238.826 178.013 239.373C178.355 239.92 178.634 240.512 178.851 241.15C179.078 241.777 179.238 242.438 179.329 243.133C179.432 243.828 179.483 244.517 179.483 245.201ZM202.298 229.41C202.036 233.488 201.848 237.624 201.734 241.817C201.62 245.998 201.563 250.157 201.563 254.292H195.872L195.975 252.378C195.428 252.903 194.824 253.307 194.163 253.592C193.502 253.877 192.876 254.082 192.283 254.207C191.588 254.355 190.893 254.441 190.198 254.463C188.899 254.463 187.726 254.23 186.678 253.763C185.641 253.296 184.758 252.64 184.029 251.797C183.311 250.954 182.758 249.94 182.371 248.755C181.984 247.57 181.79 246.266 181.79 244.842C181.79 243.896 181.904 243.019 182.132 242.21C182.36 241.401 182.673 240.666 183.072 240.005C183.471 239.345 183.938 238.764 184.473 238.262C185.009 237.761 185.578 237.339 186.182 236.998C186.786 236.656 187.413 236.399 188.062 236.229C188.711 236.046 189.355 235.955 189.993 235.955C190.779 235.978 191.548 236.08 192.3 236.263C192.619 236.342 192.95 236.445 193.292 236.57C193.633 236.684 193.969 236.827 194.3 236.998C194.642 237.168 194.966 237.368 195.274 237.596C195.593 237.824 195.883 238.091 196.146 238.399C196.111 236.815 196.071 235.249 196.026 233.699C195.98 232.138 195.929 230.583 195.872 229.034L202.298 229.41ZM193.907 249.986C194.226 249.986 194.562 249.986 194.915 249.986C195.28 249.986 195.656 249.974 196.043 249.952C196.1 248.778 196.134 247.599 196.146 246.414C196.168 245.218 196.18 244.016 196.18 242.808V240.723C195.325 240.632 194.533 240.558 193.804 240.501C193.086 240.433 192.317 240.398 191.497 240.398C191.064 240.398 190.614 240.41 190.147 240.433C189.691 240.444 189.184 240.467 188.626 240.501C188.478 241.526 188.37 242.546 188.301 243.56C188.233 244.574 188.199 245.599 188.199 246.636C188.199 247.149 188.199 247.656 188.199 248.157C188.21 248.659 188.244 249.166 188.301 249.678C188.871 249.735 189.395 249.781 189.874 249.815C190.363 249.849 190.831 249.883 191.275 249.917C191.731 249.94 192.169 249.957 192.591 249.969C193.024 249.98 193.462 249.986 193.907 249.986ZM219.08 254.686C219.08 254.355 219.074 254.025 219.063 253.694C219.052 253.353 219.046 253.016 219.046 252.686C218.442 253.233 217.81 253.649 217.149 253.934C216.5 254.207 215.901 254.412 215.354 254.549C214.716 254.708 214.084 254.799 213.458 254.822C212.318 254.822 211.219 254.646 210.159 254.292C209.111 253.951 208.177 253.432 207.356 252.737C206.536 252.042 205.87 251.176 205.357 250.14C204.856 249.091 204.576 247.878 204.52 246.5C204.52 245.11 204.708 243.845 205.083 242.706C205.459 241.555 206.023 240.569 206.775 239.749C207.527 238.929 208.462 238.296 209.578 237.852C210.695 237.396 211.988 237.163 213.458 237.151C213.503 237.151 213.674 237.163 213.97 237.186C214.278 237.197 214.654 237.248 215.098 237.339C215.542 237.419 216.027 237.556 216.551 237.75C217.075 237.932 217.593 238.188 218.106 238.519L217.833 236.417L224.583 235.955C224.446 239.225 224.378 242.478 224.378 245.713C224.378 246.5 224.378 247.246 224.378 247.952C224.389 248.647 224.401 249.342 224.412 250.037C224.435 250.721 224.458 251.416 224.48 252.122C224.515 252.817 224.549 253.552 224.583 254.327L219.08 254.686ZM211.099 250.55C212.455 250.493 213.788 250.402 215.098 250.276C216.408 250.151 217.701 249.963 218.978 249.712C218.943 248.3 218.881 246.932 218.79 245.611C218.71 244.289 218.596 242.939 218.448 241.561H217.474C216.368 241.561 215.258 241.6 214.141 241.68C213.036 241.749 211.919 241.868 210.792 242.039C210.655 243.235 210.586 244.437 210.586 245.645C210.586 246.101 210.598 246.528 210.621 246.927C210.643 247.314 210.672 247.701 210.706 248.089C210.752 248.476 210.803 248.869 210.86 249.268C210.928 249.667 211.008 250.094 211.099 250.55ZM245.347 245.645C245.347 247.092 245.262 248.562 245.091 250.054C244.92 251.547 244.658 253.045 244.305 254.549H238.357C238.494 252.942 238.602 251.347 238.682 249.764C238.762 248.18 238.802 246.585 238.802 244.979C238.802 244.432 238.802 243.89 238.802 243.355C238.802 242.819 238.79 242.29 238.768 241.766C238.255 241.709 237.748 241.674 237.247 241.663C236.757 241.64 236.25 241.629 235.726 241.629C235.429 241.629 235.127 241.635 234.82 241.646C234.524 241.657 234.216 241.663 233.897 241.663C233.863 242.472 233.84 243.23 233.829 243.936C233.829 244.631 233.829 245.332 233.829 246.038C233.829 246.619 233.834 247.212 233.846 247.815C233.857 248.408 233.874 249.046 233.897 249.729C233.931 250.413 233.971 251.154 234.017 251.951C234.062 252.737 234.119 253.603 234.188 254.549H228.445C228.445 253.182 228.44 251.974 228.428 250.926C228.417 249.878 228.4 248.915 228.377 248.038C228.354 247.149 228.32 246.306 228.274 245.508C228.24 244.699 228.195 243.856 228.138 242.979C228.081 242.09 228.018 241.128 227.95 240.091C227.881 239.043 227.802 237.841 227.71 236.485L234.188 236.092L234.051 238.621C234.62 238.348 235.179 238.137 235.726 237.989C236.272 237.841 236.762 237.732 237.195 237.664C237.697 237.584 238.175 237.539 238.631 237.527C239.508 237.527 240.289 237.653 240.972 237.903C241.656 238.143 242.254 238.473 242.767 238.895C243.427 238.325 244.122 237.892 244.852 237.596C245.592 237.288 246.276 237.06 246.902 236.912C247.632 236.741 248.349 236.644 249.056 236.622C249.899 236.622 250.645 236.736 251.294 236.963C251.955 237.191 252.536 237.51 253.038 237.92C253.539 238.319 253.96 238.798 254.302 239.356C254.655 239.903 254.94 240.495 255.157 241.133C255.373 241.76 255.527 242.421 255.618 243.116C255.721 243.811 255.772 244.506 255.772 245.201C255.772 246.716 255.687 248.254 255.516 249.815C255.356 251.376 255.094 252.954 254.729 254.549H248.782C248.919 252.851 249.027 251.171 249.107 249.507C249.187 247.833 249.227 246.152 249.227 244.466C249.227 243.896 249.227 243.332 249.227 242.774C249.227 242.204 249.215 241.635 249.192 241.065C248.68 241.008 248.173 240.974 247.671 240.962C247.17 240.94 246.652 240.928 246.116 240.928C245.82 240.928 245.529 240.934 245.245 240.945C244.96 240.957 244.669 240.962 244.373 240.962C244.726 241.669 244.977 242.426 245.125 243.235C245.273 244.033 245.347 244.836 245.347 245.645ZM277.647 246.106L264.283 247.183C264.34 247.889 264.419 248.59 264.522 249.285C264.625 249.98 264.756 250.681 264.915 251.387C265.918 251.456 266.886 251.49 267.82 251.49C268.333 251.49 268.829 251.484 269.307 251.473C269.786 251.45 270.281 251.421 270.794 251.387C270.817 251.159 270.834 250.931 270.845 250.704C270.857 250.476 270.862 250.248 270.862 250.02C270.862 249.815 270.857 249.616 270.845 249.422C270.845 249.217 270.828 249.012 270.794 248.807L277.237 248.943C276.918 250.026 276.456 250.954 275.853 251.729C275.26 252.504 274.554 253.142 273.733 253.643C272.924 254.133 272.019 254.492 271.016 254.72C270.014 254.948 268.96 255.062 267.854 255.062C266.499 255.062 265.223 254.879 264.026 254.515C262.841 254.15 261.805 253.563 260.916 252.754C260.039 251.934 259.344 250.869 258.831 249.559C258.33 248.248 258.079 246.642 258.079 244.739C258.079 243.201 258.347 241.88 258.882 240.774C259.418 239.669 260.13 238.758 261.019 238.04C261.919 237.322 262.955 236.798 264.129 236.468C265.314 236.126 266.556 235.955 267.854 235.955C269.21 235.955 270.481 236.137 271.666 236.502C272.862 236.867 273.899 237.436 274.776 238.211C275.665 238.986 276.365 239.977 276.878 241.185C277.391 242.392 277.647 243.833 277.647 245.508V246.106ZM264.112 243.594H270.965C270.965 242.181 270.822 240.837 270.538 239.561C269.558 239.356 268.532 239.253 267.461 239.253C266.413 239.253 265.354 239.356 264.283 239.561C264.214 240.199 264.169 240.848 264.146 241.509C264.123 242.159 264.112 242.854 264.112 243.594ZM298.531 245.201C298.531 246.716 298.451 248.26 298.292 249.832C298.132 251.404 297.859 252.977 297.471 254.549H291.524C291.672 252.851 291.786 251.176 291.866 249.524C291.945 247.861 291.985 246.186 291.985 244.5C291.985 243.93 291.985 243.366 291.985 242.808C291.985 242.238 291.974 241.669 291.951 241.099C291.438 241.042 290.931 241.008 290.43 240.997C289.929 240.974 289.422 240.962 288.909 240.962C287.941 240.962 286.944 240.997 285.918 241.065C285.884 241.999 285.856 242.865 285.833 243.663C285.822 244.46 285.816 245.252 285.816 246.038C285.816 246.619 285.822 247.212 285.833 247.815C285.844 248.408 285.861 249.046 285.884 249.729C285.918 250.413 285.958 251.154 286.004 251.951C286.049 252.737 286.106 253.603 286.175 254.549H280.433C280.433 253.182 280.427 251.974 280.416 250.926C280.404 249.878 280.387 248.915 280.364 248.038C280.341 247.149 280.307 246.306 280.262 245.508C280.228 244.699 280.182 243.856 280.125 242.979C280.068 242.09 280.005 241.128 279.937 240.091C279.869 239.043 279.789 237.841 279.698 236.485L286.175 236.092L286.038 238.519C286.688 238.063 287.354 237.71 288.038 237.459C288.721 237.208 289.348 237.02 289.917 236.895C290.578 236.758 291.222 236.679 291.849 236.656C292.68 236.656 293.421 236.77 294.07 236.998C294.731 237.225 295.306 237.544 295.796 237.955C296.298 238.353 296.719 238.826 297.061 239.373C297.403 239.92 297.682 240.512 297.898 241.15C298.126 241.777 298.286 242.438 298.377 243.133C298.479 243.828 298.531 244.517 298.531 245.201ZM317.569 241.099C316.464 241.042 315.353 240.991 314.236 240.945C313.131 240.9 312.026 240.86 310.921 240.826C310.784 243.093 310.665 245.354 310.562 247.61C310.459 249.866 310.38 252.139 310.323 254.429L305.333 254.925C305.401 250.755 305.435 246.625 305.435 242.535V240.723H304.205C303.521 240.723 302.837 240.729 302.154 240.74C301.47 240.752 300.787 240.757 300.103 240.757V236.417C300.399 236.417 300.695 236.422 300.992 236.434C301.299 236.445 301.613 236.451 301.932 236.451H305.401C305.401 235.391 305.395 234.349 305.384 233.323C305.372 232.286 305.355 231.25 305.333 230.213H311.81C311.696 231.238 311.593 232.258 311.502 233.272C311.422 234.275 311.348 235.277 311.28 236.28C312.339 236.234 313.382 236.189 314.407 236.143C315.444 236.086 316.498 236.023 317.569 235.955V241.099ZM332.044 250.584C332.112 249.616 332.158 248.676 332.181 247.764C332.215 246.853 332.232 245.953 332.232 245.064C332.232 244.141 332.215 243.235 332.181 242.347C332.158 241.447 332.112 240.518 332.044 239.561C331.657 239.504 331.269 239.47 330.882 239.458C330.506 239.436 330.124 239.424 329.737 239.424C328.142 239.424 326.604 239.601 325.123 239.954C325.088 240.569 325.054 241.179 325.02 241.783C324.997 242.387 324.986 242.99 324.986 243.594C324.986 244.802 325.031 246.01 325.123 247.217C325.225 248.414 325.373 249.667 325.567 250.977C325.829 251 326.091 251.011 326.353 251.011C326.626 251.011 326.906 251.011 327.19 251.011C327.977 251.011 328.774 250.977 329.583 250.909C330.403 250.84 331.224 250.732 332.044 250.584ZM338.384 245.201C338.384 246.556 338.117 247.833 337.581 249.029C337.057 250.214 336.339 251.25 335.428 252.139C334.516 253.028 333.445 253.729 332.215 254.241C330.996 254.765 329.691 255.027 328.301 255.027C326.923 255.027 325.652 254.765 324.49 254.241C323.34 253.729 322.343 253.028 321.5 252.139C320.668 251.25 320.018 250.214 319.551 249.029C319.084 247.833 318.851 246.556 318.851 245.201C318.851 243.526 319.084 242.073 319.551 240.843C320.018 239.612 320.668 238.593 321.5 237.784C322.343 236.975 323.34 236.377 324.49 235.989C325.652 235.59 326.923 235.391 328.301 235.391C329.691 235.391 330.996 235.613 332.215 236.058C333.445 236.502 334.516 237.146 335.428 237.989C336.339 238.832 337.057 239.863 337.581 241.082C338.117 242.29 338.384 243.663 338.384 245.201Z" fill="black"/>
<path d="M216.821 128.418C218.92 128.418 220.972 127.791 222.717 126.615C224.463 125.439 225.823 123.768 226.626 121.812C227.429 119.857 227.64 117.705 227.23 115.629C226.821 113.553 225.81 111.646 224.326 110.15C222.841 108.653 220.95 107.634 218.892 107.221C216.833 106.808 214.699 107.02 212.76 107.83C210.821 108.64 209.163 110.012 207.997 111.771C206.831 113.531 206.208 115.6 206.208 117.717C206.208 120.555 207.327 123.277 209.317 125.284C211.307 127.291 214.007 128.418 216.821 128.418ZM269.885 128.418C271.984 128.418 274.036 127.791 275.781 126.615C277.527 125.439 278.887 123.768 279.69 121.812C280.493 119.857 280.704 117.705 280.294 115.629C279.885 113.553 278.874 111.646 277.39 110.15C275.905 108.653 274.014 107.634 271.956 107.221C269.897 106.808 267.763 107.02 265.824 107.83C263.885 108.64 262.227 110.012 261.061 111.771C259.895 113.531 259.272 115.6 259.272 117.717C259.272 120.555 260.391 123.277 262.381 125.284C264.371 127.291 267.071 128.418 269.885 128.418ZM216.821 171.225C218.92 171.225 220.972 170.597 222.717 169.421C224.463 168.245 225.823 166.574 226.626 164.618C227.429 162.663 227.64 160.511 227.23 158.435C226.821 156.359 225.81 154.453 224.326 152.956C222.841 151.459 220.95 150.44 218.892 150.027C216.833 149.614 214.699 149.826 212.76 150.636C210.821 151.446 209.163 152.818 207.997 154.578C206.831 156.337 206.208 158.406 206.208 160.523C206.208 163.361 207.327 166.083 209.317 168.09C211.307 170.097 214.007 171.225 216.821 171.225ZM269.885 171.225C271.984 171.225 274.036 170.597 275.781 169.421C277.527 168.245 278.887 166.574 279.69 164.618C280.493 162.663 280.704 160.511 280.294 158.435C279.885 156.359 278.874 154.453 277.39 152.956C275.905 151.459 274.014 150.44 271.956 150.027C269.897 149.614 267.763 149.826 265.824 150.636C263.885 151.446 262.227 152.818 261.061 154.578C259.895 156.337 259.272 158.406 259.272 160.523C259.272 163.361 260.391 166.083 262.381 168.09C264.371 170.097 267.071 171.225 269.885 171.225ZM163.757 128.418C165.856 128.418 167.908 127.791 169.653 126.615C171.399 125.439 172.759 123.768 173.562 121.812C174.365 119.857 174.576 117.705 174.166 115.629C173.757 113.553 172.746 111.646 171.262 110.15C169.777 108.653 167.886 107.634 165.828 107.221C163.769 106.808 161.635 107.02 159.696 107.83C157.757 108.64 156.099 110.012 154.933 111.771C153.767 113.531 153.144 115.6 153.144 117.717C153.144 120.555 154.263 123.277 156.253 125.284C158.243 127.291 160.943 128.418 163.757 128.418ZM291.111 21.4031H280.498V10.7015C280.498 7.86331 279.38 5.14133 277.39 3.13441C275.399 1.12748 272.7 0 269.885 0C267.071 0 264.371 1.12748 262.381 3.13441C260.391 5.14133 259.272 7.86331 259.272 10.7015V21.4031H174.37V10.7015C174.37 7.86331 173.252 5.14133 171.262 3.13441C169.271 1.12748 166.572 0 163.757 0C160.943 0 158.243 1.12748 156.253 3.13441C154.263 5.14133 153.144 7.86331 153.144 10.7015V21.4031H142.532C134.088 21.4031 125.989 24.7855 120.018 30.8063C114.048 36.8271 110.693 44.993 110.693 53.5077V181.926C110.693 190.441 114.048 198.607 120.018 204.628C125.989 210.648 134.088 214.031 142.532 214.031H291.111C299.555 214.031 307.653 210.648 313.624 204.628C319.595 198.607 322.949 190.441 322.949 181.926V53.5077C322.949 44.993 319.595 36.8271 313.624 30.8063C307.653 24.7855 299.555 21.4031 291.111 21.4031ZM301.724 181.926C301.724 184.764 300.605 187.486 298.615 189.493C296.625 191.5 293.926 192.628 291.111 192.628H142.532C139.717 192.628 137.018 191.5 135.027 189.493C133.037 187.486 131.919 184.764 131.919 181.926V85.6123H301.724V181.926ZM301.724 64.2092H131.919V53.5077C131.919 50.6695 133.037 47.9475 135.027 45.9406C137.018 43.9336 139.717 42.8062 142.532 42.8062H291.111C293.926 42.8062 296.625 43.9336 298.615 45.9406C300.605 47.9475 301.724 50.6695 301.724 53.5077V64.2092ZM163.757 171.225C165.856 171.225 167.908 170.597 169.653 169.421C171.399 168.245 172.759 166.574 173.562 164.618C174.365 162.663 174.576 160.511 174.166 158.435C173.757 156.359 172.746 154.453 171.262 152.956C169.777 151.459 167.886 150.44 165.828 150.027C163.769 149.614 161.635 149.826 159.696 150.636C157.757 151.446 156.099 152.818 154.933 154.578C153.767 156.337 153.144 158.406 153.144 160.523C153.144 163.361 154.263 166.083 156.253 168.09C158.243 170.097 160.943 171.225 163.757 171.225Z" fill="black"/>
</svg>
