<svg width="429" height="278" viewBox="0 0 429 278" fill="none" xmlns="http://www.w3.org/2000/svg">
<path d="M127.53 187.946C127.313 191.467 127.154 194.953 127.051 198.405C126.949 201.857 126.897 205.31 126.897 208.762C126.897 209.536 126.897 210.306 126.897 211.069C126.897 211.832 126.909 212.607 126.932 213.393C126.294 213.393 125.627 213.399 124.932 213.41C124.237 213.433 123.599 213.456 123.018 213.479C122.334 213.513 121.668 213.541 121.019 213.564C121.11 212.151 121.184 210.744 121.241 209.343C121.309 207.93 121.36 206.512 121.395 205.087C121.201 205.087 121.007 205.082 120.813 205.07C120.62 205.059 120.42 205.053 120.215 205.053C119.042 205.053 117.817 205.11 116.541 205.224C115.265 205.338 114.029 205.458 112.833 205.583C112.889 206.893 112.952 208.198 113.021 209.497C113.089 210.784 113.174 212.083 113.277 213.393C112.753 213.37 112.251 213.347 111.773 213.325C111.294 213.313 110.816 213.308 110.337 213.308C109.449 213.308 108.554 213.33 107.654 213.376C106.766 213.433 105.803 213.496 104.766 213.564C104.994 211.433 105.165 209.314 105.279 207.207C105.404 205.087 105.467 202.945 105.467 200.781C105.467 198.65 105.404 196.531 105.279 194.423C105.165 192.316 104.994 190.168 104.766 187.98C105.45 187.98 106.099 187.975 106.714 187.963C107.341 187.952 107.973 187.935 108.611 187.912C109.261 187.889 109.944 187.855 110.662 187.81C111.38 187.753 112.183 187.69 113.072 187.622C112.946 189.433 112.85 191.25 112.781 193.073C112.713 194.885 112.679 196.708 112.679 198.542V201.516H113.807C115.049 201.516 116.325 201.493 117.635 201.447C118.945 201.39 120.232 201.311 121.497 201.208C121.497 200.536 121.503 199.864 121.514 199.191C121.526 198.519 121.531 197.847 121.531 197.175C121.531 195.66 121.514 194.15 121.48 192.646C121.457 191.142 121.417 189.632 121.36 188.117C122.01 188.117 122.551 188.117 122.984 188.117C123.417 188.117 123.838 188.111 124.249 188.1C124.67 188.089 125.126 188.072 125.616 188.049C126.117 188.026 126.755 187.992 127.53 187.946ZM137.254 195.158C137.003 197.699 136.832 200.205 136.741 202.678C136.661 205.15 136.622 207.622 136.622 210.095C136.622 210.528 136.622 210.966 136.622 211.411C136.622 211.844 136.633 212.282 136.656 212.727H131.375C131.375 212.02 131.381 211.319 131.392 210.625C131.403 209.93 131.409 209.24 131.409 208.557C131.409 206.289 131.352 204.045 131.238 201.823C131.136 199.602 130.971 197.38 130.743 195.158H137.254ZM137.254 189.621C137.254 190.02 137.157 190.396 136.963 190.749C136.77 191.091 136.502 191.393 136.16 191.655C135.818 191.905 135.42 192.111 134.964 192.27C134.508 192.418 134.024 192.492 133.511 192.492C132.999 192.492 132.52 192.418 132.076 192.27C131.631 192.111 131.244 191.905 130.914 191.655C130.583 191.393 130.321 191.091 130.127 190.749C129.934 190.396 129.837 190.02 129.837 189.621C129.837 189.234 129.934 188.869 130.127 188.527C130.321 188.174 130.583 187.872 130.914 187.622C131.244 187.36 131.631 187.154 132.076 187.006C132.52 186.858 132.999 186.784 133.511 186.784C134.024 186.784 134.508 186.858 134.964 187.006C135.42 187.154 135.818 187.36 136.16 187.622C136.502 187.872 136.77 188.174 136.963 188.527C137.157 188.869 137.254 189.234 137.254 189.621ZM158.411 209.018C158.411 210.021 158.155 210.858 157.642 211.53C157.129 212.191 156.457 212.721 155.625 213.12C154.794 213.53 153.848 213.815 152.789 213.974C151.729 214.145 150.652 214.23 149.559 214.23C148.955 214.23 148.305 214.191 147.61 214.111C146.927 214.042 146.237 213.911 145.542 213.718C144.847 213.535 144.17 213.291 143.509 212.983C142.859 212.664 142.267 212.265 141.731 211.787C141.196 211.308 140.735 210.744 140.347 210.095C139.971 209.445 139.715 208.688 139.578 207.822L146.517 207.753L146.79 210.727H152.105L152.498 207.292C151.792 207.132 150.983 206.996 150.071 206.882C149.16 206.768 148.226 206.631 147.269 206.472C146.312 206.301 145.372 206.084 144.449 205.822C143.526 205.56 142.706 205.201 141.988 204.746C141.27 204.29 140.689 203.715 140.245 203.02C139.8 202.325 139.578 201.464 139.578 200.439C139.578 199.334 139.846 198.405 140.381 197.653C140.917 196.89 141.618 196.28 142.483 195.825C143.361 195.358 144.352 195.016 145.457 194.799C146.562 194.583 147.684 194.458 148.824 194.423C149.428 194.423 150.077 194.458 150.772 194.526C151.478 194.594 152.179 194.72 152.874 194.902C153.569 195.073 154.236 195.312 154.874 195.62C155.523 195.927 156.098 196.32 156.6 196.799C157.112 197.266 157.528 197.836 157.847 198.508C158.178 199.169 158.366 199.949 158.411 200.849L151.695 201.14V197.773H145.918V202.319C146.659 202.478 147.485 202.604 148.396 202.695C149.308 202.775 150.225 202.883 151.148 203.02C152.071 203.156 152.965 203.344 153.831 203.583C154.708 203.823 155.483 204.165 156.155 204.609C156.839 205.053 157.386 205.629 157.796 206.335C158.206 207.041 158.411 207.936 158.411 209.018ZM177.125 199.978C176.019 199.921 174.909 199.869 173.792 199.824C172.687 199.778 171.582 199.738 170.477 199.704C170.34 201.971 170.22 204.233 170.118 206.489C170.015 208.745 169.935 211.018 169.878 213.308L164.888 213.803C164.957 209.633 164.991 205.503 164.991 201.413V199.602H163.76C163.077 199.602 162.393 199.607 161.709 199.619C161.026 199.63 160.342 199.636 159.659 199.636V195.295C159.955 195.295 160.251 195.301 160.547 195.312C160.855 195.323 161.168 195.329 161.487 195.329H164.957C164.957 194.27 164.951 193.227 164.939 192.202C164.928 191.165 164.911 190.128 164.888 189.091H171.365C171.251 190.117 171.149 191.136 171.058 192.15C170.978 193.153 170.904 194.156 170.835 195.158C171.895 195.113 172.938 195.067 173.963 195.021C175 194.965 176.054 194.902 177.125 194.833V199.978ZM191.6 209.462C191.668 208.494 191.714 207.554 191.736 206.643C191.771 205.731 191.788 204.831 191.788 203.942C191.788 203.02 191.771 202.114 191.736 201.225C191.714 200.325 191.668 199.396 191.6 198.439C191.212 198.382 190.825 198.348 190.438 198.337C190.062 198.314 189.68 198.303 189.292 198.303C187.697 198.303 186.159 198.479 184.678 198.833C184.644 199.448 184.61 200.057 184.576 200.661C184.553 201.265 184.542 201.869 184.542 202.473C184.542 203.68 184.587 204.888 184.678 206.096C184.781 207.292 184.929 208.545 185.123 209.855C185.385 209.878 185.647 209.89 185.909 209.89C186.182 209.89 186.461 209.89 186.746 209.89C187.532 209.89 188.33 209.855 189.139 209.787C189.959 209.719 190.779 209.611 191.6 209.462ZM197.94 204.079C197.94 205.435 197.672 206.711 197.137 207.907C196.613 209.092 195.895 210.129 194.983 211.018C194.072 211.906 193.001 212.607 191.771 213.12C190.551 213.644 189.247 213.906 187.857 213.906C186.478 213.906 185.208 213.644 184.046 213.12C182.895 212.607 181.898 211.906 181.055 211.018C180.223 210.129 179.574 209.092 179.107 207.907C178.64 206.711 178.406 205.435 178.406 204.079C178.406 202.404 178.64 200.952 179.107 199.721C179.574 198.491 180.223 197.471 181.055 196.662C181.898 195.853 182.895 195.255 184.046 194.868C185.208 194.469 186.478 194.27 187.857 194.27C189.247 194.27 190.551 194.492 191.771 194.936C193.001 195.38 194.072 196.024 194.983 196.867C195.895 197.71 196.613 198.741 197.137 199.96C197.672 201.168 197.94 202.541 197.94 204.079ZM195.53 187.98L189.361 193.466L187.054 192.868L191.463 186.357L195.53 187.98ZM213.355 204.814C213.378 204.529 213.401 204.25 213.423 203.977C213.446 203.692 213.458 203.407 213.458 203.122C213.458 202.142 213.355 201.174 213.15 200.217C212.09 200.262 211.036 200.336 209.988 200.439C208.951 200.542 207.903 200.678 206.844 200.849V204.25C206.844 205.743 206.844 207.224 206.844 208.693C206.844 210.152 206.855 211.621 206.878 213.103L200.794 213.53C200.828 213.108 200.845 212.692 200.845 212.282C200.857 211.872 200.862 211.456 200.862 211.035C200.862 208.391 200.811 205.777 200.708 203.19C200.617 200.604 200.481 198.007 200.298 195.397L206.878 194.833C206.878 195.153 206.872 195.472 206.861 195.791C206.849 196.098 206.844 196.411 206.844 196.73C207.505 196.252 208.165 195.887 208.826 195.637C209.498 195.386 210.108 195.198 210.655 195.073C211.281 194.936 211.891 194.856 212.483 194.833C213.828 194.902 215.03 195.209 216.089 195.756C216.534 195.984 216.972 196.28 217.405 196.645C217.838 196.998 218.226 197.437 218.567 197.961C218.909 198.474 219.183 199.083 219.388 199.79C219.593 200.485 219.695 201.293 219.695 202.216C219.695 202.535 219.678 202.871 219.644 203.225C219.61 203.566 219.564 203.931 219.507 204.318L213.355 204.814ZM228.069 195.158C227.819 197.699 227.648 200.205 227.557 202.678C227.477 205.15 227.437 207.622 227.437 210.095C227.437 210.528 227.437 210.966 227.437 211.411C227.437 211.844 227.448 212.282 227.471 212.727H222.19C222.19 212.02 222.196 211.319 222.208 210.625C222.219 209.93 222.225 209.24 222.225 208.557C222.225 206.289 222.168 204.045 222.054 201.823C221.951 199.602 221.786 197.38 221.558 195.158H228.069ZM228.069 189.621C228.069 190.02 227.972 190.396 227.779 190.749C227.585 191.091 227.317 191.393 226.976 191.655C226.634 191.905 226.235 192.111 225.779 192.27C225.324 192.418 224.839 192.492 224.327 192.492C223.814 192.492 223.335 192.418 222.891 192.27C222.447 192.111 222.059 191.905 221.729 191.655C221.399 191.393 221.137 191.091 220.943 190.749C220.749 190.396 220.652 190.02 220.652 189.621C220.652 189.234 220.749 188.869 220.943 188.527C221.137 188.174 221.399 187.872 221.729 187.622C222.059 187.36 222.447 187.154 222.891 187.006C223.335 186.858 223.814 186.784 224.327 186.784C224.839 186.784 225.324 186.858 225.779 187.006C226.235 187.154 226.634 187.36 226.976 187.622C227.317 187.872 227.585 188.174 227.779 188.527C227.972 188.869 228.069 189.234 228.069 189.621ZM242.92 201.652C242.977 201.379 243.017 201.105 243.04 200.832C243.063 200.547 243.074 200.262 243.074 199.978C243.074 199.715 243.063 199.459 243.04 199.208C243.017 198.958 242.977 198.701 242.92 198.439C242.431 198.348 241.935 198.286 241.434 198.251C240.932 198.217 240.414 198.2 239.878 198.2C239.354 198.2 238.825 198.217 238.289 198.251C237.754 198.286 237.212 198.348 236.666 198.439C236.609 199.055 236.563 199.659 236.529 200.251C236.506 200.843 236.495 201.442 236.495 202.045C236.495 203.435 236.563 204.814 236.7 206.181C236.848 207.537 237.047 208.898 237.298 210.266C237.811 210.323 238.3 210.362 238.768 210.385C239.246 210.397 239.736 210.402 240.237 210.402C240.727 210.402 241.211 210.397 241.69 210.385C242.168 210.362 242.664 210.323 243.177 210.266C243.2 210.026 243.217 209.793 243.228 209.565C243.239 209.337 243.245 209.115 243.245 208.898C243.245 208.693 243.239 208.488 243.228 208.283C243.217 208.078 243.2 207.879 243.177 207.685L249.62 207.822C249.301 208.904 248.839 209.833 248.235 210.607C247.643 211.382 246.937 212.02 246.116 212.521C245.307 213.011 244.402 213.37 243.399 213.598C242.396 213.826 241.342 213.94 240.237 213.94C238.882 213.94 237.605 213.758 236.409 213.393C235.224 213.028 234.188 212.442 233.299 211.633C232.422 210.812 231.727 209.747 231.214 208.437C230.713 207.127 230.462 205.52 230.462 203.618C230.462 202.08 230.73 200.758 231.265 199.653C231.801 198.548 232.513 197.636 233.401 196.918C234.301 196.201 235.338 195.677 236.512 195.346C237.697 195.004 238.938 194.833 240.237 194.833C241.388 194.833 242.482 194.97 243.519 195.244C244.555 195.506 245.49 195.916 246.321 196.474C247.164 197.021 247.882 197.727 248.475 198.593C249.067 199.448 249.494 200.467 249.756 201.652H242.92ZM264.471 209.462C264.539 208.494 264.585 207.554 264.607 206.643C264.642 205.731 264.659 204.831 264.659 203.942C264.659 203.02 264.642 202.114 264.607 201.225C264.585 200.325 264.539 199.396 264.471 198.439C264.083 198.382 263.696 198.348 263.309 198.337C262.933 198.314 262.551 198.303 262.164 198.303C260.569 198.303 259.03 198.479 257.549 198.833C257.515 199.448 257.481 200.057 257.447 200.661C257.424 201.265 257.413 201.869 257.413 202.473C257.413 203.68 257.458 204.888 257.549 206.096C257.652 207.292 257.8 208.545 257.994 209.855C258.256 209.878 258.518 209.89 258.78 209.89C259.053 209.89 259.332 209.89 259.617 209.89C260.403 209.89 261.201 209.855 262.01 209.787C262.83 209.719 263.65 209.611 264.471 209.462ZM270.811 204.079C270.811 205.435 270.543 206.711 270.008 207.907C269.484 209.092 268.766 210.129 267.854 211.018C266.943 211.906 265.872 212.607 264.642 213.12C263.423 213.644 262.118 213.906 260.728 213.906C259.349 213.906 258.079 213.644 256.917 213.12C255.766 212.607 254.769 211.906 253.926 211.018C253.095 210.129 252.445 209.092 251.978 207.907C251.511 206.711 251.277 205.435 251.277 204.079C251.277 202.404 251.511 200.952 251.978 199.721C252.445 198.491 253.095 197.471 253.926 196.662C254.769 195.853 255.766 195.255 256.917 194.868C258.079 194.469 259.349 194.27 260.728 194.27C262.118 194.27 263.423 194.492 264.642 194.936C265.872 195.38 266.943 196.024 267.854 196.867C268.766 197.71 269.484 198.741 270.008 199.96C270.543 201.168 270.811 202.541 270.811 204.079ZM303.606 188.288C303.344 192.367 303.156 196.503 303.042 200.695C302.929 204.877 302.872 209.035 302.872 213.171H297.181L297.283 211.257C296.736 211.781 296.132 212.185 295.472 212.47C294.811 212.755 294.184 212.96 293.592 213.085C292.897 213.234 292.202 213.319 291.507 213.342C290.208 213.342 289.035 213.108 287.986 212.641C286.95 212.174 286.067 211.519 285.337 210.676C284.62 209.833 284.067 208.819 283.68 207.634C283.292 206.449 283.099 205.144 283.099 203.72C283.099 202.775 283.213 201.897 283.44 201.088C283.668 200.279 283.982 199.545 284.38 198.884C284.779 198.223 285.246 197.642 285.782 197.141C286.317 196.639 286.887 196.218 287.491 195.876C288.095 195.534 288.721 195.278 289.371 195.107C290.02 194.925 290.664 194.833 291.302 194.833C292.088 194.856 292.857 194.959 293.609 195.141C293.928 195.221 294.258 195.323 294.6 195.449C294.942 195.563 295.278 195.705 295.608 195.876C295.95 196.047 296.275 196.246 296.583 196.474C296.902 196.702 297.192 196.97 297.454 197.277C297.42 195.694 297.38 194.127 297.334 192.578C297.289 191.017 297.238 189.462 297.181 187.912L303.606 188.288ZM295.215 208.864C295.534 208.864 295.87 208.864 296.224 208.864C296.588 208.864 296.964 208.853 297.352 208.83C297.409 207.657 297.443 206.477 297.454 205.292C297.477 204.096 297.488 202.894 297.488 201.687V199.602C296.634 199.51 295.842 199.436 295.113 199.379C294.395 199.311 293.626 199.277 292.806 199.277C292.373 199.277 291.923 199.288 291.456 199.311C291 199.322 290.493 199.345 289.935 199.379C289.786 200.405 289.678 201.424 289.61 202.438C289.542 203.452 289.507 204.478 289.507 205.515C289.507 206.027 289.507 206.534 289.507 207.036C289.519 207.537 289.553 208.044 289.61 208.557C290.18 208.614 290.704 208.659 291.182 208.693C291.672 208.728 292.139 208.762 292.583 208.796C293.039 208.819 293.478 208.836 293.899 208.847C294.332 208.859 294.771 208.864 295.215 208.864ZM325.396 204.985L312.032 206.062C312.089 206.768 312.168 207.469 312.271 208.164C312.374 208.859 312.505 209.559 312.664 210.266C313.667 210.334 314.635 210.368 315.569 210.368C316.082 210.368 316.578 210.362 317.056 210.351C317.535 210.328 318.03 210.3 318.543 210.266C318.566 210.038 318.583 209.81 318.594 209.582C318.606 209.354 318.611 209.126 318.611 208.898C318.611 208.693 318.606 208.494 318.594 208.3C318.594 208.095 318.577 207.89 318.543 207.685L324.986 207.822C324.667 208.904 324.205 209.833 323.602 210.607C323.009 211.382 322.303 212.02 321.482 212.521C320.674 213.011 319.768 213.37 318.765 213.598C317.763 213.826 316.709 213.94 315.604 213.94C314.248 213.94 312.972 213.758 311.775 213.393C310.59 213.028 309.554 212.442 308.665 211.633C307.788 210.812 307.093 209.747 306.58 208.437C306.079 207.127 305.828 205.52 305.828 203.618C305.828 202.08 306.096 200.758 306.631 199.653C307.167 198.548 307.879 197.636 308.768 196.918C309.668 196.201 310.704 195.677 311.878 195.346C313.063 195.004 314.305 194.833 315.604 194.833C316.959 194.833 318.23 195.016 319.415 195.38C320.611 195.745 321.648 196.315 322.525 197.089C323.414 197.864 324.114 198.855 324.627 200.063C325.14 201.271 325.396 202.712 325.396 204.387V204.985ZM311.861 202.473H318.714C318.714 201.06 318.571 199.715 318.287 198.439C317.307 198.234 316.281 198.132 315.21 198.132C314.162 198.132 313.103 198.234 312.032 198.439C311.963 199.077 311.918 199.727 311.895 200.388C311.872 201.037 311.861 201.732 311.861 202.473ZM96.7681 263.564C96.7681 263.234 96.7624 262.903 96.751 262.573C96.7396 262.231 96.7339 261.895 96.7339 261.564C96.13 262.111 95.4977 262.527 94.8369 262.812C94.1875 263.085 93.5894 263.291 93.0425 263.427C92.4045 263.587 91.7721 263.678 91.1455 263.701C90.0062 263.701 88.9067 263.524 87.8472 263.171C86.799 262.829 85.8647 262.311 85.0444 261.616C84.2241 260.921 83.5576 260.055 83.0449 259.018C82.5436 257.97 82.2645 256.757 82.2075 255.378C82.2075 253.988 82.3955 252.723 82.7715 251.584C83.1475 250.433 83.7114 249.448 84.4634 248.627C85.2153 247.807 86.1496 247.175 87.2661 246.73C88.3826 246.275 89.6758 246.041 91.1455 246.03C91.1911 246.03 91.362 246.041 91.6582 246.064C91.9658 246.075 92.3418 246.127 92.7861 246.218C93.2305 246.298 93.7147 246.434 94.2388 246.628C94.7629 246.81 95.2812 247.067 95.7939 247.397L95.5205 245.295L102.271 244.833C102.134 248.103 102.066 251.356 102.066 254.592C102.066 255.378 102.066 256.124 102.066 256.831C102.077 257.526 102.089 258.221 102.1 258.916C102.123 259.599 102.146 260.294 102.168 261C102.203 261.695 102.237 262.43 102.271 263.205L96.7681 263.564ZM88.7871 259.428C90.1429 259.371 91.4759 259.28 92.7861 259.155C94.0964 259.029 95.3895 258.841 96.6655 258.591C96.6313 257.178 96.5687 255.811 96.4775 254.489C96.3978 253.168 96.2839 251.818 96.1357 250.439H95.1616C94.0565 250.439 92.9456 250.479 91.8291 250.559C90.724 250.627 89.6074 250.747 88.4795 250.917C88.3428 252.114 88.2744 253.316 88.2744 254.523C88.2744 254.979 88.2858 255.406 88.3086 255.805C88.3314 256.193 88.3599 256.58 88.394 256.967C88.4396 257.355 88.4909 257.748 88.5479 258.146C88.6162 258.545 88.696 258.972 88.7871 259.428ZM124.505 244.833C124.334 248.331 124.197 251.328 124.095 253.823C124.004 256.318 123.935 258.363 123.89 259.958C123.833 261.838 123.793 263.387 123.77 264.606C123.713 266.053 123.394 267.301 122.813 268.349C122.243 269.397 121.497 270.269 120.574 270.964C119.663 271.659 118.62 272.189 117.447 272.553C116.285 272.918 115.077 273.14 113.824 273.22C112.559 273.22 111.403 273.066 110.354 272.758C109.318 272.451 108.412 272.018 107.637 271.459C106.874 270.901 106.247 270.24 105.757 269.477C105.279 268.714 104.971 267.871 104.834 266.948L111.773 266.469C111.659 266.765 111.585 267.067 111.551 267.375C111.528 267.683 111.517 267.996 111.517 268.315C111.517 268.6 111.528 268.89 111.551 269.187C111.585 269.483 111.659 269.779 111.773 270.075C111.932 270.098 112.092 270.109 112.251 270.109C112.411 270.109 112.576 270.109 112.747 270.109C114.376 270.109 115.988 269.933 117.583 269.58C117.686 268.304 117.771 267.033 117.84 265.769C117.908 264.515 117.971 263.256 118.028 261.992C117.481 262.333 116.923 262.596 116.353 262.778C115.783 262.949 115.259 263.08 114.781 263.171C114.222 263.273 113.676 263.33 113.14 263.342C112.502 263.342 111.858 263.251 111.209 263.068C110.56 262.897 109.933 262.641 109.329 262.299C108.725 261.958 108.156 261.536 107.62 261.035C107.085 260.533 106.618 259.952 106.219 259.292C105.82 258.631 105.507 257.902 105.279 257.104C105.051 256.295 104.937 255.412 104.937 254.455C104.937 253.031 105.125 251.732 105.501 250.559C105.888 249.374 106.441 248.36 107.159 247.517C107.876 246.662 108.754 246.001 109.791 245.534C110.827 245.067 112.001 244.833 113.311 244.833C113.847 244.845 114.393 244.902 114.952 245.004C115.43 245.096 115.954 245.238 116.524 245.432C117.094 245.614 117.64 245.882 118.165 246.235C118.165 245.939 118.159 245.637 118.147 245.329C118.136 245.021 118.13 244.72 118.13 244.423L124.505 244.833ZM118.25 252.541C118.25 252.006 118.244 251.476 118.233 250.952C118.233 250.416 118.222 249.881 118.199 249.345C117.994 249.322 117.789 249.311 117.583 249.311C117.378 249.311 117.179 249.311 116.985 249.311C116.552 249.311 116.125 249.317 115.704 249.328C115.282 249.34 114.849 249.362 114.405 249.396C113.96 249.419 113.493 249.453 113.003 249.499C112.514 249.533 111.984 249.579 111.414 249.636C111.38 250.16 111.351 250.673 111.329 251.174C111.317 251.664 111.312 252.165 111.312 252.678C111.312 253.715 111.351 254.74 111.431 255.754C111.511 256.757 111.625 257.771 111.773 258.796C112.32 258.83 112.821 258.859 113.277 258.881C113.733 258.893 114.177 258.898 114.61 258.898C115.236 258.898 115.829 258.887 116.387 258.864C116.945 258.841 117.538 258.796 118.165 258.728C118.187 257.691 118.204 256.66 118.216 255.634C118.239 254.609 118.25 253.578 118.25 252.541ZM146.482 254.985L133.118 256.062C133.175 256.768 133.255 257.469 133.357 258.164C133.46 258.859 133.591 259.559 133.75 260.266C134.753 260.334 135.722 260.368 136.656 260.368C137.168 260.368 137.664 260.362 138.143 260.351C138.621 260.328 139.117 260.3 139.629 260.266C139.652 260.038 139.669 259.81 139.681 259.582C139.692 259.354 139.698 259.126 139.698 258.898C139.698 258.693 139.692 258.494 139.681 258.3C139.681 258.095 139.664 257.89 139.629 257.685L146.072 257.822C145.753 258.904 145.292 259.833 144.688 260.607C144.096 261.382 143.389 262.02 142.569 262.521C141.76 263.011 140.854 263.37 139.852 263.598C138.849 263.826 137.795 263.94 136.69 263.94C135.334 263.94 134.058 263.758 132.862 263.393C131.677 263.028 130.64 262.442 129.751 261.633C128.874 260.812 128.179 259.747 127.667 258.437C127.165 257.127 126.915 255.52 126.915 253.618C126.915 252.08 127.182 250.758 127.718 249.653C128.253 248.548 128.965 247.636 129.854 246.918C130.754 246.201 131.791 245.677 132.964 245.346C134.149 245.004 135.391 244.833 136.69 244.833C138.046 244.833 139.316 245.016 140.501 245.38C141.697 245.745 142.734 246.315 143.611 247.089C144.5 247.864 145.201 248.855 145.713 250.063C146.226 251.271 146.482 252.712 146.482 254.387V254.985ZM132.947 252.473H139.8C139.8 251.06 139.658 249.715 139.373 248.439C138.393 248.234 137.368 248.132 136.297 248.132C135.249 248.132 134.189 248.234 133.118 248.439C133.05 249.077 133.004 249.727 132.981 250.388C132.959 251.037 132.947 251.732 132.947 252.473ZM167.366 254.079C167.366 255.594 167.286 257.138 167.127 258.71C166.967 260.283 166.694 261.855 166.307 263.427H160.359C160.507 261.73 160.621 260.055 160.701 258.403C160.781 256.739 160.821 255.065 160.821 253.378C160.821 252.809 160.821 252.245 160.821 251.687C160.821 251.117 160.809 250.547 160.787 249.978C160.274 249.921 159.767 249.886 159.266 249.875C158.764 249.852 158.257 249.841 157.745 249.841C156.776 249.841 155.779 249.875 154.754 249.943C154.72 250.878 154.691 251.743 154.668 252.541C154.657 253.339 154.651 254.13 154.651 254.917C154.651 255.498 154.657 256.09 154.668 256.694C154.68 257.286 154.697 257.924 154.72 258.608C154.754 259.292 154.794 260.032 154.839 260.83C154.885 261.616 154.942 262.482 155.01 263.427H149.268C149.268 262.06 149.262 260.852 149.251 259.804C149.24 258.756 149.222 257.793 149.2 256.916C149.177 256.027 149.143 255.184 149.097 254.387C149.063 253.578 149.017 252.735 148.96 251.857C148.903 250.969 148.841 250.006 148.772 248.969C148.704 247.921 148.624 246.719 148.533 245.363L155.01 244.97L154.874 247.397C155.523 246.941 156.189 246.588 156.873 246.337C157.557 246.087 158.183 245.899 158.753 245.773C159.414 245.637 160.057 245.557 160.684 245.534C161.516 245.534 162.256 245.648 162.906 245.876C163.567 246.104 164.142 246.423 164.632 246.833C165.133 247.232 165.555 247.705 165.896 248.251C166.238 248.798 166.517 249.391 166.734 250.029C166.962 250.655 167.121 251.316 167.212 252.011C167.315 252.706 167.366 253.396 167.366 254.079ZM190.181 238.288C189.919 242.367 189.731 246.503 189.617 250.695C189.503 254.877 189.446 259.035 189.446 263.171H183.755L183.858 261.257C183.311 261.781 182.707 262.185 182.046 262.47C181.386 262.755 180.759 262.96 180.167 263.085C179.472 263.234 178.777 263.319 178.082 263.342C176.783 263.342 175.609 263.108 174.561 262.641C173.524 262.174 172.641 261.519 171.912 260.676C171.194 259.833 170.642 258.819 170.254 257.634C169.867 256.449 169.673 255.144 169.673 253.72C169.673 252.775 169.787 251.897 170.015 251.088C170.243 250.279 170.556 249.545 170.955 248.884C171.354 248.223 171.821 247.642 172.356 247.141C172.892 246.639 173.462 246.218 174.065 245.876C174.669 245.534 175.296 245.278 175.945 245.107C176.595 244.925 177.238 244.833 177.876 244.833C178.663 244.856 179.432 244.959 180.184 245.141C180.503 245.221 180.833 245.323 181.175 245.449C181.517 245.563 181.853 245.705 182.183 245.876C182.525 246.047 182.85 246.246 183.157 246.474C183.476 246.702 183.767 246.97 184.029 247.277C183.995 245.694 183.955 244.127 183.909 242.578C183.864 241.017 183.812 239.462 183.755 237.912L190.181 238.288ZM181.79 258.864C182.109 258.864 182.445 258.864 182.798 258.864C183.163 258.864 183.539 258.853 183.926 258.83C183.983 257.657 184.017 256.477 184.029 255.292C184.052 254.096 184.063 252.894 184.063 251.687V249.602C183.208 249.51 182.417 249.436 181.688 249.379C180.97 249.311 180.201 249.277 179.38 249.277C178.947 249.277 178.497 249.288 178.03 249.311C177.575 249.322 177.068 249.345 176.509 249.379C176.361 250.405 176.253 251.424 176.185 252.438C176.116 253.452 176.082 254.478 176.082 255.515C176.082 256.027 176.082 256.534 176.082 257.036C176.093 257.537 176.128 258.044 176.185 258.557C176.754 258.614 177.278 258.659 177.757 258.693C178.247 258.728 178.714 258.762 179.158 258.796C179.614 258.819 180.053 258.836 180.474 258.847C180.907 258.859 181.346 258.864 181.79 258.864ZM206.963 263.564C206.963 263.234 206.958 262.903 206.946 262.573C206.935 262.231 206.929 261.895 206.929 261.564C206.325 262.111 205.693 262.527 205.032 262.812C204.383 263.085 203.785 263.291 203.238 263.427C202.6 263.587 201.967 263.678 201.341 263.701C200.201 263.701 199.102 263.524 198.042 263.171C196.994 262.829 196.06 262.311 195.24 261.616C194.419 260.921 193.753 260.055 193.24 259.018C192.739 257.97 192.46 256.757 192.403 255.378C192.403 253.988 192.591 252.723 192.967 251.584C193.343 250.433 193.907 249.448 194.659 248.627C195.411 247.807 196.345 247.175 197.461 246.73C198.578 246.275 199.871 246.041 201.341 246.03C201.386 246.03 201.557 246.041 201.854 246.064C202.161 246.075 202.537 246.127 202.981 246.218C203.426 246.298 203.91 246.434 204.434 246.628C204.958 246.81 205.477 247.067 205.989 247.397L205.716 245.295L212.466 244.833C212.33 248.103 212.261 251.356 212.261 254.592C212.261 255.378 212.261 256.124 212.261 256.831C212.273 257.526 212.284 258.221 212.295 258.916C212.318 259.599 212.341 260.294 212.364 261C212.398 261.695 212.432 262.43 212.466 263.205L206.963 263.564ZM198.982 259.428C200.338 259.371 201.671 259.28 202.981 259.155C204.292 259.029 205.585 258.841 206.861 258.591C206.827 257.178 206.764 255.811 206.673 254.489C206.593 253.168 206.479 251.818 206.331 250.439H205.357C204.252 250.439 203.141 250.479 202.024 250.559C200.919 250.627 199.803 250.747 198.675 250.917C198.538 252.114 198.47 253.316 198.47 254.523C198.47 254.979 198.481 255.406 198.504 255.805C198.527 256.193 198.555 256.58 198.589 256.967C198.635 257.355 198.686 257.748 198.743 258.146C198.812 258.545 198.891 258.972 198.982 259.428ZM233.23 254.523C233.23 255.97 233.145 257.44 232.974 258.933C232.803 260.425 232.541 261.923 232.188 263.427H226.241C226.377 261.821 226.486 260.226 226.565 258.642C226.645 257.058 226.685 255.463 226.685 253.857C226.685 253.31 226.685 252.769 226.685 252.233C226.685 251.698 226.674 251.168 226.651 250.644C226.138 250.587 225.631 250.553 225.13 250.542C224.64 250.519 224.133 250.507 223.609 250.507C223.313 250.507 223.011 250.513 222.703 250.524C222.407 250.536 222.099 250.542 221.78 250.542C221.746 251.35 221.723 252.108 221.712 252.814C221.712 253.509 221.712 254.21 221.712 254.917C221.712 255.498 221.718 256.09 221.729 256.694C221.74 257.286 221.757 257.924 221.78 258.608C221.814 259.292 221.854 260.032 221.9 260.83C221.945 261.616 222.002 262.482 222.071 263.427H216.329C216.329 262.06 216.323 260.852 216.312 259.804C216.3 258.756 216.283 257.793 216.26 256.916C216.237 256.027 216.203 255.184 216.158 254.387C216.124 253.578 216.078 252.735 216.021 251.857C215.964 250.969 215.901 250.006 215.833 248.969C215.765 247.921 215.685 246.719 215.594 245.363L222.071 244.97L221.934 247.5C222.504 247.226 223.062 247.015 223.609 246.867C224.156 246.719 224.646 246.611 225.079 246.542C225.58 246.463 226.058 246.417 226.514 246.406C227.391 246.406 228.172 246.531 228.855 246.782C229.539 247.021 230.137 247.351 230.65 247.773C231.311 247.203 232.006 246.77 232.735 246.474C233.475 246.167 234.159 245.939 234.786 245.791C235.515 245.62 236.233 245.523 236.939 245.5C237.782 245.5 238.528 245.614 239.178 245.842C239.839 246.07 240.42 246.389 240.921 246.799C241.422 247.198 241.844 247.676 242.186 248.234C242.539 248.781 242.824 249.374 243.04 250.012C243.257 250.638 243.41 251.299 243.501 251.994C243.604 252.689 243.655 253.384 243.655 254.079C243.655 255.594 243.57 257.132 243.399 258.693C243.239 260.254 242.977 261.832 242.613 263.427H236.666C236.802 261.73 236.91 260.049 236.99 258.386C237.07 256.711 237.11 255.03 237.11 253.344C237.11 252.775 237.11 252.211 237.11 251.652C237.11 251.083 237.098 250.513 237.076 249.943C236.563 249.886 236.056 249.852 235.555 249.841C235.053 249.818 234.535 249.807 234 249.807C233.703 249.807 233.413 249.812 233.128 249.824C232.843 249.835 232.553 249.841 232.256 249.841C232.61 250.547 232.86 251.305 233.008 252.114C233.156 252.911 233.23 253.715 233.23 254.523ZM265.53 254.985L252.166 256.062C252.223 256.768 252.303 257.469 252.405 258.164C252.508 258.859 252.639 259.559 252.798 260.266C253.801 260.334 254.769 260.368 255.704 260.368C256.216 260.368 256.712 260.362 257.19 260.351C257.669 260.328 258.165 260.3 258.677 260.266C258.7 260.038 258.717 259.81 258.729 259.582C258.74 259.354 258.746 259.126 258.746 258.898C258.746 258.693 258.74 258.494 258.729 258.3C258.729 258.095 258.711 257.89 258.677 257.685L265.12 257.822C264.801 258.904 264.34 259.833 263.736 260.607C263.143 261.382 262.437 262.02 261.617 262.521C260.808 263.011 259.902 263.37 258.899 263.598C257.897 263.826 256.843 263.94 255.738 263.94C254.382 263.94 253.106 263.758 251.91 263.393C250.725 263.028 249.688 262.442 248.799 261.633C247.922 260.812 247.227 259.747 246.714 258.437C246.213 257.127 245.962 255.52 245.962 253.618C245.962 252.08 246.23 250.758 246.766 249.653C247.301 248.548 248.013 247.636 248.902 246.918C249.802 246.201 250.839 245.677 252.012 245.346C253.197 245.004 254.439 244.833 255.738 244.833C257.094 244.833 258.364 245.016 259.549 245.38C260.745 245.745 261.782 246.315 262.659 247.089C263.548 247.864 264.249 248.855 264.761 250.063C265.274 251.271 265.53 252.712 265.53 254.387V254.985ZM251.995 252.473H258.848C258.848 251.06 258.706 249.715 258.421 248.439C257.441 248.234 256.416 248.132 255.345 248.132C254.297 248.132 253.237 248.234 252.166 248.439C252.098 249.077 252.052 249.727 252.029 250.388C252.007 251.037 251.995 251.732 251.995 252.473ZM286.414 254.079C286.414 255.594 286.334 257.138 286.175 258.71C286.015 260.283 285.742 261.855 285.354 263.427H279.407C279.555 261.73 279.669 260.055 279.749 258.403C279.829 256.739 279.869 255.065 279.869 253.378C279.869 252.809 279.869 252.245 279.869 251.687C279.869 251.117 279.857 250.547 279.834 249.978C279.322 249.921 278.815 249.886 278.313 249.875C277.812 249.852 277.305 249.841 276.792 249.841C275.824 249.841 274.827 249.875 273.802 249.943C273.768 250.878 273.739 251.743 273.716 252.541C273.705 253.339 273.699 254.13 273.699 254.917C273.699 255.498 273.705 256.09 273.716 256.694C273.728 257.286 273.745 257.924 273.768 258.608C273.802 259.292 273.842 260.032 273.887 260.83C273.933 261.616 273.99 262.482 274.058 263.427H268.316C268.316 262.06 268.31 260.852 268.299 259.804C268.287 258.756 268.27 257.793 268.248 256.916C268.225 256.027 268.191 255.184 268.145 254.387C268.111 253.578 268.065 252.735 268.008 251.857C267.951 250.969 267.889 250.006 267.82 248.969C267.752 247.921 267.672 246.719 267.581 245.363L274.058 244.97L273.921 247.397C274.571 246.941 275.237 246.588 275.921 246.337C276.604 246.087 277.231 245.899 277.801 245.773C278.462 245.637 279.105 245.557 279.732 245.534C280.564 245.534 281.304 245.648 281.954 245.876C282.614 246.104 283.19 246.423 283.68 246.833C284.181 247.232 284.603 247.705 284.944 248.251C285.286 248.798 285.565 249.391 285.782 250.029C286.01 250.655 286.169 251.316 286.26 252.011C286.363 252.706 286.414 253.396 286.414 254.079ZM305.452 249.978C304.347 249.921 303.236 249.869 302.12 249.824C301.014 249.778 299.909 249.738 298.804 249.704C298.667 251.971 298.548 254.233 298.445 256.489C298.343 258.745 298.263 261.018 298.206 263.308L293.216 263.803C293.284 259.633 293.318 255.503 293.318 251.413V249.602H292.088C291.404 249.602 290.721 249.607 290.037 249.619C289.354 249.63 288.67 249.636 287.986 249.636V245.295C288.283 245.295 288.579 245.301 288.875 245.312C289.183 245.323 289.496 245.329 289.815 245.329H293.284C293.284 244.27 293.278 243.227 293.267 242.202C293.256 241.165 293.239 240.128 293.216 239.091H299.693C299.579 240.117 299.476 241.136 299.385 242.15C299.306 243.153 299.231 244.156 299.163 245.158C300.223 245.113 301.265 245.067 302.291 245.021C303.327 244.965 304.381 244.902 305.452 244.833V249.978ZM319.927 259.462C319.996 258.494 320.041 257.554 320.064 256.643C320.098 255.731 320.115 254.831 320.115 253.942C320.115 253.02 320.098 252.114 320.064 251.225C320.041 250.325 319.996 249.396 319.927 248.439C319.54 248.382 319.153 248.348 318.765 248.337C318.389 248.314 318.007 248.303 317.62 248.303C316.025 248.303 314.487 248.479 313.006 248.833C312.972 249.448 312.938 250.057 312.903 250.661C312.881 251.265 312.869 251.869 312.869 252.473C312.869 253.68 312.915 254.888 313.006 256.096C313.108 257.292 313.257 258.545 313.45 259.855C313.712 259.878 313.974 259.89 314.236 259.89C314.51 259.89 314.789 259.89 315.074 259.89C315.86 259.89 316.657 259.855 317.466 259.787C318.287 259.719 319.107 259.611 319.927 259.462ZM326.268 254.079C326.268 255.435 326 256.711 325.464 257.907C324.94 259.092 324.222 260.129 323.311 261.018C322.4 261.906 321.329 262.607 320.098 263.12C318.879 263.644 317.575 263.906 316.185 263.906C314.806 263.906 313.536 263.644 312.374 263.12C311.223 262.607 310.226 261.906 309.383 261.018C308.551 260.129 307.902 259.092 307.435 257.907C306.967 256.711 306.734 255.435 306.734 254.079C306.734 252.404 306.967 250.952 307.435 249.721C307.902 248.491 308.551 247.471 309.383 246.662C310.226 245.853 311.223 245.255 312.374 244.868C313.536 244.469 314.806 244.27 316.185 244.27C317.575 244.27 318.879 244.492 320.098 244.936C321.329 245.38 322.4 246.024 323.311 246.867C324.222 247.71 324.94 248.741 325.464 249.96C326 251.168 326.268 252.541 326.268 254.079ZM346.827 259.018C346.827 260.021 346.57 260.858 346.058 261.53C345.545 262.191 344.873 262.721 344.041 263.12C343.209 263.53 342.264 263.815 341.204 263.974C340.145 264.145 339.068 264.23 337.974 264.23C337.37 264.23 336.721 264.191 336.026 264.111C335.342 264.042 334.653 263.911 333.958 263.718C333.263 263.535 332.585 263.291 331.924 262.983C331.275 262.664 330.682 262.265 330.147 261.787C329.611 261.308 329.15 260.744 328.763 260.095C328.387 259.445 328.13 258.688 327.994 257.822L334.932 257.753L335.206 260.727H340.521L340.914 257.292C340.207 257.132 339.398 256.996 338.487 256.882C337.575 256.768 336.641 256.631 335.684 256.472C334.727 256.301 333.787 256.084 332.864 255.822C331.941 255.56 331.121 255.201 330.403 254.746C329.686 254.29 329.104 253.715 328.66 253.02C328.216 252.325 327.994 251.464 327.994 250.439C327.994 249.334 328.261 248.405 328.797 247.653C329.332 246.89 330.033 246.28 330.899 245.825C331.776 245.358 332.767 245.016 333.873 244.799C334.978 244.583 336.1 244.458 337.239 244.423C337.843 244.423 338.493 244.458 339.188 244.526C339.894 244.594 340.595 244.72 341.29 244.902C341.985 245.073 342.651 245.312 343.289 245.62C343.938 245.927 344.514 246.32 345.015 246.799C345.528 247.266 345.944 247.836 346.263 248.508C346.593 249.169 346.781 249.949 346.827 250.849L340.11 251.14V247.773H334.334V252.319C335.075 252.478 335.901 252.604 336.812 252.695C337.723 252.775 338.641 252.883 339.563 253.02C340.486 253.156 341.381 253.344 342.247 253.583C343.124 253.823 343.899 254.165 344.571 254.609C345.254 255.053 345.801 255.629 346.211 256.335C346.622 257.041 346.827 257.936 346.827 259.018Z" fill="black"/>
<path d="M106.088 26.0341C112.508 26.0341 117.713 20.2062 117.713 13.0171C117.713 5.82794 112.508 0 106.088 0C99.6685 0 94.4641 5.82794 94.4641 13.0171C94.4641 20.2062 99.6685 26.0341 106.088 26.0341Z" fill="black"/>
<path d="M106.088 91.1195C112.508 91.1195 117.713 85.2915 117.713 78.1024C117.713 70.9133 112.508 65.0853 106.088 65.0853C99.6685 65.0853 94.4641 70.9133 94.4641 78.1024C94.4641 85.2915 99.6685 91.1195 106.088 91.1195Z" fill="black"/>
<path d="M106.088 156.205C112.508 156.205 117.713 150.377 117.713 143.188C117.713 135.999 112.508 130.171 106.088 130.171C99.6685 130.171 94.4641 135.999 94.4641 143.188C94.4641 150.377 99.6685 156.205 106.088 156.205Z" fill="black"/>
<path d="M292.775 65.0853H151.888C145.854 65.0853 140.961 70.5636 140.961 77.3214V78.8834C140.961 85.6412 145.854 91.1195 151.888 91.1195H292.775C298.81 91.1195 303.702 85.6412 303.702 78.8834V77.3214C303.702 70.5636 298.81 65.0853 292.775 65.0853Z" fill="black"/>
<path d="M292.775 130.171H151.888C145.854 130.171 140.961 135.649 140.961 142.407V143.969C140.961 150.727 145.854 156.205 151.888 156.205H292.775C298.81 156.205 303.702 150.727 303.702 143.969V142.407C303.702 135.649 298.81 130.171 292.775 130.171Z" fill="black"/>
<path d="M292.775 0H151.888C145.854 0 140.961 5.47827 140.961 12.2361V13.7981C140.961 20.5559 145.854 26.0341 151.888 26.0341H292.775C298.81 26.0341 303.702 20.5559 303.702 13.7981V12.2361C303.702 5.47827 298.81 0 292.775 0Z" fill="black"/>
</svg>
