<svg width="429" height="380" viewBox="0 0 429 380" fill="none" xmlns="http://www.w3.org/2000/svg">
<path d="M85.8135 256.042C84.9704 255.928 84.2298 255.826 83.5918 255.735C82.9652 255.655 82.3727 255.587 81.8145 255.53C81.2676 255.484 80.7321 255.45 80.208 255.427C79.6839 255.404 79.1143 255.393 78.499 255.393C78.7952 254.402 79.0459 253.388 79.251 252.351C79.4674 251.314 79.6383 250.249 79.7637 249.155C79.0801 249.132 78.3794 249.115 77.6616 249.104C76.9438 249.093 76.2318 249.087 75.5254 249.087C74.0785 249.087 72.6885 249.121 71.3555 249.189C71.4124 250.215 71.4922 251.24 71.5947 252.266C71.6973 253.28 71.8283 254.294 71.9878 255.308C71.1789 255.365 70.4554 255.416 69.8174 255.461C69.1794 255.507 68.6154 255.547 68.1255 255.581C67.6356 255.627 67.214 255.666 66.8608 255.701C66.5076 255.746 66.2057 255.786 65.9551 255.82C65.374 255.9 64.981 255.974 64.7759 256.042C64.6278 255.302 64.5024 254.521 64.3999 253.701C64.3088 252.881 64.2347 252.066 64.1777 251.257C64.1322 250.437 64.098 249.639 64.0752 248.865C64.0524 248.09 64.041 247.372 64.041 246.711C64.041 245.333 64.0923 243.949 64.1948 242.559C64.3088 241.169 64.5138 239.83 64.8101 238.542C65.1177 237.255 65.5392 236.059 66.0747 234.954C66.6102 233.837 67.3109 232.869 68.1768 232.048C69.0426 231.217 70.0908 230.567 71.3213 230.1C72.5518 229.622 74.0101 229.382 75.6963 229.382C77.4281 229.382 79.0174 229.65 80.4644 230.185C81.9113 230.71 83.1532 231.524 84.1899 232.629C85.2381 233.734 86.047 235.142 86.6167 236.851C87.1978 238.548 87.4883 240.57 87.4883 242.917C87.4883 243.521 87.4712 244.273 87.437 245.173C87.4142 246.073 87.3459 247.087 87.2319 248.215C87.118 249.343 86.9471 250.574 86.7192 251.907C86.5028 253.228 86.2008 254.607 85.8135 256.042ZM74.3291 244.746C75.3203 244.746 76.3058 244.729 77.2856 244.695C78.2769 244.649 79.2168 244.575 80.1055 244.473C80.1283 244.211 80.1396 243.949 80.1396 243.686C80.1396 243.413 80.1396 243.134 80.1396 242.849C80.1396 241.117 80.0599 239.448 79.9004 237.842C79.7523 236.235 79.5301 234.743 79.2339 233.364C78.9718 233.341 78.6813 233.324 78.3623 233.313C78.0547 233.302 77.7243 233.296 77.3711 233.296C76.904 233.296 76.4198 233.307 75.9185 233.33C75.4285 233.341 74.9443 233.364 74.4658 233.398C73.9987 233.421 73.5487 233.455 73.1157 233.501C72.6828 233.546 72.3068 233.598 71.9878 233.655C71.7371 235.466 71.5492 237.289 71.4238 239.123C71.3099 240.946 71.2529 242.798 71.2529 244.678C71.7428 244.712 72.2441 244.735 72.7568 244.746C73.2809 244.746 73.805 244.746 74.3291 244.746ZM109.432 236.833C109.261 240.331 109.124 243.328 109.021 245.823C108.93 248.318 108.862 250.363 108.816 251.958C108.759 253.838 108.72 255.387 108.697 256.606C108.64 258.053 108.321 259.301 107.74 260.349C107.17 261.397 106.424 262.269 105.501 262.964C104.59 263.659 103.547 264.189 102.374 264.553C101.211 264.918 100.004 265.14 98.7505 265.22C97.4858 265.22 96.3294 265.066 95.2812 264.758C94.2445 264.451 93.3387 264.018 92.564 263.459C91.8006 262.901 91.174 262.24 90.6841 261.477C90.2056 260.714 89.8979 259.871 89.7612 258.948L96.6997 258.469C96.5858 258.765 96.5117 259.067 96.4775 259.375C96.4548 259.683 96.4434 259.996 96.4434 260.315C96.4434 260.6 96.4548 260.89 96.4775 261.186C96.5117 261.483 96.5858 261.779 96.6997 262.075C96.8592 262.098 97.0187 262.109 97.1782 262.109C97.3377 262.109 97.5029 262.109 97.6738 262.109C99.3031 262.109 100.915 261.933 102.51 261.58C102.613 260.303 102.698 259.033 102.767 257.768C102.835 256.515 102.898 255.256 102.955 253.992C102.408 254.333 101.849 254.595 101.28 254.778C100.71 254.949 100.186 255.08 99.7075 255.171C99.1493 255.273 98.6024 255.33 98.0669 255.342C97.4289 255.342 96.7852 255.251 96.1357 255.068C95.4863 254.897 94.8597 254.641 94.2559 254.299C93.652 253.957 93.0824 253.536 92.5469 253.035C92.0114 252.533 91.5443 251.952 91.1455 251.291C90.7467 250.631 90.4334 249.901 90.2056 249.104C89.9777 248.295 89.8638 247.412 89.8638 246.455C89.8638 245.031 90.0518 243.732 90.4277 242.559C90.8151 241.374 91.3677 240.36 92.0854 239.517C92.8032 238.662 93.6805 238.001 94.7173 237.534C95.7541 237.067 96.9276 236.833 98.2378 236.833C98.7733 236.845 99.3201 236.902 99.8784 237.004C100.357 237.095 100.881 237.238 101.451 237.432C102.02 237.614 102.567 237.882 103.091 238.235C103.091 237.939 103.086 237.637 103.074 237.329C103.063 237.021 103.057 236.72 103.057 236.423L109.432 236.833ZM103.177 244.541C103.177 244.005 103.171 243.476 103.16 242.952C103.16 242.416 103.148 241.881 103.125 241.345C102.92 241.322 102.715 241.311 102.51 241.311C102.305 241.311 102.106 241.311 101.912 241.311C101.479 241.311 101.052 241.317 100.63 241.328C100.209 241.339 99.7759 241.362 99.3315 241.396C98.8872 241.419 98.4201 241.453 97.9302 241.499C97.4403 241.533 96.9105 241.579 96.3408 241.636C96.3066 242.16 96.2782 242.672 96.2554 243.174C96.244 243.664 96.2383 244.165 96.2383 244.678C96.2383 245.714 96.2782 246.74 96.3579 247.754C96.4377 248.756 96.5516 249.77 96.6997 250.796C97.2466 250.83 97.7479 250.859 98.2036 250.881C98.6593 250.893 99.1037 250.898 99.5366 250.898C100.163 250.898 100.756 250.887 101.314 250.864C101.872 250.841 102.465 250.796 103.091 250.727C103.114 249.691 103.131 248.66 103.143 247.634C103.165 246.609 103.177 245.578 103.177 244.541ZM131.409 246.985L118.045 248.061C118.102 248.768 118.182 249.469 118.284 250.164C118.387 250.859 118.518 251.559 118.677 252.266C119.68 252.334 120.648 252.368 121.583 252.368C122.095 252.368 122.591 252.362 123.069 252.351C123.548 252.328 124.043 252.3 124.556 252.266C124.579 252.038 124.596 251.81 124.607 251.582C124.619 251.354 124.625 251.126 124.625 250.898C124.625 250.693 124.619 250.494 124.607 250.3C124.607 250.095 124.59 249.89 124.556 249.685L130.999 249.822C130.68 250.904 130.219 251.833 129.615 252.607C129.022 253.382 128.316 254.02 127.496 254.521C126.687 255.011 125.781 255.37 124.778 255.598C123.776 255.826 122.722 255.94 121.617 255.94C120.261 255.94 118.985 255.758 117.789 255.393C116.604 255.028 115.567 254.442 114.678 253.633C113.801 252.812 113.106 251.747 112.593 250.437C112.092 249.127 111.841 247.52 111.841 245.618C111.841 244.08 112.109 242.758 112.645 241.653C113.18 240.548 113.892 239.636 114.781 238.918C115.681 238.201 116.718 237.677 117.891 237.346C119.076 237.004 120.318 236.833 121.617 236.833C122.972 236.833 124.243 237.016 125.428 237.38C126.624 237.745 127.661 238.315 128.538 239.089C129.427 239.864 130.127 240.855 130.64 242.063C131.153 243.271 131.409 244.712 131.409 246.387V246.985ZM117.874 244.473H124.727C124.727 243.06 124.585 241.715 124.3 240.439C123.32 240.234 122.295 240.132 121.224 240.132C120.175 240.132 119.116 240.234 118.045 240.439C117.977 241.077 117.931 241.727 117.908 242.388C117.885 243.037 117.874 243.732 117.874 244.473ZM152.293 246.079C152.293 247.594 152.213 249.138 152.054 250.71C151.894 252.283 151.621 253.855 151.233 255.427H145.286C145.434 253.73 145.548 252.055 145.628 250.403C145.708 248.739 145.748 247.065 145.748 245.378C145.748 244.809 145.748 244.245 145.748 243.686C145.748 243.117 145.736 242.547 145.713 241.977C145.201 241.921 144.694 241.886 144.192 241.875C143.691 241.852 143.184 241.841 142.671 241.841C141.703 241.841 140.706 241.875 139.681 241.943C139.646 242.878 139.618 243.743 139.595 244.541C139.584 245.338 139.578 246.13 139.578 246.916C139.578 247.497 139.584 248.09 139.595 248.694C139.607 249.286 139.624 249.924 139.646 250.608C139.681 251.291 139.721 252.032 139.766 252.83C139.812 253.616 139.869 254.482 139.937 255.427H134.195C134.195 254.06 134.189 252.852 134.178 251.804C134.166 250.756 134.149 249.793 134.126 248.916C134.104 248.027 134.069 247.184 134.024 246.387C133.99 245.578 133.944 244.735 133.887 243.857C133.83 242.969 133.768 242.006 133.699 240.969C133.631 239.921 133.551 238.719 133.46 237.363L139.937 236.97L139.8 239.397C140.45 238.941 141.116 238.588 141.8 238.337C142.483 238.087 143.11 237.899 143.68 237.773C144.34 237.637 144.984 237.557 145.611 237.534C146.443 237.534 147.183 237.648 147.833 237.876C148.493 238.104 149.069 238.423 149.559 238.833C150.06 239.232 150.481 239.705 150.823 240.251C151.165 240.798 151.444 241.391 151.661 242.029C151.889 242.655 152.048 243.316 152.139 244.011C152.242 244.706 152.293 245.395 152.293 246.079ZM175.108 230.288C174.846 234.367 174.658 238.503 174.544 242.695C174.43 246.877 174.373 251.035 174.373 255.171H168.682L168.785 253.257C168.238 253.781 167.634 254.185 166.973 254.47C166.312 254.755 165.686 254.96 165.093 255.085C164.398 255.234 163.703 255.319 163.008 255.342C161.709 255.342 160.536 255.108 159.488 254.641C158.451 254.174 157.568 253.519 156.839 252.676C156.121 251.833 155.569 250.819 155.181 249.634C154.794 248.449 154.6 247.144 154.6 245.72C154.6 244.775 154.714 243.897 154.942 243.088C155.17 242.279 155.483 241.545 155.882 240.884C156.281 240.223 156.748 239.642 157.283 239.141C157.819 238.639 158.388 238.218 158.992 237.876C159.596 237.534 160.223 237.278 160.872 237.107C161.521 236.925 162.165 236.833 162.803 236.833C163.589 236.856 164.358 236.959 165.11 237.141C165.429 237.221 165.76 237.323 166.102 237.449C166.443 237.563 166.779 237.705 167.11 237.876C167.452 238.047 167.776 238.246 168.084 238.474C168.403 238.702 168.694 238.97 168.956 239.277C168.921 237.694 168.882 236.127 168.836 234.578C168.79 233.017 168.739 231.462 168.682 229.912L175.108 230.288ZM166.717 250.864C167.036 250.864 167.372 250.864 167.725 250.864C168.09 250.864 168.466 250.853 168.853 250.83C168.91 249.657 168.944 248.477 168.956 247.292C168.978 246.096 168.99 244.894 168.99 243.686V241.602C168.135 241.51 167.343 241.436 166.614 241.379C165.896 241.311 165.127 241.277 164.307 241.277C163.874 241.277 163.424 241.288 162.957 241.311C162.501 241.322 161.994 241.345 161.436 241.379C161.288 242.405 161.18 243.424 161.111 244.438C161.043 245.452 161.009 246.478 161.009 247.515C161.009 248.027 161.009 248.534 161.009 249.036C161.02 249.537 161.054 250.044 161.111 250.557C161.681 250.614 162.205 250.659 162.684 250.693C163.174 250.727 163.641 250.762 164.085 250.796C164.541 250.819 164.979 250.836 165.401 250.847C165.834 250.859 166.272 250.864 166.717 250.864ZM191.89 255.564C191.89 255.234 191.884 254.903 191.873 254.573C191.862 254.231 191.856 253.895 191.856 253.564C191.252 254.111 190.62 254.527 189.959 254.812C189.31 255.085 188.711 255.29 188.165 255.427C187.527 255.587 186.894 255.678 186.268 255.701C185.128 255.701 184.029 255.524 182.969 255.171C181.921 254.829 180.987 254.311 180.167 253.616C179.346 252.921 178.68 252.055 178.167 251.018C177.666 249.97 177.387 248.756 177.33 247.378C177.33 245.988 177.518 244.723 177.894 243.584C178.27 242.433 178.833 241.448 179.585 240.627C180.337 239.807 181.272 239.175 182.388 238.73C183.505 238.275 184.798 238.041 186.268 238.03C186.313 238.03 186.484 238.041 186.78 238.064C187.088 238.075 187.464 238.127 187.908 238.218C188.353 238.297 188.837 238.434 189.361 238.628C189.885 238.81 190.403 239.067 190.916 239.397L190.643 237.295L197.393 236.833C197.256 240.103 197.188 243.356 197.188 246.592C197.188 247.378 197.188 248.124 197.188 248.831C197.199 249.525 197.211 250.22 197.222 250.915C197.245 251.599 197.268 252.294 197.291 253C197.325 253.695 197.359 254.43 197.393 255.205L191.89 255.564ZM183.909 251.428C185.265 251.371 186.598 251.28 187.908 251.155C189.218 251.029 190.512 250.841 191.788 250.591C191.753 249.178 191.691 247.811 191.6 246.489C191.52 245.168 191.406 243.817 191.258 242.439H190.284C189.179 242.439 188.068 242.479 186.951 242.559C185.846 242.627 184.729 242.747 183.602 242.917C183.465 244.114 183.396 245.316 183.396 246.523C183.396 246.979 183.408 247.406 183.431 247.805C183.453 248.192 183.482 248.58 183.516 248.967C183.562 249.355 183.613 249.748 183.67 250.146C183.738 250.545 183.818 250.972 183.909 251.428ZM218.157 246.523C218.157 247.97 218.072 249.44 217.901 250.933C217.73 252.425 217.468 253.923 217.115 255.427H211.167C211.304 253.821 211.412 252.226 211.492 250.642C211.572 249.058 211.612 247.463 211.612 245.857C211.612 245.31 211.612 244.769 211.612 244.233C211.612 243.698 211.6 243.168 211.578 242.644C211.065 242.587 210.558 242.553 210.057 242.541C209.567 242.519 209.06 242.507 208.536 242.507C208.239 242.507 207.938 242.513 207.63 242.524C207.334 242.536 207.026 242.541 206.707 242.541C206.673 243.35 206.65 244.108 206.639 244.814C206.639 245.509 206.639 246.21 206.639 246.916C206.639 247.497 206.644 248.09 206.656 248.694C206.667 249.286 206.684 249.924 206.707 250.608C206.741 251.291 206.781 252.032 206.827 252.83C206.872 253.616 206.929 254.482 206.998 255.427H201.255C201.255 254.06 201.25 252.852 201.238 251.804C201.227 250.756 201.21 249.793 201.187 248.916C201.164 248.027 201.13 247.184 201.084 246.387C201.05 245.578 201.005 244.735 200.948 243.857C200.891 242.969 200.828 242.006 200.76 240.969C200.691 239.921 200.612 238.719 200.521 237.363L206.998 236.97L206.861 239.499C207.431 239.226 207.989 239.015 208.536 238.867C209.083 238.719 209.572 238.611 210.005 238.542C210.507 238.463 210.985 238.417 211.441 238.406C212.318 238.406 213.099 238.531 213.782 238.782C214.466 239.021 215.064 239.351 215.577 239.773C216.237 239.203 216.932 238.77 217.662 238.474C218.402 238.166 219.086 237.939 219.712 237.79C220.442 237.62 221.159 237.523 221.866 237.5C222.709 237.5 223.455 237.614 224.104 237.842C224.765 238.07 225.346 238.389 225.848 238.799C226.349 239.198 226.771 239.676 227.112 240.234C227.465 240.781 227.75 241.374 227.967 242.012C228.183 242.638 228.337 243.299 228.428 243.994C228.531 244.689 228.582 245.384 228.582 246.079C228.582 247.594 228.497 249.132 228.326 250.693C228.166 252.254 227.904 253.832 227.54 255.427H221.592C221.729 253.73 221.837 252.049 221.917 250.386C221.997 248.711 222.037 247.03 222.037 245.344C222.037 244.775 222.037 244.211 222.037 243.652C222.037 243.083 222.025 242.513 222.002 241.943C221.49 241.886 220.983 241.852 220.481 241.841C219.98 241.818 219.462 241.807 218.926 241.807C218.63 241.807 218.34 241.812 218.055 241.824C217.77 241.835 217.479 241.841 217.183 241.841C217.536 242.547 217.787 243.305 217.935 244.114C218.083 244.911 218.157 245.714 218.157 246.523ZM250.457 246.985L237.093 248.061C237.15 248.768 237.229 249.469 237.332 250.164C237.435 250.859 237.566 251.559 237.725 252.266C238.728 252.334 239.696 252.368 240.63 252.368C241.143 252.368 241.639 252.362 242.117 252.351C242.596 252.328 243.091 252.3 243.604 252.266C243.627 252.038 243.644 251.81 243.655 251.582C243.667 251.354 243.672 251.126 243.672 250.898C243.672 250.693 243.667 250.494 243.655 250.3C243.655 250.095 243.638 249.89 243.604 249.685L250.047 249.822C249.728 250.904 249.266 251.833 248.663 252.607C248.07 253.382 247.364 254.02 246.543 254.521C245.735 255.011 244.829 255.37 243.826 255.598C242.824 255.826 241.77 255.94 240.665 255.94C239.309 255.94 238.033 255.758 236.836 255.393C235.652 255.028 234.615 254.442 233.726 253.633C232.849 252.812 232.154 251.747 231.641 250.437C231.14 249.127 230.889 247.52 230.889 245.618C230.889 244.08 231.157 242.758 231.692 241.653C232.228 240.548 232.94 239.636 233.829 238.918C234.729 238.201 235.765 237.677 236.939 237.346C238.124 237.004 239.366 236.833 240.665 236.833C242.02 236.833 243.291 237.016 244.476 237.38C245.672 237.745 246.709 238.315 247.586 239.089C248.475 239.864 249.175 240.855 249.688 242.063C250.201 243.271 250.457 244.712 250.457 246.387V246.985ZM236.922 244.473H243.775C243.775 243.06 243.632 241.715 243.348 240.439C242.368 240.234 241.342 240.132 240.271 240.132C239.223 240.132 238.164 240.234 237.093 240.439C237.024 241.077 236.979 241.727 236.956 242.388C236.933 243.037 236.922 243.732 236.922 244.473ZM271.341 246.079C271.341 247.594 271.261 249.138 271.102 250.71C270.942 252.283 270.669 253.855 270.281 255.427H264.334C264.482 253.73 264.596 252.055 264.676 250.403C264.756 248.739 264.795 247.065 264.795 245.378C264.795 244.809 264.795 244.245 264.795 243.686C264.795 243.117 264.784 242.547 264.761 241.977C264.249 241.921 263.742 241.886 263.24 241.875C262.739 241.852 262.232 241.841 261.719 241.841C260.751 241.841 259.754 241.875 258.729 241.943C258.694 242.878 258.666 243.743 258.643 244.541C258.632 245.338 258.626 246.13 258.626 246.916C258.626 247.497 258.632 248.09 258.643 248.694C258.654 249.286 258.672 249.924 258.694 250.608C258.729 251.291 258.768 252.032 258.814 252.83C258.86 253.616 258.917 254.482 258.985 255.427H253.243C253.243 254.06 253.237 252.852 253.226 251.804C253.214 250.756 253.197 249.793 253.174 248.916C253.152 248.027 253.117 247.184 253.072 246.387C253.038 245.578 252.992 244.735 252.935 243.857C252.878 242.969 252.815 242.006 252.747 240.969C252.679 239.921 252.599 238.719 252.508 237.363L258.985 236.97L258.848 239.397C259.498 238.941 260.164 238.588 260.848 238.337C261.531 238.087 262.158 237.899 262.728 237.773C263.388 237.637 264.032 237.557 264.659 237.534C265.49 237.534 266.231 237.648 266.88 237.876C267.541 238.104 268.117 238.423 268.606 238.833C269.108 239.232 269.529 239.705 269.871 240.251C270.213 240.798 270.492 241.391 270.708 242.029C270.936 242.655 271.096 243.316 271.187 244.011C271.29 244.706 271.341 245.395 271.341 246.079ZM290.379 241.977C289.274 241.921 288.163 241.869 287.046 241.824C285.941 241.778 284.836 241.738 283.731 241.704C283.594 243.971 283.475 246.233 283.372 248.489C283.27 250.745 283.19 253.018 283.133 255.308L278.143 255.803C278.211 251.633 278.245 247.503 278.245 243.413V241.602H277.015C276.331 241.602 275.647 241.607 274.964 241.619C274.28 241.63 273.597 241.636 272.913 241.636V237.295C273.209 237.295 273.506 237.301 273.802 237.312C274.109 237.323 274.423 237.329 274.742 237.329H278.211C278.211 236.269 278.205 235.227 278.194 234.202C278.182 233.165 278.165 232.128 278.143 231.091H284.62C284.506 232.117 284.403 233.136 284.312 234.15C284.232 235.153 284.158 236.156 284.09 237.158C285.149 237.113 286.192 237.067 287.217 237.021C288.254 236.964 289.308 236.902 290.379 236.833V241.977ZM304.854 251.462C304.922 250.494 304.968 249.554 304.991 248.643C305.025 247.731 305.042 246.831 305.042 245.942C305.042 245.019 305.025 244.114 304.991 243.225C304.968 242.325 304.922 241.396 304.854 240.439C304.467 240.382 304.079 240.348 303.692 240.337C303.316 240.314 302.934 240.303 302.547 240.303C300.952 240.303 299.414 240.479 297.933 240.832C297.898 241.448 297.864 242.057 297.83 242.661C297.807 243.265 297.796 243.869 297.796 244.473C297.796 245.68 297.841 246.888 297.933 248.096C298.035 249.292 298.183 250.545 298.377 251.855C298.639 251.878 298.901 251.89 299.163 251.89C299.437 251.89 299.716 251.89 300 251.89C300.787 251.89 301.584 251.855 302.393 251.787C303.213 251.719 304.034 251.61 304.854 251.462ZM311.194 246.079C311.194 247.435 310.927 248.711 310.391 249.907C309.867 251.092 309.149 252.129 308.238 253.018C307.326 253.906 306.255 254.607 305.025 255.12C303.806 255.644 302.501 255.906 301.111 255.906C299.733 255.906 298.462 255.644 297.3 255.12C296.15 254.607 295.153 253.906 294.31 253.018C293.478 252.129 292.828 251.092 292.361 249.907C291.894 248.711 291.661 247.435 291.661 246.079C291.661 244.404 291.894 242.952 292.361 241.721C292.828 240.491 293.478 239.471 294.31 238.662C295.153 237.853 296.15 237.255 297.3 236.868C298.462 236.469 299.733 236.269 301.111 236.269C302.501 236.269 303.806 236.492 305.025 236.936C306.255 237.38 307.326 238.024 308.238 238.867C309.149 239.71 309.867 240.741 310.391 241.96C310.927 243.168 311.194 244.541 311.194 246.079ZM343.99 230.288C343.728 234.367 343.54 238.503 343.426 242.695C343.312 246.877 343.255 251.035 343.255 255.171H337.564L337.667 253.257C337.12 253.781 336.516 254.185 335.855 254.47C335.194 254.755 334.568 254.96 333.975 255.085C333.28 255.234 332.585 255.319 331.89 255.342C330.591 255.342 329.418 255.108 328.37 254.641C327.333 254.174 326.45 253.519 325.721 252.676C325.003 251.833 324.45 250.819 324.063 249.634C323.676 248.449 323.482 247.144 323.482 245.72C323.482 244.775 323.596 243.897 323.824 243.088C324.052 242.279 324.365 241.545 324.764 240.884C325.162 240.223 325.63 239.642 326.165 239.141C326.701 238.639 327.27 238.218 327.874 237.876C328.478 237.534 329.104 237.278 329.754 237.107C330.403 236.925 331.047 236.833 331.685 236.833C332.471 236.856 333.24 236.959 333.992 237.141C334.311 237.221 334.642 237.323 334.983 237.449C335.325 237.563 335.661 237.705 335.992 237.876C336.333 238.047 336.658 238.246 336.966 238.474C337.285 238.702 337.575 238.97 337.837 239.277C337.803 237.694 337.763 236.127 337.718 234.578C337.672 233.017 337.621 231.462 337.564 229.912L343.99 230.288ZM335.599 250.864C335.918 250.864 336.254 250.864 336.607 250.864C336.972 250.864 337.347 250.853 337.735 250.83C337.792 249.657 337.826 248.477 337.837 247.292C337.86 246.096 337.872 244.894 337.872 243.686V241.602C337.017 241.51 336.225 241.436 335.496 241.379C334.778 241.311 334.009 241.277 333.189 241.277C332.756 241.277 332.306 241.288 331.839 241.311C331.383 241.322 330.876 241.345 330.318 241.379C330.17 242.405 330.062 243.424 329.993 244.438C329.925 245.452 329.891 246.478 329.891 247.515C329.891 248.027 329.891 248.534 329.891 249.036C329.902 249.537 329.936 250.044 329.993 250.557C330.563 250.614 331.087 250.659 331.565 250.693C332.055 250.727 332.522 250.762 332.967 250.796C333.423 250.819 333.861 250.836 334.283 250.847C334.716 250.859 335.154 250.864 335.599 250.864ZM365.779 246.985L352.415 248.061C352.472 248.768 352.552 249.469 352.654 250.164C352.757 250.859 352.888 251.559 353.047 252.266C354.05 252.334 355.018 252.368 355.953 252.368C356.465 252.368 356.961 252.362 357.439 252.351C357.918 252.328 358.414 252.3 358.926 252.266C358.949 252.038 358.966 251.81 358.978 251.582C358.989 251.354 358.995 251.126 358.995 250.898C358.995 250.693 358.989 250.494 358.978 250.3C358.978 250.095 358.96 249.89 358.926 249.685L365.369 249.822C365.05 250.904 364.589 251.833 363.985 252.607C363.392 253.382 362.686 254.02 361.866 254.521C361.057 255.011 360.151 255.37 359.148 255.598C358.146 255.826 357.092 255.94 355.987 255.94C354.631 255.94 353.355 255.758 352.159 255.393C350.974 255.028 349.937 254.442 349.048 253.633C348.171 252.812 347.476 251.747 346.963 250.437C346.462 249.127 346.211 247.52 346.211 245.618C346.211 244.08 346.479 242.758 347.015 241.653C347.55 240.548 348.262 239.636 349.151 238.918C350.051 238.201 351.088 237.677 352.261 237.346C353.446 237.004 354.688 236.833 355.987 236.833C357.343 236.833 358.613 237.016 359.798 237.38C360.994 237.745 362.031 238.315 362.908 239.089C363.797 239.864 364.498 240.855 365.01 242.063C365.523 243.271 365.779 244.712 365.779 246.387V246.985ZM352.244 244.473H359.097C359.097 243.06 358.955 241.715 358.67 240.439C357.69 240.234 356.665 240.132 355.594 240.132C354.546 240.132 353.486 240.234 352.415 240.439C352.347 241.077 352.301 241.727 352.278 242.388C352.256 243.037 352.244 243.732 352.244 244.473ZM166.153 293.652C166.21 293.379 166.25 293.105 166.272 292.832C166.295 292.547 166.307 292.262 166.307 291.977C166.307 291.715 166.295 291.459 166.272 291.208C166.25 290.958 166.21 290.701 166.153 290.439C165.663 290.348 165.167 290.286 164.666 290.251C164.165 290.217 163.646 290.2 163.111 290.2C162.587 290.2 162.057 290.217 161.521 290.251C160.986 290.286 160.445 290.348 159.898 290.439C159.841 291.055 159.795 291.658 159.761 292.251C159.738 292.843 159.727 293.442 159.727 294.045C159.727 295.435 159.795 296.814 159.932 298.181C160.08 299.537 160.28 300.898 160.53 302.266C161.043 302.323 161.533 302.362 162 302.385C162.479 302.397 162.968 302.402 163.47 302.402C163.96 302.402 164.444 302.397 164.922 302.385C165.401 302.362 165.896 302.323 166.409 302.266C166.432 302.026 166.449 301.793 166.46 301.565C166.472 301.337 166.478 301.115 166.478 300.898C166.478 300.693 166.472 300.488 166.46 300.283C166.449 300.078 166.432 299.879 166.409 299.685L172.852 299.822C172.533 300.904 172.072 301.833 171.468 302.607C170.875 303.382 170.169 304.02 169.349 304.521C168.54 305.011 167.634 305.37 166.631 305.598C165.629 305.826 164.575 305.94 163.47 305.94C162.114 305.94 160.838 305.758 159.642 305.393C158.457 305.028 157.42 304.442 156.531 303.633C155.654 302.812 154.959 301.747 154.446 300.437C153.945 299.127 153.694 297.52 153.694 295.618C153.694 294.08 153.962 292.758 154.498 291.653C155.033 290.548 155.745 289.636 156.634 288.918C157.534 288.201 158.571 287.677 159.744 287.346C160.929 287.004 162.171 286.833 163.47 286.833C164.62 286.833 165.714 286.97 166.751 287.244C167.788 287.506 168.722 287.916 169.554 288.474C170.397 289.021 171.115 289.727 171.707 290.593C172.299 291.448 172.727 292.467 172.989 293.652H166.153ZM187.703 301.462C187.771 300.494 187.817 299.554 187.84 298.643C187.874 297.731 187.891 296.831 187.891 295.942C187.891 295.019 187.874 294.114 187.84 293.225C187.817 292.325 187.771 291.396 187.703 290.439C187.316 290.382 186.928 290.348 186.541 290.337C186.165 290.314 185.783 290.303 185.396 290.303C183.801 290.303 182.263 290.479 180.782 290.832C180.748 291.448 180.713 292.057 180.679 292.661C180.656 293.265 180.645 293.869 180.645 294.473C180.645 295.68 180.691 296.888 180.782 298.096C180.884 299.292 181.032 300.545 181.226 301.855C181.488 301.878 181.75 301.89 182.012 301.89C182.286 301.89 182.565 301.89 182.85 301.89C183.636 301.89 184.433 301.855 185.242 301.787C186.062 301.719 186.883 301.61 187.703 301.462ZM194.043 296.079C194.043 297.435 193.776 298.711 193.24 299.907C192.716 301.092 191.998 302.129 191.087 303.018C190.175 303.906 189.104 304.607 187.874 305.12C186.655 305.644 185.35 305.906 183.96 305.906C182.582 305.906 181.312 305.644 180.149 305.12C178.999 304.607 178.002 303.906 177.159 303.018C176.327 302.129 175.678 301.092 175.21 299.907C174.743 298.711 174.51 297.435 174.51 296.079C174.51 294.404 174.743 292.952 175.21 291.721C175.678 290.491 176.327 289.471 177.159 288.662C178.002 287.853 178.999 287.255 180.149 286.868C181.312 286.469 182.582 286.269 183.96 286.269C185.35 286.269 186.655 286.492 187.874 286.936C189.104 287.38 190.175 288.024 191.087 288.867C191.998 289.71 192.716 290.741 193.24 291.96C193.776 293.168 194.043 294.541 194.043 296.079ZM209.458 296.814C209.481 296.529 209.504 296.25 209.527 295.977C209.55 295.692 209.561 295.407 209.561 295.122C209.561 294.142 209.458 293.174 209.253 292.217C208.194 292.262 207.14 292.336 206.092 292.439C205.055 292.541 204.007 292.678 202.947 292.849V296.25C202.947 297.742 202.947 299.224 202.947 300.693C202.947 302.152 202.959 303.621 202.981 305.102L196.897 305.53C196.932 305.108 196.949 304.692 196.949 304.282C196.96 303.872 196.966 303.456 196.966 303.035C196.966 300.391 196.915 297.777 196.812 295.19C196.721 292.604 196.584 290.006 196.402 287.397L202.981 286.833C202.981 287.152 202.976 287.471 202.964 287.79C202.953 288.098 202.947 288.411 202.947 288.73C203.608 288.252 204.269 287.887 204.93 287.637C205.602 287.386 206.211 287.198 206.758 287.073C207.385 286.936 207.994 286.856 208.587 286.833C209.931 286.902 211.133 287.209 212.193 287.756C212.637 287.984 213.076 288.28 213.509 288.645C213.942 288.998 214.329 289.437 214.671 289.961C215.013 290.474 215.286 291.083 215.491 291.789C215.696 292.484 215.799 293.293 215.799 294.216C215.799 294.535 215.782 294.871 215.748 295.225C215.713 295.566 215.668 295.931 215.611 296.318L209.458 296.814ZM234.068 291.977C232.963 291.921 231.852 291.869 230.735 291.824C229.63 291.778 228.525 291.738 227.42 291.704C227.283 293.971 227.164 296.233 227.061 298.489C226.958 300.745 226.879 303.018 226.822 305.308L221.832 305.803C221.9 301.633 221.934 297.503 221.934 293.413V291.602H220.704C220.02 291.602 219.336 291.607 218.653 291.619C217.969 291.63 217.286 291.636 216.602 291.636V287.295C216.898 287.295 217.194 287.301 217.491 287.312C217.798 287.323 218.112 287.329 218.431 287.329H221.9C221.9 286.269 221.894 285.227 221.883 284.202C221.871 283.165 221.854 282.128 221.832 281.091H228.309C228.195 282.117 228.092 283.136 228.001 284.15C227.921 285.153 227.847 286.156 227.779 287.158C228.838 287.113 229.881 287.067 230.906 287.021C231.943 286.964 232.997 286.902 234.068 286.833V291.977ZM254.986 296.985L241.622 298.061C241.679 298.768 241.758 299.469 241.861 300.164C241.963 300.859 242.094 301.559 242.254 302.266C243.257 302.334 244.225 302.368 245.159 302.368C245.672 302.368 246.167 302.362 246.646 302.351C247.125 302.328 247.62 302.3 248.133 302.266C248.156 302.038 248.173 301.81 248.184 301.582C248.195 301.354 248.201 301.126 248.201 300.898C248.201 300.693 248.195 300.494 248.184 300.3C248.184 300.095 248.167 299.89 248.133 299.685L254.576 299.822C254.257 300.904 253.795 301.833 253.191 302.607C252.599 303.382 251.893 304.02 251.072 304.521C250.263 305.011 249.358 305.37 248.355 305.598C247.352 305.826 246.299 305.94 245.193 305.94C243.838 305.94 242.562 305.758 241.365 305.393C240.18 305.028 239.144 304.442 238.255 303.633C237.378 302.812 236.683 301.747 236.17 300.437C235.669 299.127 235.418 297.52 235.418 295.618C235.418 294.08 235.686 292.758 236.221 291.653C236.757 290.548 237.469 289.636 238.357 288.918C239.257 288.201 240.294 287.677 241.468 287.346C242.653 287.004 243.895 286.833 245.193 286.833C246.549 286.833 247.819 287.016 249.004 287.38C250.201 287.745 251.237 288.315 252.115 289.089C253.003 289.864 253.704 290.855 254.217 292.063C254.729 293.271 254.986 294.712 254.986 296.387V296.985ZM241.451 294.473H248.304C248.304 293.06 248.161 291.715 247.876 290.439C246.897 290.234 245.871 290.132 244.8 290.132C243.752 290.132 242.693 290.234 241.622 290.439C241.553 291.077 241.508 291.727 241.485 292.388C241.462 293.037 241.451 293.732 241.451 294.473ZM275.34 301.018C275.34 302.021 275.083 302.858 274.571 303.53C274.058 304.191 273.386 304.721 272.554 305.12C271.722 305.53 270.777 305.815 269.717 305.974C268.658 306.145 267.581 306.23 266.487 306.23C265.883 306.23 265.234 306.191 264.539 306.111C263.855 306.042 263.166 305.911 262.471 305.718C261.776 305.535 261.098 305.29 260.438 304.983C259.788 304.664 259.196 304.265 258.66 303.787C258.125 303.308 257.663 302.744 257.276 302.095C256.9 301.445 256.644 300.688 256.507 299.822L263.445 299.753L263.719 302.727H269.034L269.427 299.292C268.72 299.132 267.911 298.996 267 298.882C266.089 298.768 265.154 298.631 264.197 298.472C263.24 298.301 262.3 298.084 261.377 297.822C260.455 297.56 259.634 297.201 258.917 296.746C258.199 296.29 257.618 295.714 257.173 295.019C256.729 294.324 256.507 293.464 256.507 292.439C256.507 291.334 256.775 290.405 257.31 289.653C257.846 288.89 258.546 288.28 259.412 287.825C260.289 287.358 261.281 287.016 262.386 286.799C263.491 286.583 264.613 286.457 265.752 286.423C266.356 286.423 267.006 286.457 267.701 286.526C268.407 286.594 269.108 286.72 269.803 286.902C270.498 287.073 271.164 287.312 271.802 287.62C272.452 287.927 273.027 288.32 273.528 288.799C274.041 289.266 274.457 289.836 274.776 290.508C275.106 291.169 275.294 291.949 275.34 292.849L268.624 293.14V289.773H262.847V294.319C263.588 294.478 264.414 294.604 265.325 294.695C266.237 294.775 267.154 294.883 268.077 295.019C269 295.156 269.894 295.344 270.76 295.583C271.637 295.823 272.412 296.164 273.084 296.609C273.768 297.053 274.314 297.629 274.725 298.335C275.135 299.041 275.34 299.936 275.34 301.018Z" fill="black"/>
<path d="M216.821 129.297C218.92 129.297 220.972 128.669 222.717 127.493C224.463 126.317 225.823 124.646 226.626 122.691C227.429 120.735 227.64 118.583 227.23 116.508C226.821 114.432 225.81 112.525 224.326 111.028C222.841 109.532 220.95 108.512 218.892 108.099C216.833 107.686 214.699 107.898 212.76 108.708C210.821 109.518 209.163 110.89 207.997 112.65C206.831 114.41 206.208 116.479 206.208 118.595C206.208 121.434 207.327 124.155 209.317 126.162C211.307 128.169 214.007 129.297 216.821 129.297ZM269.885 129.297C271.984 129.297 274.036 128.669 275.781 127.493C277.527 126.317 278.887 124.646 279.69 122.691C280.493 120.735 280.704 118.583 280.294 116.508C279.885 114.432 278.874 112.525 277.39 111.028C275.905 109.532 274.014 108.512 271.956 108.099C269.897 107.686 267.763 107.898 265.824 108.708C263.885 109.518 262.227 110.89 261.061 112.65C259.895 114.41 259.272 116.479 259.272 118.595C259.272 121.434 260.391 124.155 262.381 126.162C264.371 128.169 267.071 129.297 269.885 129.297ZM216.821 172.103C218.92 172.103 220.972 171.475 222.717 170.299C224.463 169.124 225.823 167.452 226.626 165.497C227.429 163.541 227.64 161.39 227.23 159.314C226.821 157.238 225.81 155.331 224.326 153.834C222.841 152.338 220.95 151.318 218.892 150.906C216.833 150.493 214.699 150.705 212.76 151.514C210.821 152.324 209.163 153.696 207.997 155.456C206.831 157.216 206.208 159.285 206.208 161.401C206.208 164.24 207.327 166.962 209.317 168.969C211.307 170.975 214.007 172.103 216.821 172.103ZM269.885 172.103C271.984 172.103 274.036 171.475 275.781 170.299C277.527 169.124 278.887 167.452 279.69 165.497C280.493 163.541 280.704 161.39 280.294 159.314C279.885 157.238 278.874 155.331 277.39 153.834C275.905 152.338 274.014 151.318 271.956 150.906C269.897 150.493 267.763 150.705 265.824 151.514C263.885 152.324 262.227 153.696 261.061 155.456C259.895 157.216 259.272 159.285 259.272 161.401C259.272 164.24 260.391 166.962 262.381 168.969C264.371 170.975 267.071 172.103 269.885 172.103ZM163.757 129.297C165.856 129.297 167.908 128.669 169.653 127.493C171.399 126.317 172.759 124.646 173.562 122.691C174.365 120.735 174.576 118.583 174.166 116.508C173.757 114.432 172.746 112.525 171.262 111.028C169.777 109.532 167.886 108.512 165.828 108.099C163.769 107.686 161.635 107.898 159.696 108.708C157.757 109.518 156.099 110.89 154.933 112.65C153.767 114.41 153.144 116.479 153.144 118.595C153.144 121.434 154.263 124.155 156.253 126.162C158.243 128.169 160.943 129.297 163.757 129.297ZM291.111 22.2814H280.498V11.5799C280.498 8.74167 279.38 6.01969 277.39 4.01276C275.399 2.00584 272.7 0.878357 269.885 0.878357C267.071 0.878357 264.371 2.00584 262.381 4.01276C260.391 6.01969 259.272 8.74167 259.272 11.5799V22.2814H174.37V11.5799C174.37 8.74167 173.252 6.01969 171.262 4.01276C169.271 2.00584 166.572 0.878357 163.757 0.878357C160.943 0.878357 158.243 2.00584 156.253 4.01276C154.263 6.01969 153.144 8.74167 153.144 11.5799V22.2814H142.532C134.088 22.2814 125.989 25.6639 120.018 31.6847C114.048 37.7054 110.693 45.8714 110.693 54.386V182.804C110.693 191.319 114.048 199.485 120.018 205.506C125.989 211.527 134.088 214.909 142.532 214.909H291.111C299.555 214.909 307.653 211.527 313.624 205.506C319.595 199.485 322.949 191.319 322.949 182.804V54.386C322.949 45.8714 319.595 37.7054 313.624 31.6847C307.653 25.6639 299.555 22.2814 291.111 22.2814ZM301.724 182.804C301.724 185.643 300.605 188.365 298.615 190.372C296.625 192.379 293.926 193.506 291.111 193.506H142.532C139.717 193.506 137.018 192.379 135.027 190.372C133.037 188.365 131.919 185.643 131.919 182.804V86.4907H301.724V182.804ZM301.724 65.0876H131.919V54.386C131.919 51.5478 133.037 48.8258 135.027 46.8189C137.018 44.812 139.717 43.6845 142.532 43.6845H291.111C293.926 43.6845 296.625 44.812 298.615 46.8189C300.605 48.8258 301.724 51.5478 301.724 54.386V65.0876ZM163.757 172.103C165.856 172.103 167.908 171.475 169.653 170.299C171.399 169.124 172.759 167.452 173.562 165.497C174.365 163.541 174.576 161.39 174.166 159.314C173.757 157.238 172.746 155.331 171.262 153.834C169.777 152.338 167.886 151.318 165.828 150.906C163.769 150.493 161.635 150.705 159.696 151.514C157.757 152.324 156.099 153.696 154.933 155.456C153.767 157.216 153.144 159.285 153.144 161.401C153.144 164.24 154.263 166.962 156.253 168.969C158.243 170.975 160.943 172.103 163.757 172.103Z" fill="black"/>
</svg>
