<svg width="429" height="357" viewBox="0 0 429 357" fill="none" xmlns="http://www.w3.org/2000/svg">
<path d="M309.704 76.2564C309.704 89.9709 304.392 102.649 293.768 114.292C283.144 125.935 268.65 135.135 250.284 141.894C231.918 148.652 211.942 152.032 190.355 152.032C180.635 152.032 170.69 151.242 160.518 149.664C146.503 158.346 130.794 164.661 113.388 168.607C109.32 169.495 104.46 170.285 98.8089 170.975H98.3003C97.0571 170.975 95.8986 170.581 94.8249 169.791C93.7512 169.002 93.1014 167.966 92.8753 166.683C92.7623 166.387 92.7058 166.067 92.7058 165.721C92.7058 165.376 92.7341 165.055 92.7906 164.759C92.8471 164.463 92.9601 164.167 93.1296 163.871L93.5535 163.132L94.1468 162.318L94.8249 161.578L95.5878 160.838L96.2659 160.172C96.831 159.58 98.1308 158.346 100.165 156.472C102.199 154.597 103.669 153.142 104.573 152.106C105.477 151.07 106.749 149.639 108.387 147.814C110.026 145.988 111.439 144.089 112.626 142.116C113.812 140.142 114.971 137.972 116.101 135.604C102.086 128.5 91.067 119.768 83.0426 109.408C75.0182 99.0481 71.006 87.9976 71.006 76.2564C71.006 62.5419 76.3179 49.8633 86.9418 38.2208C97.5657 26.5782 112.06 17.3776 130.426 10.619C148.792 3.86044 168.768 0.48114 190.355 0.48114C211.942 0.48114 231.918 3.86044 250.284 10.619C268.65 17.3776 283.144 26.5782 293.768 38.2208C304.392 49.8633 309.704 62.5419 309.704 76.2564ZM374.804 114.144C374.804 125.984 370.791 137.059 362.767 147.37C354.743 157.68 343.723 166.387 329.709 173.491C330.839 175.859 331.997 178.03 333.184 180.003C334.371 181.977 335.783 183.876 337.422 185.701C339.061 187.527 340.332 188.957 341.237 189.993C342.141 191.029 343.61 192.485 345.644 194.359C347.679 196.234 348.979 197.467 349.544 198.059C349.657 198.158 349.883 198.38 350.222 198.725C350.561 199.07 350.815 199.317 350.985 199.465C351.154 199.613 351.38 199.86 351.663 200.205C351.945 200.55 352.143 200.822 352.256 201.019L352.68 201.759L353.019 202.647L353.104 203.609L352.934 204.571C352.595 205.952 351.861 207.038 350.73 207.827C349.6 208.616 348.357 208.962 347.001 208.863C341.35 208.172 336.49 207.383 332.421 206.495C315.016 202.548 299.306 196.234 285.292 187.551C275.12 189.13 265.174 189.919 255.455 189.919C224.826 189.919 198.153 183.407 175.436 170.383C181.992 170.778 186.964 170.975 190.355 170.975C208.551 170.975 226.013 168.755 242.74 164.315C259.467 159.876 274.385 153.512 287.496 145.224C301.623 136.146 312.473 125.688 320.045 113.848C327.618 102.008 331.404 89.4776 331.404 76.2564C331.404 68.6591 330.104 61.1605 327.505 53.7606C342.084 60.7659 353.612 69.5471 362.089 80.1043C370.565 90.6616 374.804 102.008 374.804 114.144Z" fill="black"/>
<path d="M75.457 259.796C75.6849 258.6 75.8501 257.346 75.9526 256.036C76.0666 254.715 76.1235 253.37 76.1235 252.003C76.1235 250.556 76.0666 249.12 75.9526 247.696C75.8387 246.261 75.6735 244.882 75.457 243.561C74.819 243.378 74.124 243.219 73.3721 243.082C72.7227 242.957 71.965 242.843 71.0991 242.74C70.2446 242.638 69.3161 242.586 68.3135 242.586C68.1198 242.586 67.9204 242.586 67.7153 242.586C67.5103 242.586 67.3052 242.598 67.1001 242.621C67.1001 242.814 67.1001 243.145 67.1001 243.612C67.1001 244.079 67.1001 244.654 67.1001 245.338C67.1115 246.01 67.1172 246.773 67.1172 247.628C67.1286 248.471 67.14 249.36 67.1514 250.294C67.1628 251.228 67.1799 252.185 67.2026 253.165C67.2254 254.145 67.2539 255.113 67.2881 256.07C67.3223 257.027 67.3564 257.95 67.3906 258.839C67.4362 259.716 67.4875 260.525 67.5444 261.266C68.5926 261.22 69.5895 261.118 70.5352 260.958C71.4922 260.799 72.3353 260.633 73.0645 260.462C73.9189 260.257 74.7165 260.035 75.457 259.796ZM65.2715 238.485C66.6159 238.485 67.9945 238.553 69.4072 238.69C70.8314 238.827 72.21 239.072 73.543 239.425C74.8874 239.778 76.1577 240.262 77.354 240.877C78.5503 241.493 79.5928 242.273 80.4814 243.219C81.3815 244.164 82.0936 245.304 82.6177 246.637C83.1418 247.958 83.4038 249.514 83.4038 251.302C83.4038 253.034 83.1759 254.572 82.7202 255.917C82.2645 257.261 81.6436 258.446 80.8574 259.471C80.0827 260.485 79.1712 261.345 78.123 262.052C77.0749 262.758 75.9526 263.333 74.7563 263.778C73.5715 264.222 72.341 264.541 71.0649 264.735C69.7889 264.94 68.5356 265.042 67.3052 265.042C66.1089 265.042 65.055 265.014 64.1436 264.957C63.2321 264.911 62.4574 264.86 61.8193 264.803C61.0788 264.735 60.4351 264.655 59.8882 264.564C60.0249 262.331 60.1445 260.104 60.2471 257.882C60.3496 255.66 60.4009 253.427 60.4009 251.183C60.4009 250.077 60.3838 249.024 60.3496 248.021C60.3268 247.018 60.2926 246.027 60.2471 245.047C60.2015 244.068 60.1445 243.082 60.0762 242.091C60.0192 241.088 59.9565 240.029 59.8882 238.912C60.8338 238.73 61.7624 238.616 62.6738 238.57C63.5853 238.513 64.4512 238.485 65.2715 238.485ZM104.783 255.985L91.4189 257.062C91.4759 257.768 91.5557 258.469 91.6582 259.164C91.7607 259.859 91.8918 260.559 92.0513 261.266C93.0539 261.334 94.0223 261.368 94.9565 261.368C95.4692 261.368 95.9648 261.362 96.4434 261.351C96.9219 261.328 97.4175 261.3 97.9302 261.266C97.953 261.038 97.9701 260.81 97.9814 260.582C97.9928 260.354 97.9985 260.126 97.9985 259.898C97.9985 259.693 97.9928 259.494 97.9814 259.3C97.9814 259.095 97.9644 258.89 97.9302 258.685L104.373 258.822C104.054 259.904 103.593 260.833 102.989 261.607C102.396 262.382 101.69 263.02 100.87 263.521C100.061 264.011 99.1549 264.37 98.1523 264.598C97.1497 264.826 96.0959 264.94 94.9907 264.94C93.6349 264.94 92.3589 264.758 91.1626 264.393C89.9777 264.028 88.9409 263.442 88.0522 262.633C87.175 261.812 86.48 260.747 85.9673 259.437C85.466 258.127 85.2153 256.52 85.2153 254.618C85.2153 253.08 85.4831 251.758 86.0186 250.653C86.554 249.548 87.2661 248.636 88.1548 247.918C89.0549 247.201 90.0916 246.677 91.2651 246.346C92.45 246.004 93.6919 245.833 94.9907 245.833C96.3465 245.833 97.6169 246.016 98.8018 246.38C99.998 246.745 101.035 247.315 101.912 248.089C102.801 248.864 103.501 249.855 104.014 251.063C104.527 252.271 104.783 253.712 104.783 255.387V255.985ZM91.248 253.473H98.1011C98.1011 252.06 97.9587 250.715 97.6738 249.439C96.694 249.234 95.6686 249.132 94.5977 249.132C93.5495 249.132 92.4899 249.234 91.4189 249.439C91.3506 250.077 91.305 250.727 91.2822 251.388C91.2594 252.037 91.248 252.732 91.248 253.473ZM113.345 246.158C113.095 248.699 112.924 251.205 112.833 253.678C112.753 256.15 112.713 258.622 112.713 261.095C112.713 261.528 112.713 261.966 112.713 262.411C112.713 262.844 112.724 263.282 112.747 263.727H107.466C107.466 263.02 107.472 262.319 107.483 261.625C107.495 260.93 107.5 260.24 107.5 259.557C107.5 257.289 107.444 255.045 107.33 252.823C107.227 250.602 107.062 248.38 106.834 246.158H113.345ZM113.345 240.621C113.345 241.02 113.248 241.396 113.055 241.749C112.861 242.091 112.593 242.393 112.251 242.655C111.91 242.905 111.511 243.111 111.055 243.27C110.599 243.418 110.115 243.492 109.603 243.492C109.09 243.492 108.611 243.418 108.167 243.27C107.723 243.111 107.335 242.905 107.005 242.655C106.674 242.393 106.412 242.091 106.219 241.749C106.025 241.396 105.928 241.02 105.928 240.621C105.928 240.234 106.025 239.869 106.219 239.527C106.412 239.174 106.674 238.872 107.005 238.622C107.335 238.36 107.723 238.154 108.167 238.006C108.611 237.858 109.09 237.784 109.603 237.784C110.115 237.784 110.599 237.858 111.055 238.006C111.511 238.154 111.91 238.36 112.251 238.622C112.593 238.872 112.861 239.174 113.055 239.527C113.248 239.869 113.345 240.234 113.345 240.621ZM126.761 251.217L132.059 245.731L136.81 246.705L129.427 254.447L136.775 263.333L129.888 264.273L125.325 258.753L120.044 264.273L114.627 263.829L122.642 255.489L115.105 246.295H122.71L126.761 251.217ZM156.976 255.985L143.611 257.062C143.668 257.768 143.748 258.469 143.851 259.164C143.953 259.859 144.084 260.559 144.244 261.266C145.246 261.334 146.215 261.368 147.149 261.368C147.662 261.368 148.157 261.362 148.636 261.351C149.114 261.328 149.61 261.3 150.123 261.266C150.145 261.038 150.162 260.81 150.174 260.582C150.185 260.354 150.191 260.126 150.191 259.898C150.191 259.693 150.185 259.494 150.174 259.3C150.174 259.095 150.157 258.89 150.123 258.685L156.565 258.822C156.246 259.904 155.785 260.833 155.181 261.607C154.589 262.382 153.882 263.02 153.062 263.521C152.253 264.011 151.347 264.37 150.345 264.598C149.342 264.826 148.288 264.94 147.183 264.94C145.827 264.94 144.551 264.758 143.355 264.393C142.17 264.028 141.133 263.442 140.245 262.633C139.367 261.812 138.672 260.747 138.16 259.437C137.658 258.127 137.408 256.52 137.408 254.618C137.408 253.08 137.675 251.758 138.211 250.653C138.746 249.548 139.458 248.636 140.347 247.918C141.247 247.201 142.284 246.677 143.458 246.346C144.642 246.004 145.884 245.833 147.183 245.833C148.539 245.833 149.809 246.016 150.994 246.38C152.19 246.745 153.227 247.315 154.104 248.089C154.993 248.864 155.694 249.855 156.207 251.063C156.719 252.271 156.976 253.712 156.976 255.387V255.985ZM143.44 253.473H150.293C150.293 252.06 150.151 250.715 149.866 249.439C148.886 249.234 147.861 249.132 146.79 249.132C145.742 249.132 144.682 249.234 143.611 249.439C143.543 250.077 143.497 250.727 143.475 251.388C143.452 252.037 143.44 252.732 143.44 253.473ZM187.823 260.018C187.823 261.021 187.566 261.858 187.054 262.53C186.541 263.191 185.869 263.721 185.037 264.12C184.205 264.53 183.26 264.815 182.2 264.974C181.141 265.145 180.064 265.23 178.97 265.23C178.366 265.23 177.717 265.191 177.022 265.111C176.338 265.042 175.649 264.911 174.954 264.718C174.259 264.535 173.581 264.291 172.92 263.983C172.271 263.664 171.679 263.265 171.143 262.787C170.608 262.308 170.146 261.744 169.759 261.095C169.383 260.445 169.126 259.688 168.99 258.822L175.928 258.753L176.202 261.727H181.517L181.91 258.292C181.203 258.132 180.394 257.996 179.483 257.882C178.571 257.768 177.637 257.631 176.68 257.472C175.723 257.301 174.783 257.084 173.86 256.822C172.938 256.56 172.117 256.201 171.399 255.746C170.682 255.29 170.101 254.715 169.656 254.02C169.212 253.325 168.99 252.464 168.99 251.439C168.99 250.334 169.257 249.405 169.793 248.653C170.328 247.89 171.029 247.28 171.895 246.825C172.772 246.358 173.764 246.016 174.869 245.799C175.974 245.583 177.096 245.458 178.235 245.423C178.839 245.423 179.489 245.458 180.184 245.526C180.89 245.594 181.591 245.72 182.286 245.902C182.981 246.073 183.647 246.312 184.285 246.62C184.935 246.927 185.51 247.32 186.011 247.799C186.524 248.266 186.94 248.836 187.259 249.508C187.589 250.169 187.777 250.949 187.823 251.849L181.106 252.14V248.773H175.33V253.319C176.071 253.478 176.897 253.604 177.808 253.695C178.72 253.775 179.637 253.883 180.56 254.02C181.482 254.156 182.377 254.344 183.243 254.583C184.12 254.823 184.895 255.165 185.567 255.609C186.25 256.053 186.797 256.629 187.208 257.335C187.618 258.041 187.823 258.936 187.823 260.018ZM208.399 253.148C208.399 254.128 208.348 255.09 208.245 256.036C208.154 256.97 207.983 257.865 207.732 258.719C207.493 259.562 207.157 260.354 206.724 261.095C206.303 261.824 205.767 262.468 205.118 263.026C204.468 263.584 203.688 264.04 202.776 264.393C201.865 264.758 200.8 264.986 199.581 265.077C196.447 265.077 194.095 264.285 192.522 262.701C190.95 261.118 190.164 258.776 190.164 255.677C190.164 255.597 190.164 255.387 190.164 255.045C190.164 254.692 190.17 254.259 190.181 253.746C190.193 253.222 190.204 252.641 190.215 252.003C190.238 251.354 190.272 250.693 190.318 250.021C190.363 249.348 190.415 248.688 190.472 248.038C190.54 247.389 190.625 246.796 190.728 246.261H196.709C196.493 247.389 196.333 248.579 196.231 249.833C196.128 251.086 196.077 252.368 196.077 253.678C196.077 254.885 196.123 256.087 196.214 257.284C196.316 258.469 196.482 259.597 196.709 260.667C197.131 260.724 197.541 260.77 197.94 260.804C198.35 260.838 198.755 260.855 199.153 260.855C199.541 260.855 199.939 260.838 200.35 260.804C200.771 260.77 201.181 260.724 201.58 260.667C201.705 259.597 201.797 258.474 201.854 257.301C201.922 256.116 201.956 254.92 201.956 253.712C201.956 252.39 201.922 251.103 201.854 249.85C201.797 248.585 201.705 247.389 201.58 246.261H207.767C208.017 247.594 208.182 248.853 208.262 250.038C208.353 251.222 208.399 252.259 208.399 253.148ZM225.044 264.564C225.044 264.234 225.039 263.903 225.027 263.573C225.016 263.231 225.01 262.895 225.01 262.564C224.406 263.111 223.774 263.527 223.113 263.812C222.464 264.085 221.866 264.291 221.319 264.427C220.681 264.587 220.049 264.678 219.422 264.701C218.283 264.701 217.183 264.524 216.124 264.171C215.075 263.829 214.141 263.311 213.321 262.616C212.5 261.921 211.834 261.055 211.321 260.018C210.82 258.97 210.541 257.757 210.484 256.378C210.484 254.988 210.672 253.723 211.048 252.584C211.424 251.433 211.988 250.448 212.74 249.627C213.492 248.807 214.426 248.175 215.542 247.73C216.659 247.275 217.952 247.041 219.422 247.03C219.467 247.03 219.638 247.041 219.935 247.064C220.242 247.075 220.618 247.127 221.062 247.218C221.507 247.298 221.991 247.434 222.515 247.628C223.039 247.81 223.558 248.067 224.07 248.397L223.797 246.295L230.547 245.833C230.411 249.103 230.342 252.356 230.342 255.592C230.342 256.378 230.342 257.124 230.342 257.831C230.354 258.526 230.365 259.221 230.376 259.916C230.399 260.599 230.422 261.294 230.445 262C230.479 262.695 230.513 263.43 230.547 264.205L225.044 264.564ZM217.063 260.428C218.419 260.371 219.752 260.28 221.062 260.155C222.373 260.029 223.666 259.841 224.942 259.591C224.908 258.178 224.845 256.811 224.754 255.489C224.674 254.168 224.56 252.818 224.412 251.439H223.438C222.333 251.439 221.222 251.479 220.105 251.559C219 251.627 217.884 251.747 216.756 251.917C216.619 253.114 216.551 254.316 216.551 255.523C216.551 255.979 216.562 256.406 216.585 256.805C216.608 257.193 216.636 257.58 216.67 257.967C216.716 258.355 216.767 258.748 216.824 259.146C216.893 259.545 216.972 259.972 217.063 260.428ZM256.832 260.462C256.9 259.494 256.945 258.554 256.968 257.643C257.002 256.731 257.02 255.831 257.02 254.942C257.02 254.02 257.002 253.114 256.968 252.225C256.945 251.325 256.9 250.396 256.832 249.439C256.444 249.382 256.057 249.348 255.669 249.337C255.293 249.314 254.912 249.303 254.524 249.303C252.929 249.303 251.391 249.479 249.91 249.833C249.876 250.448 249.842 251.057 249.808 251.661C249.785 252.265 249.773 252.869 249.773 253.473C249.773 254.68 249.819 255.888 249.91 257.096C250.013 258.292 250.161 259.545 250.354 260.855C250.617 260.878 250.879 260.89 251.141 260.89C251.414 260.89 251.693 260.89 251.978 260.89C252.764 260.89 253.562 260.855 254.371 260.787C255.191 260.719 256.011 260.611 256.832 260.462ZM263.172 255.079C263.172 256.435 262.904 257.711 262.369 258.907C261.845 260.092 261.127 261.129 260.215 262.018C259.304 262.906 258.233 263.607 257.002 264.12C255.783 264.644 254.479 264.906 253.089 264.906C251.71 264.906 250.44 264.644 249.278 264.12C248.127 263.607 247.13 262.906 246.287 262.018C245.455 261.129 244.806 260.092 244.339 258.907C243.872 257.711 243.638 256.435 243.638 255.079C243.638 253.404 243.872 251.952 244.339 250.721C244.806 249.491 245.455 248.471 246.287 247.662C247.13 246.853 248.127 246.255 249.278 245.868C250.44 245.469 251.71 245.27 253.089 245.27C254.479 245.27 255.783 245.492 257.002 245.936C258.233 246.38 259.304 247.024 260.215 247.867C261.127 248.71 261.845 249.741 262.369 250.96C262.904 252.168 263.172 253.541 263.172 255.079ZM285.799 255.079C285.799 256.503 285.605 257.785 285.218 258.924C284.842 260.052 284.295 261.009 283.577 261.795C282.859 262.582 281.982 263.185 280.945 263.607C279.909 264.028 278.735 264.239 277.425 264.239C276.673 264.216 275.932 264.114 275.203 263.932C274.896 263.852 274.571 263.755 274.229 263.641C273.899 263.516 273.562 263.368 273.221 263.197C272.89 263.014 272.571 262.804 272.264 262.564C271.956 262.325 271.671 262.046 271.409 261.727C271.443 263.675 271.489 265.601 271.546 267.503C271.603 269.417 271.677 271.257 271.768 273.023L265.291 272.613C265.416 270.597 265.525 268.478 265.616 266.256C265.707 264.034 265.781 261.795 265.838 259.54C265.906 257.272 265.952 255.022 265.975 252.789C266.009 250.556 266.026 248.414 266.026 246.363H271.768C271.7 247.07 271.648 247.77 271.614 248.465C271.876 248.181 272.161 247.936 272.469 247.73C272.788 247.514 273.112 247.326 273.443 247.167C273.773 247.007 274.104 246.87 274.434 246.756C274.776 246.642 275.101 246.551 275.408 246.483C276.126 246.312 276.861 246.215 277.613 246.192C278.239 246.192 278.877 246.284 279.527 246.466C280.176 246.637 280.803 246.893 281.407 247.235C282.022 247.577 282.592 247.998 283.116 248.5C283.651 249.001 284.118 249.582 284.517 250.243C284.916 250.903 285.229 251.638 285.457 252.447C285.685 253.245 285.799 254.122 285.799 255.079ZM271.409 259.522C272.241 259.728 273.021 259.876 273.75 259.967C274.491 260.047 275.266 260.086 276.075 260.086C276.553 260.086 277.055 260.069 277.579 260.035C278.103 260.001 278.672 259.955 279.288 259.898C279.345 259.386 279.379 258.879 279.39 258.377C279.413 257.876 279.424 257.369 279.424 256.856C279.424 255.82 279.384 254.8 279.305 253.797C279.225 252.783 279.111 251.764 278.963 250.738C277.881 250.67 276.929 250.636 276.109 250.636C275.71 250.636 275.328 250.647 274.964 250.67C274.599 250.681 274.229 250.704 273.853 250.738C273.488 250.761 273.112 250.79 272.725 250.824C272.349 250.858 271.945 250.898 271.512 250.943C271.443 253.393 271.409 255.888 271.409 258.429V259.522ZM294.668 246.158C294.418 248.699 294.247 251.205 294.156 253.678C294.076 256.15 294.036 258.622 294.036 261.095C294.036 261.528 294.036 261.966 294.036 262.411C294.036 262.844 294.048 263.282 294.07 263.727H288.79C288.79 263.02 288.795 262.319 288.807 261.625C288.818 260.93 288.824 260.24 288.824 259.557C288.824 257.289 288.767 255.045 288.653 252.823C288.55 250.602 288.385 248.38 288.157 246.158H294.668ZM294.668 240.621C294.668 241.02 294.572 241.396 294.378 241.749C294.184 242.091 293.917 242.393 293.575 242.655C293.233 242.905 292.834 243.111 292.378 243.27C291.923 243.418 291.438 243.492 290.926 243.492C290.413 243.492 289.935 243.418 289.49 243.27C289.046 243.111 288.659 242.905 288.328 242.655C287.998 242.393 287.736 242.091 287.542 241.749C287.348 241.396 287.251 241.02 287.251 240.621C287.251 240.234 287.348 239.869 287.542 239.527C287.736 239.174 287.998 238.872 288.328 238.622C288.659 238.36 289.046 238.154 289.49 238.006C289.935 237.858 290.413 237.784 290.926 237.784C291.438 237.784 291.923 237.858 292.378 238.006C292.834 238.154 293.233 238.36 293.575 238.622C293.917 238.872 294.184 239.174 294.378 239.527C294.572 239.869 294.668 240.234 294.668 240.621ZM316.355 255.079C316.355 256.594 316.276 258.138 316.116 259.71C315.957 261.283 315.683 262.855 315.296 264.427H309.349C309.497 262.73 309.611 261.055 309.69 259.403C309.77 257.739 309.81 256.065 309.81 254.378C309.81 253.809 309.81 253.245 309.81 252.687C309.81 252.117 309.799 251.547 309.776 250.978C309.263 250.921 308.756 250.886 308.255 250.875C307.754 250.852 307.247 250.841 306.734 250.841C305.765 250.841 304.769 250.875 303.743 250.943C303.709 251.878 303.681 252.743 303.658 253.541C303.646 254.339 303.641 255.13 303.641 255.917C303.641 256.498 303.646 257.09 303.658 257.694C303.669 258.286 303.686 258.924 303.709 259.608C303.743 260.292 303.783 261.032 303.829 261.83C303.874 262.616 303.931 263.482 304 264.427H298.257C298.257 263.06 298.252 261.852 298.24 260.804C298.229 259.756 298.212 258.793 298.189 257.916C298.166 257.027 298.132 256.184 298.086 255.387C298.052 254.578 298.007 253.735 297.95 252.857C297.893 251.969 297.83 251.006 297.762 249.969C297.693 248.921 297.614 247.719 297.522 246.363L304 245.97L303.863 248.397C304.512 247.941 305.179 247.588 305.862 247.337C306.546 247.087 307.173 246.899 307.742 246.773C308.403 246.637 309.047 246.557 309.673 246.534C310.505 246.534 311.246 246.648 311.895 246.876C312.556 247.104 313.131 247.423 313.621 247.833C314.122 248.232 314.544 248.705 314.886 249.251C315.228 249.798 315.507 250.391 315.723 251.029C315.951 251.655 316.111 252.316 316.202 253.011C316.304 253.706 316.355 254.396 316.355 255.079ZM325.635 246.158C325.385 248.699 325.214 251.205 325.123 253.678C325.043 256.15 325.003 258.622 325.003 261.095C325.003 261.528 325.003 261.966 325.003 262.411C325.003 262.844 325.014 263.282 325.037 263.727H319.756C319.756 263.02 319.762 262.319 319.773 261.625C319.785 260.93 319.791 260.24 319.791 259.557C319.791 257.289 319.734 255.045 319.62 252.823C319.517 250.602 319.352 248.38 319.124 246.158H325.635ZM325.635 240.621C325.635 241.02 325.538 241.396 325.345 241.749C325.151 242.091 324.883 242.393 324.542 242.655C324.2 242.905 323.801 243.111 323.345 243.27C322.889 243.418 322.405 243.492 321.893 243.492C321.38 243.492 320.901 243.418 320.457 243.27C320.013 243.111 319.625 242.905 319.295 242.655C318.965 242.393 318.702 242.091 318.509 241.749C318.315 241.396 318.218 241.02 318.218 240.621C318.218 240.234 318.315 239.869 318.509 239.527C318.702 239.174 318.965 238.872 319.295 238.622C319.625 238.36 320.013 238.154 320.457 238.006C320.901 237.858 321.38 237.784 321.893 237.784C322.405 237.784 322.889 237.858 323.345 238.006C323.801 238.154 324.2 238.36 324.542 238.622C324.883 238.872 325.151 239.174 325.345 239.527C325.538 239.869 325.635 240.234 325.635 240.621ZM342.588 264.564C342.588 264.234 342.583 263.903 342.571 263.573C342.56 263.231 342.554 262.895 342.554 262.564C341.95 263.111 341.318 263.527 340.657 263.812C340.008 264.085 339.41 264.291 338.863 264.427C338.225 264.587 337.592 264.678 336.966 264.701C335.826 264.701 334.727 264.524 333.667 264.171C332.619 263.829 331.685 263.311 330.865 262.616C330.044 261.921 329.378 261.055 328.865 260.018C328.364 258.97 328.085 257.757 328.028 256.378C328.028 254.988 328.216 253.723 328.592 252.584C328.968 251.433 329.532 250.448 330.284 249.627C331.036 248.807 331.97 248.175 333.086 247.73C334.203 247.275 335.496 247.041 336.966 247.03C337.011 247.03 337.182 247.041 337.479 247.064C337.786 247.075 338.162 247.127 338.606 247.218C339.051 247.298 339.535 247.434 340.059 247.628C340.583 247.81 341.102 248.067 341.614 248.397L341.341 246.295L348.091 245.833C347.955 249.103 347.886 252.356 347.886 255.592C347.886 256.378 347.886 257.124 347.886 257.831C347.898 258.526 347.909 259.221 347.92 259.916C347.943 260.599 347.966 261.294 347.989 262C348.023 262.695 348.057 263.43 348.091 264.205L342.588 264.564ZM334.607 260.428C335.963 260.371 337.296 260.28 338.606 260.155C339.917 260.029 341.21 259.841 342.486 259.591C342.452 258.178 342.389 256.811 342.298 255.489C342.218 254.168 342.104 252.818 341.956 251.439H340.982C339.877 251.439 338.766 251.479 337.649 251.559C336.544 251.627 335.428 251.747 334.3 251.917C334.163 253.114 334.095 254.316 334.095 255.523C334.095 255.979 334.106 256.406 334.129 256.805C334.152 257.193 334.18 257.58 334.214 257.967C334.26 258.355 334.311 258.748 334.368 259.146C334.437 259.545 334.516 259.972 334.607 260.428ZM345.425 239.391C345.448 239.618 345.471 239.835 345.494 240.04C345.528 240.245 345.545 240.444 345.545 240.638C345.545 241.219 345.471 241.726 345.323 242.159C345.186 242.592 344.998 242.974 344.759 243.304C344.531 243.623 344.269 243.891 343.973 244.107C343.676 244.324 343.375 244.506 343.067 244.654C342.349 244.996 341.529 245.19 340.606 245.235C340.002 245.213 339.432 245.11 338.897 244.928C338.441 244.78 337.997 244.54 337.564 244.21C337.131 243.88 336.823 243.412 336.641 242.809H334.966C334.898 243.025 334.852 243.242 334.83 243.458C334.807 243.663 334.795 243.88 334.795 244.107C334.795 244.301 334.801 244.489 334.812 244.671C334.835 244.854 334.875 245.042 334.932 245.235L330.557 244.876C330.557 244.238 330.631 243.674 330.779 243.185C330.939 242.695 331.144 242.273 331.395 241.92C331.657 241.555 331.947 241.248 332.266 240.997C332.597 240.746 332.933 240.541 333.274 240.382C334.072 240.006 334.983 239.789 336.009 239.732C336.02 239.732 336.123 239.738 336.316 239.75C336.51 239.761 336.755 239.795 337.051 239.852C337.347 239.909 337.661 240 337.991 240.125C338.333 240.239 338.652 240.41 338.948 240.638C339.244 240.866 339.489 241.157 339.683 241.51C339.888 241.863 339.996 242.296 340.008 242.809H341.58C341.603 242.649 341.614 242.501 341.614 242.364C341.614 242.216 341.614 242.074 341.614 241.937C341.614 241.515 341.574 241.094 341.495 240.672C341.426 240.239 341.301 239.812 341.119 239.391H345.425ZM363.882 260.462C363.951 259.494 363.996 258.554 364.019 257.643C364.053 256.731 364.07 255.831 364.07 254.942C364.07 254.02 364.053 253.114 364.019 252.225C363.996 251.325 363.951 250.396 363.882 249.439C363.495 249.382 363.108 249.348 362.72 249.337C362.344 249.314 361.963 249.303 361.575 249.303C359.98 249.303 358.442 249.479 356.961 249.833C356.927 250.448 356.893 251.057 356.858 251.661C356.836 252.265 356.824 252.869 356.824 253.473C356.824 254.68 356.87 255.888 356.961 257.096C357.063 258.292 357.212 259.545 357.405 260.855C357.667 260.878 357.929 260.89 358.191 260.89C358.465 260.89 358.744 260.89 359.029 260.89C359.815 260.89 360.612 260.855 361.421 260.787C362.242 260.719 363.062 260.611 363.882 260.462ZM370.223 255.079C370.223 256.435 369.955 257.711 369.419 258.907C368.895 260.092 368.178 261.129 367.266 262.018C366.355 262.906 365.284 263.607 364.053 264.12C362.834 264.644 361.53 264.906 360.14 264.906C358.761 264.906 357.491 264.644 356.329 264.12C355.178 263.607 354.181 262.906 353.338 262.018C352.506 261.129 351.857 260.092 351.39 258.907C350.923 257.711 350.689 256.435 350.689 255.079C350.689 253.404 350.923 251.952 351.39 250.721C351.857 249.491 352.506 248.471 353.338 247.662C354.181 246.853 355.178 246.255 356.329 245.868C357.491 245.469 358.761 245.27 360.14 245.27C361.53 245.27 362.834 245.492 364.053 245.936C365.284 246.38 366.355 247.024 367.266 247.867C368.178 248.71 368.895 249.741 369.419 250.96C369.955 252.168 370.223 253.541 370.223 255.079Z" fill="black"/>
</svg>
