<svg width="429" height="306" viewBox="0 0 429 306" fill="none" xmlns="http://www.w3.org/2000/svg">
<path d="M37.5518 213.598C35.9909 213.496 34.4186 213.416 32.835 213.359C31.2513 213.302 29.6619 213.273 28.0669 213.273C26.7111 213.273 25.3553 213.296 23.9995 213.342C22.6437 213.387 21.2708 213.473 19.8809 213.598C19.972 211.547 20.0404 209.514 20.0859 207.497C20.1315 205.469 20.1543 203.43 20.1543 201.379C20.1543 199.089 20.1315 196.81 20.0859 194.543C20.0404 192.264 19.972 190.014 19.8809 187.792H27.4346C27.389 190.493 27.3434 193.119 27.2979 195.671C27.2751 196.765 27.258 197.893 27.2466 199.055C27.2352 200.217 27.2181 201.362 27.1953 202.49C27.1839 203.618 27.1725 204.7 27.1611 205.737C27.1611 206.762 27.1611 207.691 27.1611 208.522L37.5518 208.232V213.598ZM45.7549 195.158C45.5042 197.699 45.3333 200.205 45.2422 202.678C45.1624 205.15 45.1226 207.622 45.1226 210.095C45.1226 210.528 45.1226 210.966 45.1226 211.411C45.1226 211.844 45.134 212.282 45.1567 212.727H39.876C39.876 212.02 39.8817 211.319 39.8931 210.625C39.9045 209.93 39.9102 209.24 39.9102 208.557C39.9102 206.289 39.8532 204.045 39.7393 201.823C39.6367 199.602 39.4715 197.38 39.2437 195.158H45.7549ZM45.7549 189.621C45.7549 190.02 45.658 190.396 45.4644 190.749C45.2707 191.091 45.0029 191.393 44.6611 191.655C44.3193 191.905 43.9206 192.111 43.4648 192.27C43.0091 192.418 42.5249 192.492 42.0122 192.492C41.4995 192.492 41.021 192.418 40.5767 192.27C40.1323 192.111 39.745 191.905 39.4146 191.655C39.0841 191.393 38.8221 191.091 38.6284 190.749C38.4347 190.396 38.3379 190.02 38.3379 189.621C38.3379 189.234 38.4347 188.869 38.6284 188.527C38.8221 188.174 39.0841 187.872 39.4146 187.622C39.745 187.36 40.1323 187.154 40.5767 187.006C41.021 186.858 41.4995 186.784 42.0122 186.784C42.5249 186.784 43.0091 186.858 43.4648 187.006C43.9206 187.154 44.3193 187.36 44.6611 187.622C45.0029 187.872 45.2707 188.174 45.4644 188.527C45.658 188.869 45.7549 189.234 45.7549 189.621ZM66.9121 209.018C66.9121 210.021 66.6558 210.858 66.1431 211.53C65.6304 212.191 64.9582 212.721 64.1265 213.12C63.2948 213.53 62.3491 213.815 61.2896 213.974C60.23 214.145 59.1533 214.23 58.0596 214.23C57.4557 214.23 56.8063 214.191 56.1113 214.111C55.4277 214.042 54.7384 213.911 54.0435 213.718C53.3485 213.535 52.6706 213.291 52.0098 212.983C51.3604 212.664 50.7679 212.265 50.2324 211.787C49.6969 211.308 49.2355 210.744 48.8481 210.095C48.4722 209.445 48.2158 208.688 48.0791 207.822L55.0176 207.753L55.291 210.727H60.606L60.999 207.292C60.2926 207.132 59.4837 206.996 58.5723 206.882C57.6608 206.768 56.7266 206.631 55.7695 206.472C54.8125 206.301 53.8726 206.084 52.9497 205.822C52.0269 205.56 51.2065 205.201 50.4888 204.746C49.771 204.29 49.1899 203.715 48.7456 203.02C48.3013 202.325 48.0791 201.464 48.0791 200.439C48.0791 199.334 48.3468 198.405 48.8823 197.653C49.4178 196.89 50.1185 196.28 50.9844 195.825C51.8617 195.358 52.8529 195.016 53.958 194.799C55.0632 194.583 56.1854 194.458 57.3247 194.423C57.9285 194.423 58.578 194.458 59.2729 194.526C59.9793 194.594 60.68 194.72 61.375 194.902C62.07 195.073 62.7365 195.312 63.3745 195.62C64.0239 195.927 64.5993 196.32 65.1006 196.799C65.6133 197.266 66.0291 197.836 66.3481 198.508C66.6785 199.169 66.8665 199.949 66.9121 200.849L60.1958 201.14V197.773H54.4194V202.319C55.16 202.478 55.986 202.604 56.8975 202.695C57.8089 202.775 58.7261 202.883 59.6489 203.02C60.5718 203.156 61.4661 203.344 62.332 203.583C63.2093 203.823 63.984 204.165 64.6562 204.609C65.3398 205.053 65.8867 205.629 66.2969 206.335C66.707 207.041 66.9121 207.936 66.9121 209.018ZM85.6255 199.978C84.5203 199.921 83.4095 199.869 82.293 199.824C81.1878 199.778 80.0827 199.738 78.9775 199.704C78.8408 201.971 78.7212 204.233 78.6187 206.489C78.5161 208.745 78.4364 211.018 78.3794 213.308L73.3892 213.803C73.4575 209.633 73.4917 205.503 73.4917 201.413V199.602H72.2612C71.5776 199.602 70.894 199.607 70.2104 199.619C69.5269 199.63 68.8433 199.636 68.1597 199.636V195.295C68.4559 195.295 68.7521 195.301 69.0483 195.312C69.356 195.323 69.6693 195.329 69.9883 195.329H73.4575C73.4575 194.27 73.4518 193.227 73.4404 192.202C73.429 191.165 73.4119 190.128 73.3892 189.091H79.8662C79.7523 190.117 79.6497 191.136 79.5586 192.15C79.4788 193.153 79.4048 194.156 79.3364 195.158C80.396 195.113 81.4385 195.067 82.4639 195.021C83.5007 194.965 84.5545 194.902 85.6255 194.833V199.978ZM101.365 213.564C101.365 213.234 101.36 212.903 101.348 212.573C101.337 212.231 101.331 211.895 101.331 211.564C100.727 212.111 100.095 212.527 99.4341 212.812C98.7847 213.085 98.1865 213.291 97.6396 213.427C97.0016 213.587 96.3693 213.678 95.7427 213.701C94.6034 213.701 93.5039 213.524 92.4443 213.171C91.3962 212.829 90.4619 212.311 89.6416 211.616C88.8213 210.921 88.1548 210.055 87.6421 209.018C87.1408 207.97 86.8617 206.757 86.8047 205.378C86.8047 203.988 86.9927 202.723 87.3687 201.584C87.7446 200.433 88.3086 199.448 89.0605 198.627C89.8125 197.807 90.7467 197.175 91.8633 196.73C92.9798 196.275 94.2729 196.041 95.7427 196.03C95.7882 196.03 95.9591 196.041 96.2554 196.064C96.563 196.075 96.939 196.127 97.3833 196.218C97.8276 196.298 98.3118 196.434 98.8359 196.628C99.36 196.81 99.8784 197.067 100.391 197.397L100.118 195.295L106.868 194.833C106.731 198.103 106.663 201.356 106.663 204.592C106.663 205.378 106.663 206.124 106.663 206.831C106.674 207.526 106.686 208.221 106.697 208.916C106.72 209.599 106.743 210.294 106.766 211C106.8 211.695 106.834 212.43 106.868 213.205L101.365 213.564ZM93.3843 209.428C94.7401 209.371 96.0731 209.28 97.3833 209.155C98.6935 209.029 99.9867 208.841 101.263 208.591C101.229 207.178 101.166 205.811 101.075 204.489C100.995 203.168 100.881 201.818 100.733 200.439H99.7588C98.6536 200.439 97.5428 200.479 96.4263 200.559C95.3211 200.627 94.2046 200.747 93.0767 200.917C92.9399 202.114 92.8716 203.316 92.8716 204.523C92.8716 204.979 92.883 205.406 92.9058 205.805C92.9285 206.193 92.957 206.58 92.9912 206.967C93.0368 207.355 93.0881 207.748 93.145 208.146C93.2134 208.545 93.2931 208.972 93.3843 209.428ZM129.102 194.833C128.931 198.331 128.794 201.328 128.692 203.823C128.601 206.318 128.532 208.363 128.487 209.958C128.43 211.838 128.39 213.387 128.367 214.606C128.31 216.053 127.991 217.301 127.41 218.349C126.84 219.397 126.094 220.269 125.171 220.964C124.26 221.659 123.217 222.189 122.044 222.553C120.882 222.918 119.674 223.14 118.421 223.22C117.156 223.22 116 223.066 114.952 222.758C113.915 222.451 113.009 222.018 112.234 221.459C111.471 220.901 110.844 220.24 110.354 219.477C109.876 218.714 109.568 217.871 109.432 216.948L116.37 216.469C116.256 216.765 116.182 217.067 116.148 217.375C116.125 217.683 116.114 217.996 116.114 218.315C116.114 218.6 116.125 218.89 116.148 219.187C116.182 219.483 116.256 219.779 116.37 220.075C116.53 220.098 116.689 220.109 116.849 220.109C117.008 220.109 117.173 220.109 117.344 220.109C118.973 220.109 120.586 219.933 122.181 219.58C122.283 218.304 122.369 217.033 122.437 215.769C122.505 214.515 122.568 213.256 122.625 211.992C122.078 212.333 121.52 212.596 120.95 212.778C120.381 212.949 119.856 213.08 119.378 213.171C118.82 213.273 118.273 213.33 117.737 213.342C117.099 213.342 116.456 213.251 115.806 213.068C115.157 212.897 114.53 212.641 113.926 212.299C113.322 211.958 112.753 211.536 112.217 211.035C111.682 210.533 111.215 209.952 110.816 209.292C110.417 208.631 110.104 207.902 109.876 207.104C109.648 206.295 109.534 205.412 109.534 204.455C109.534 203.031 109.722 201.732 110.098 200.559C110.486 199.374 111.038 198.36 111.756 197.517C112.474 196.662 113.351 196.001 114.388 195.534C115.424 195.067 116.598 194.833 117.908 194.833C118.444 194.845 118.991 194.902 119.549 195.004C120.027 195.096 120.551 195.238 121.121 195.432C121.691 195.614 122.238 195.882 122.762 196.235C122.762 195.939 122.756 195.637 122.745 195.329C122.733 195.021 122.728 194.72 122.728 194.423L129.102 194.833ZM122.847 202.541C122.847 202.006 122.841 201.476 122.83 200.952C122.83 200.416 122.819 199.881 122.796 199.345C122.591 199.322 122.386 199.311 122.181 199.311C121.976 199.311 121.776 199.311 121.583 199.311C121.15 199.311 120.722 199.317 120.301 199.328C119.879 199.34 119.446 199.362 119.002 199.396C118.558 199.419 118.09 199.453 117.601 199.499C117.111 199.533 116.581 199.579 116.011 199.636C115.977 200.16 115.949 200.673 115.926 201.174C115.914 201.664 115.909 202.165 115.909 202.678C115.909 203.715 115.949 204.74 116.028 205.754C116.108 206.757 116.222 207.771 116.37 208.796C116.917 208.83 117.418 208.859 117.874 208.881C118.33 208.893 118.774 208.898 119.207 208.898C119.834 208.898 120.426 208.887 120.984 208.864C121.543 208.841 122.135 208.796 122.762 208.728C122.785 207.691 122.802 206.66 122.813 205.634C122.836 204.609 122.847 203.578 122.847 202.541ZM151.08 204.985L137.715 206.062C137.772 206.768 137.852 207.469 137.955 208.164C138.057 208.859 138.188 209.559 138.348 210.266C139.35 210.334 140.319 210.368 141.253 210.368C141.766 210.368 142.261 210.362 142.74 210.351C143.218 210.328 143.714 210.3 144.227 210.266C144.249 210.038 144.266 209.81 144.278 209.582C144.289 209.354 144.295 209.126 144.295 208.898C144.295 208.693 144.289 208.494 144.278 208.3C144.278 208.095 144.261 207.89 144.227 207.685L150.669 207.822C150.35 208.904 149.889 209.833 149.285 210.607C148.693 211.382 147.986 212.02 147.166 212.521C146.357 213.011 145.451 213.37 144.449 213.598C143.446 213.826 142.392 213.94 141.287 213.94C139.931 213.94 138.655 213.758 137.459 213.393C136.274 213.028 135.237 212.442 134.349 211.633C133.471 210.812 132.776 209.747 132.264 208.437C131.762 207.127 131.512 205.52 131.512 203.618C131.512 202.08 131.779 200.758 132.315 199.653C132.85 198.548 133.562 197.636 134.451 196.918C135.351 196.201 136.388 195.677 137.562 195.346C138.746 195.004 139.988 194.833 141.287 194.833C142.643 194.833 143.913 195.016 145.098 195.38C146.294 195.745 147.331 196.315 148.208 197.089C149.097 197.864 149.798 198.855 150.311 200.063C150.823 201.271 151.08 202.712 151.08 204.387V204.985ZM137.544 202.473H144.397C144.397 201.06 144.255 199.715 143.97 198.439C142.99 198.234 141.965 198.132 140.894 198.132C139.846 198.132 138.786 198.234 137.715 198.439C137.647 199.077 137.601 199.727 137.579 200.388C137.556 201.037 137.544 201.732 137.544 202.473ZM170.767 204.523C170.767 205.97 170.682 207.44 170.511 208.933C170.34 210.425 170.078 211.923 169.725 213.427H163.777C163.914 211.821 164.022 210.226 164.102 208.642C164.182 207.058 164.222 205.463 164.222 203.857C164.222 203.31 164.222 202.769 164.222 202.233C164.222 201.698 164.21 201.168 164.188 200.644C163.675 200.587 163.168 200.553 162.667 200.542C162.177 200.519 161.67 200.507 161.146 200.507C160.849 200.507 160.547 200.513 160.24 200.524C159.944 200.536 159.636 200.542 159.317 200.542C159.283 201.35 159.26 202.108 159.249 202.814C159.249 203.509 159.249 204.21 159.249 204.917C159.249 205.498 159.254 206.09 159.266 206.694C159.277 207.286 159.294 207.924 159.317 208.608C159.351 209.292 159.391 210.032 159.437 210.83C159.482 211.616 159.539 212.482 159.607 213.427H153.865C153.865 212.06 153.86 210.852 153.848 209.804C153.837 208.756 153.82 207.793 153.797 206.916C153.774 206.027 153.74 205.184 153.694 204.387C153.66 203.578 153.615 202.735 153.558 201.857C153.501 200.969 153.438 200.006 153.37 198.969C153.301 197.921 153.222 196.719 153.13 195.363L159.607 194.97L159.471 197.5C160.04 197.226 160.599 197.015 161.146 196.867C161.692 196.719 162.182 196.611 162.615 196.542C163.117 196.463 163.595 196.417 164.051 196.406C164.928 196.406 165.708 196.531 166.392 196.782C167.076 197.021 167.674 197.351 168.187 197.773C168.847 197.203 169.542 196.77 170.271 196.474C171.012 196.167 171.696 195.939 172.322 195.791C173.051 195.62 173.769 195.523 174.476 195.5C175.319 195.5 176.065 195.614 176.714 195.842C177.375 196.07 177.956 196.389 178.458 196.799C178.959 197.198 179.38 197.676 179.722 198.234C180.075 198.781 180.36 199.374 180.577 200.012C180.793 200.638 180.947 201.299 181.038 201.994C181.141 202.689 181.192 203.384 181.192 204.079C181.192 205.594 181.106 207.132 180.936 208.693C180.776 210.254 180.514 211.832 180.149 213.427H174.202C174.339 211.73 174.447 210.049 174.527 208.386C174.607 206.711 174.646 205.03 174.646 203.344C174.646 202.775 174.646 202.211 174.646 201.652C174.646 201.083 174.635 200.513 174.612 199.943C174.1 199.886 173.593 199.852 173.091 199.841C172.59 199.818 172.072 199.807 171.536 199.807C171.24 199.807 170.949 199.812 170.665 199.824C170.38 199.835 170.089 199.841 169.793 199.841C170.146 200.547 170.397 201.305 170.545 202.114C170.693 202.911 170.767 203.715 170.767 204.523ZM214.5 188.288C214.238 192.367 214.05 196.503 213.936 200.695C213.822 204.877 213.765 209.035 213.765 213.171H208.074L208.177 211.257C207.63 211.781 207.026 212.185 206.365 212.47C205.704 212.755 205.078 212.96 204.485 213.085C203.79 213.234 203.095 213.319 202.4 213.342C201.102 213.342 199.928 213.108 198.88 212.641C197.843 212.174 196.96 211.519 196.231 210.676C195.513 209.833 194.961 208.819 194.573 207.634C194.186 206.449 193.992 205.144 193.992 203.72C193.992 202.775 194.106 201.897 194.334 201.088C194.562 200.279 194.875 199.545 195.274 198.884C195.673 198.223 196.14 197.642 196.675 197.141C197.211 196.639 197.78 196.218 198.384 195.876C198.988 195.534 199.615 195.278 200.264 195.107C200.914 194.925 201.557 194.833 202.195 194.833C202.981 194.856 203.75 194.959 204.502 195.141C204.821 195.221 205.152 195.323 205.494 195.449C205.835 195.563 206.172 195.705 206.502 195.876C206.844 196.047 207.168 196.246 207.476 196.474C207.795 196.702 208.086 196.97 208.348 197.277C208.313 195.694 208.274 194.127 208.228 192.578C208.182 191.017 208.131 189.462 208.074 187.912L214.5 188.288ZM206.109 208.864C206.428 208.864 206.764 208.864 207.117 208.864C207.482 208.864 207.858 208.853 208.245 208.83C208.302 207.657 208.336 206.477 208.348 205.292C208.37 204.096 208.382 202.894 208.382 201.687V199.602C207.527 199.51 206.736 199.436 206.006 199.379C205.289 199.311 204.52 199.277 203.699 199.277C203.266 199.277 202.816 199.288 202.349 199.311C201.893 199.322 201.386 199.345 200.828 199.379C200.68 200.405 200.572 201.424 200.503 202.438C200.435 203.452 200.401 204.478 200.401 205.515C200.401 206.027 200.401 206.534 200.401 207.036C200.412 207.537 200.446 208.044 200.503 208.557C201.073 208.614 201.597 208.659 202.076 208.693C202.566 208.728 203.033 208.762 203.477 208.796C203.933 208.819 204.371 208.836 204.793 208.847C205.226 208.859 205.665 208.864 206.109 208.864ZM236.29 204.985L222.925 206.062C222.982 206.768 223.062 207.469 223.165 208.164C223.267 208.859 223.398 209.559 223.558 210.266C224.56 210.334 225.529 210.368 226.463 210.368C226.976 210.368 227.471 210.362 227.95 210.351C228.428 210.328 228.924 210.3 229.437 210.266C229.459 210.038 229.476 209.81 229.488 209.582C229.499 209.354 229.505 209.126 229.505 208.898C229.505 208.693 229.499 208.494 229.488 208.3C229.488 208.095 229.471 207.89 229.437 207.685L235.879 207.822C235.56 208.904 235.099 209.833 234.495 210.607C233.903 211.382 233.196 212.02 232.376 212.521C231.567 213.011 230.661 213.37 229.659 213.598C228.656 213.826 227.602 213.94 226.497 213.94C225.141 213.94 223.865 213.758 222.669 213.393C221.484 213.028 220.447 212.442 219.559 211.633C218.681 210.812 217.986 209.747 217.474 208.437C216.972 207.127 216.722 205.52 216.722 203.618C216.722 202.08 216.989 200.758 217.525 199.653C218.06 198.548 218.772 197.636 219.661 196.918C220.561 196.201 221.598 195.677 222.771 195.346C223.956 195.004 225.198 194.833 226.497 194.833C227.853 194.833 229.123 195.016 230.308 195.38C231.504 195.745 232.541 196.315 233.418 197.089C234.307 197.864 235.008 198.855 235.521 200.063C236.033 201.271 236.29 202.712 236.29 204.387V204.985ZM222.754 202.473H229.607C229.607 201.06 229.465 199.715 229.18 198.439C228.2 198.234 227.175 198.132 226.104 198.132C225.056 198.132 223.996 198.234 222.925 198.439C222.857 199.077 222.811 199.727 222.789 200.388C222.766 201.037 222.754 201.732 222.754 202.473ZM267.564 203.378C267.564 204.894 267.484 206.438 267.325 208.01C267.165 209.582 266.892 211.154 266.504 212.727H260.557C260.694 211.029 260.802 209.354 260.882 207.702C260.973 206.039 261.019 204.364 261.019 202.678C261.019 202.108 261.019 201.544 261.019 200.986C261.019 200.416 261.007 199.847 260.984 199.277C260.472 199.22 259.959 199.186 259.446 199.174C258.945 199.152 258.438 199.14 257.925 199.14C256.9 199.14 255.875 199.174 254.849 199.243V201.447C254.849 203.327 254.878 205.201 254.935 207.07C254.992 208.927 255.083 210.812 255.208 212.727H249.466C249.466 208.602 249.409 204.518 249.295 200.473C249.181 196.429 248.993 192.367 248.731 188.288L255.208 187.912C255.128 189.405 255.06 190.891 255.003 192.373C254.946 193.854 254.906 195.34 254.883 196.833C255.544 196.332 256.228 195.95 256.934 195.688C257.64 195.415 258.284 195.215 258.865 195.09C259.549 194.942 260.215 194.856 260.865 194.833C261.696 194.833 262.437 194.947 263.086 195.175C263.747 195.403 264.323 195.722 264.812 196.132C265.314 196.531 265.735 197.004 266.077 197.551C266.43 198.098 266.715 198.69 266.932 199.328C267.16 199.955 267.319 200.616 267.41 201.311C267.513 202.006 267.564 202.695 267.564 203.378ZM276.81 195.158C276.559 197.699 276.388 200.205 276.297 202.678C276.217 205.15 276.177 207.622 276.177 210.095C276.177 210.528 276.177 210.966 276.177 211.411C276.177 211.844 276.189 212.282 276.211 212.727H270.931C270.931 212.02 270.936 211.319 270.948 210.625C270.959 209.93 270.965 209.24 270.965 208.557C270.965 206.289 270.908 204.045 270.794 201.823C270.691 199.602 270.526 197.38 270.298 195.158H276.81ZM276.81 189.621C276.81 190.02 276.713 190.396 276.519 190.749C276.325 191.091 276.058 191.393 275.716 191.655C275.374 191.905 274.975 192.111 274.52 192.27C274.064 192.418 273.58 192.492 273.067 192.492C272.554 192.492 272.076 192.418 271.631 192.27C271.187 192.111 270.8 191.905 270.469 191.655C270.139 191.393 269.877 191.091 269.683 190.749C269.489 190.396 269.393 190.02 269.393 189.621C269.393 189.234 269.489 188.869 269.683 188.527C269.877 188.174 270.139 187.872 270.469 187.622C270.8 187.36 271.187 187.154 271.631 187.006C272.076 186.858 272.554 186.784 273.067 186.784C273.58 186.784 274.064 186.858 274.52 187.006C274.975 187.154 275.374 187.36 275.716 187.622C276.058 187.872 276.325 188.174 276.519 188.527C276.713 188.869 276.81 189.234 276.81 189.621ZM297.967 209.018C297.967 210.021 297.71 210.858 297.198 211.53C296.685 212.191 296.013 212.721 295.181 213.12C294.349 213.53 293.404 213.815 292.344 213.974C291.285 214.145 290.208 214.23 289.114 214.23C288.51 214.23 287.861 214.191 287.166 214.111C286.482 214.042 285.793 213.911 285.098 213.718C284.403 213.535 283.725 213.291 283.064 212.983C282.415 212.664 281.823 212.265 281.287 211.787C280.752 211.308 280.29 210.744 279.903 210.095C279.527 209.445 279.271 208.688 279.134 207.822L286.072 207.753L286.346 210.727H291.661L292.054 207.292C291.347 207.132 290.538 206.996 289.627 206.882C288.715 206.768 287.781 206.631 286.824 206.472C285.867 206.301 284.927 206.084 284.004 205.822C283.082 205.56 282.261 205.201 281.543 204.746C280.826 204.29 280.245 203.715 279.8 203.02C279.356 202.325 279.134 201.464 279.134 200.439C279.134 199.334 279.402 198.405 279.937 197.653C280.472 196.89 281.173 196.28 282.039 195.825C282.916 195.358 283.908 195.016 285.013 194.799C286.118 194.583 287.24 194.458 288.379 194.423C288.983 194.423 289.633 194.458 290.328 194.526C291.034 194.594 291.735 194.72 292.43 194.902C293.125 195.073 293.791 195.312 294.429 195.62C295.079 195.927 295.654 196.32 296.155 196.799C296.668 197.266 297.084 197.836 297.403 198.508C297.733 199.169 297.921 199.949 297.967 200.849L291.25 201.14V197.773H285.474V202.319C286.215 202.478 287.041 202.604 287.952 202.695C288.864 202.775 289.781 202.883 290.704 203.02C291.626 203.156 292.521 203.344 293.387 203.583C294.264 203.823 295.039 204.165 295.711 204.609C296.395 205.053 296.941 205.629 297.352 206.335C297.762 207.041 297.967 207.936 297.967 209.018ZM316.68 199.978C315.575 199.921 314.464 199.869 313.348 199.824C312.243 199.778 311.137 199.738 310.032 199.704C309.896 201.971 309.776 204.233 309.673 206.489C309.571 208.745 309.491 211.018 309.434 213.308L304.444 213.803C304.512 209.633 304.546 205.503 304.546 201.413V199.602H303.316C302.632 199.602 301.949 199.607 301.265 199.619C300.582 199.63 299.898 199.636 299.214 199.636V195.295C299.511 195.295 299.807 195.301 300.103 195.312C300.411 195.323 300.724 195.329 301.043 195.329H304.512C304.512 194.27 304.507 193.227 304.495 192.202C304.484 191.165 304.467 190.128 304.444 189.091H310.921C310.807 190.117 310.704 191.136 310.613 192.15C310.534 193.153 310.459 194.156 310.391 195.158C311.451 195.113 312.493 195.067 313.519 195.021C314.555 194.965 315.609 194.902 316.68 194.833V199.978ZM331.155 209.462C331.224 208.494 331.269 207.554 331.292 206.643C331.326 205.731 331.343 204.831 331.343 203.942C331.343 203.02 331.326 202.114 331.292 201.225C331.269 200.325 331.224 199.396 331.155 198.439C330.768 198.382 330.381 198.348 329.993 198.337C329.617 198.314 329.236 198.303 328.848 198.303C327.253 198.303 325.715 198.479 324.234 198.833C324.2 199.448 324.166 200.057 324.131 200.661C324.109 201.265 324.097 201.869 324.097 202.473C324.097 203.68 324.143 204.888 324.234 206.096C324.336 207.292 324.485 208.545 324.678 209.855C324.94 209.878 325.202 209.89 325.464 209.89C325.738 209.89 326.017 209.89 326.302 209.89C327.088 209.89 327.885 209.855 328.694 209.787C329.515 209.719 330.335 209.611 331.155 209.462ZM337.496 204.079C337.496 205.435 337.228 206.711 336.692 207.907C336.168 209.092 335.451 210.129 334.539 211.018C333.628 211.906 332.557 212.607 331.326 213.12C330.107 213.644 328.803 213.906 327.413 213.906C326.034 213.906 324.764 213.644 323.602 213.12C322.451 212.607 321.454 211.906 320.611 211.018C319.779 210.129 319.13 209.092 318.663 207.907C318.195 206.711 317.962 205.435 317.962 204.079C317.962 202.404 318.195 200.952 318.663 199.721C319.13 198.491 319.779 197.471 320.611 196.662C321.454 195.853 322.451 195.255 323.602 194.868C324.764 194.469 326.034 194.27 327.413 194.27C328.803 194.27 330.107 194.492 331.326 194.936C332.557 195.38 333.628 196.024 334.539 196.867C335.451 197.71 336.168 198.741 336.692 199.96C337.228 201.168 337.496 202.541 337.496 204.079ZM335.086 187.98L328.917 193.466L326.609 192.868L331.019 186.357L335.086 187.98ZM352.911 204.814C352.933 204.529 352.956 204.25 352.979 203.977C353.002 203.692 353.013 203.407 353.013 203.122C353.013 202.142 352.911 201.174 352.706 200.217C351.646 200.262 350.592 200.336 349.544 200.439C348.507 200.542 347.459 200.678 346.399 200.849V204.25C346.399 205.743 346.399 207.224 346.399 208.693C346.399 210.152 346.411 211.621 346.434 213.103L340.35 213.53C340.384 213.108 340.401 212.692 340.401 212.282C340.412 211.872 340.418 211.456 340.418 211.035C340.418 208.391 340.367 205.777 340.264 203.19C340.173 200.604 340.036 198.007 339.854 195.397L346.434 194.833C346.434 195.153 346.428 195.472 346.417 195.791C346.405 196.098 346.399 196.411 346.399 196.73C347.06 196.252 347.721 195.887 348.382 195.637C349.054 195.386 349.664 195.198 350.21 195.073C350.837 194.936 351.447 194.856 352.039 194.833C353.383 194.902 354.585 195.209 355.645 195.756C356.089 195.984 356.528 196.28 356.961 196.645C357.394 196.998 357.781 197.437 358.123 197.961C358.465 198.474 358.738 199.083 358.943 199.79C359.148 200.485 359.251 201.293 359.251 202.216C359.251 202.535 359.234 202.871 359.2 203.225C359.166 203.566 359.12 203.931 359.063 204.318L352.911 204.814ZM367.625 195.158C367.374 197.699 367.203 200.205 367.112 202.678C367.033 205.15 366.993 207.622 366.993 210.095C366.993 210.528 366.993 210.966 366.993 211.411C366.993 211.844 367.004 212.282 367.027 212.727H361.746C361.746 212.02 361.752 211.319 361.763 210.625C361.775 209.93 361.78 209.24 361.78 208.557C361.78 206.289 361.723 204.045 361.609 201.823C361.507 199.602 361.342 197.38 361.114 195.158H367.625ZM367.625 189.621C367.625 190.02 367.528 190.396 367.334 190.749C367.141 191.091 366.873 191.393 366.531 191.655C366.189 191.905 365.791 192.111 365.335 192.27C364.879 192.418 364.395 192.492 363.882 192.492C363.37 192.492 362.891 192.418 362.447 192.27C362.002 192.111 361.615 191.905 361.285 191.655C360.954 191.393 360.692 191.091 360.499 190.749C360.305 190.396 360.208 190.02 360.208 189.621C360.208 189.234 360.305 188.869 360.499 188.527C360.692 188.174 360.954 187.872 361.285 187.622C361.615 187.36 362.002 187.154 362.447 187.006C362.891 186.858 363.37 186.784 363.882 186.784C364.395 186.784 364.879 186.858 365.335 187.006C365.791 187.154 366.189 187.36 366.531 187.622C366.873 187.872 367.141 188.174 367.334 188.527C367.528 188.869 367.625 189.234 367.625 189.621ZM382.476 201.652C382.533 201.379 382.573 201.105 382.596 200.832C382.618 200.547 382.63 200.262 382.63 199.978C382.63 199.715 382.618 199.459 382.596 199.208C382.573 198.958 382.533 198.701 382.476 198.439C381.986 198.348 381.491 198.286 380.989 198.251C380.488 198.217 379.97 198.2 379.434 198.2C378.91 198.2 378.38 198.217 377.845 198.251C377.309 198.286 376.768 198.348 376.221 198.439C376.164 199.055 376.119 199.659 376.084 200.251C376.062 200.843 376.05 201.442 376.05 202.045C376.05 203.435 376.119 204.814 376.255 206.181C376.403 207.537 376.603 208.898 376.854 210.266C377.366 210.323 377.856 210.362 378.323 210.385C378.802 210.397 379.292 210.402 379.793 210.402C380.283 210.402 380.767 210.397 381.246 210.385C381.724 210.362 382.22 210.323 382.732 210.266C382.755 210.026 382.772 209.793 382.784 209.565C382.795 209.337 382.801 209.115 382.801 208.898C382.801 208.693 382.795 208.488 382.784 208.283C382.772 208.078 382.755 207.879 382.732 207.685L389.175 207.822C388.856 208.904 388.395 209.833 387.791 210.607C387.199 211.382 386.492 212.02 385.672 212.521C384.863 213.011 383.957 213.37 382.955 213.598C381.952 213.826 380.898 213.94 379.793 213.94C378.437 213.94 377.161 213.758 375.965 213.393C374.78 213.028 373.743 212.442 372.854 211.633C371.977 210.812 371.282 209.747 370.77 208.437C370.268 207.127 370.018 205.52 370.018 203.618C370.018 202.08 370.285 200.758 370.821 199.653C371.356 198.548 372.068 197.636 372.957 196.918C373.857 196.201 374.894 195.677 376.067 195.346C377.252 195.004 378.494 194.833 379.793 194.833C380.944 194.833 382.037 194.97 383.074 195.244C384.111 195.506 385.045 195.916 385.877 196.474C386.72 197.021 387.438 197.727 388.03 198.593C388.623 199.448 389.05 200.467 389.312 201.652H382.476ZM404.026 209.462C404.095 208.494 404.14 207.554 404.163 206.643C404.197 205.731 404.214 204.831 404.214 203.942C404.214 203.02 404.197 202.114 404.163 201.225C404.14 200.325 404.095 199.396 404.026 198.439C403.639 198.382 403.252 198.348 402.864 198.337C402.488 198.314 402.107 198.303 401.719 198.303C400.124 198.303 398.586 198.479 397.105 198.833C397.071 199.448 397.037 200.057 397.002 200.661C396.98 201.265 396.968 201.869 396.968 202.473C396.968 203.68 397.014 204.888 397.105 206.096C397.208 207.292 397.356 208.545 397.549 209.855C397.811 209.878 398.073 209.89 398.335 209.89C398.609 209.89 398.888 209.89 399.173 209.89C399.959 209.89 400.757 209.855 401.565 209.787C402.386 209.719 403.206 209.611 404.026 209.462ZM410.367 204.079C410.367 205.435 410.099 206.711 409.563 207.907C409.039 209.092 408.322 210.129 407.41 211.018C406.499 211.906 405.428 212.607 404.197 213.12C402.978 213.644 401.674 213.906 400.284 213.906C398.905 213.906 397.635 213.644 396.473 213.12C395.322 212.607 394.325 211.906 393.482 211.018C392.65 210.129 392.001 209.092 391.534 207.907C391.067 206.711 390.833 205.435 390.833 204.079C390.833 202.404 391.067 200.952 391.534 199.721C392.001 198.491 392.65 197.471 393.482 196.662C394.325 195.853 395.322 195.255 396.473 194.868C397.635 194.469 398.905 194.27 400.284 194.27C401.674 194.27 402.978 194.492 404.197 194.936C405.428 195.38 406.499 196.024 407.41 196.867C408.322 197.71 409.039 198.741 409.563 199.96C410.099 201.168 410.367 202.541 410.367 204.079ZM147.012 238.288C146.75 242.367 146.562 246.503 146.448 250.695C146.334 254.877 146.277 259.035 146.277 263.171H140.586L140.689 261.257C140.142 261.781 139.538 262.185 138.877 262.47C138.217 262.755 137.59 262.96 136.998 263.085C136.303 263.234 135.608 263.319 134.913 263.342C133.614 263.342 132.44 263.108 131.392 262.641C130.355 262.174 129.472 261.519 128.743 260.676C128.025 259.833 127.473 258.819 127.085 257.634C126.698 256.449 126.504 255.144 126.504 253.72C126.504 252.775 126.618 251.897 126.846 251.088C127.074 250.279 127.387 249.545 127.786 248.884C128.185 248.223 128.652 247.642 129.188 247.141C129.723 246.639 130.293 246.218 130.896 245.876C131.5 245.534 132.127 245.278 132.776 245.107C133.426 244.925 134.069 244.833 134.708 244.833C135.494 244.856 136.263 244.959 137.015 245.141C137.334 245.221 137.664 245.323 138.006 245.449C138.348 245.563 138.684 245.705 139.014 245.876C139.356 246.047 139.681 246.246 139.988 246.474C140.307 246.702 140.598 246.97 140.86 247.277C140.826 245.694 140.786 244.127 140.74 242.578C140.695 241.017 140.643 239.462 140.586 237.912L147.012 238.288ZM138.621 258.864C138.94 258.864 139.276 258.864 139.629 258.864C139.994 258.864 140.37 258.853 140.757 258.83C140.814 257.657 140.848 256.477 140.86 255.292C140.883 254.096 140.894 252.894 140.894 251.687V249.602C140.04 249.51 139.248 249.436 138.519 249.379C137.801 249.311 137.032 249.277 136.211 249.277C135.778 249.277 135.328 249.288 134.861 249.311C134.406 249.322 133.899 249.345 133.34 249.379C133.192 250.405 133.084 251.424 133.016 252.438C132.947 253.452 132.913 254.478 132.913 255.515C132.913 256.027 132.913 256.534 132.913 257.036C132.924 257.537 132.959 258.044 133.016 258.557C133.585 258.614 134.109 258.659 134.588 258.693C135.078 258.728 135.545 258.762 135.989 258.796C136.445 258.819 136.884 258.836 137.305 258.847C137.738 258.859 138.177 258.864 138.621 258.864ZM168.802 254.985L155.438 256.062C155.494 256.768 155.574 257.469 155.677 258.164C155.779 258.859 155.91 259.559 156.07 260.266C157.072 260.334 158.041 260.368 158.975 260.368C159.488 260.368 159.983 260.362 160.462 260.351C160.94 260.328 161.436 260.3 161.949 260.266C161.972 260.038 161.989 259.81 162 259.582C162.011 259.354 162.017 259.126 162.017 258.898C162.017 258.693 162.011 258.494 162 258.3C162 258.095 161.983 257.89 161.949 257.685L168.392 257.822C168.073 258.904 167.611 259.833 167.007 260.607C166.415 261.382 165.708 262.02 164.888 262.521C164.079 263.011 163.174 263.37 162.171 263.598C161.168 263.826 160.114 263.94 159.009 263.94C157.653 263.94 156.377 263.758 155.181 263.393C153.996 263.028 152.959 262.442 152.071 261.633C151.194 260.812 150.499 259.747 149.986 258.437C149.485 257.127 149.234 255.52 149.234 253.618C149.234 252.08 149.502 250.758 150.037 249.653C150.573 248.548 151.285 247.636 152.173 246.918C153.073 246.201 154.11 245.677 155.284 245.346C156.469 245.004 157.71 244.833 159.009 244.833C160.365 244.833 161.635 245.016 162.82 245.38C164.017 245.745 165.053 246.315 165.931 247.089C166.819 247.864 167.52 248.855 168.033 250.063C168.545 251.271 168.802 252.712 168.802 254.387V254.985ZM155.267 252.473H162.12C162.12 251.06 161.977 249.715 161.692 248.439C160.713 248.234 159.687 248.132 158.616 248.132C157.568 248.132 156.508 248.234 155.438 248.439C155.369 249.077 155.324 249.727 155.301 250.388C155.278 251.037 155.267 251.732 155.267 252.473ZM193.343 251.652C193.4 251.379 193.44 251.105 193.462 250.832C193.485 250.547 193.497 250.262 193.497 249.978C193.497 249.715 193.485 249.459 193.462 249.208C193.44 248.958 193.4 248.701 193.343 248.439C192.853 248.348 192.357 248.286 191.856 248.251C191.355 248.217 190.836 248.2 190.301 248.2C189.777 248.2 189.247 248.217 188.711 248.251C188.176 248.286 187.635 248.348 187.088 248.439C187.031 249.055 186.985 249.659 186.951 250.251C186.928 250.843 186.917 251.442 186.917 252.045C186.917 253.435 186.985 254.814 187.122 256.181C187.27 257.537 187.47 258.898 187.72 260.266C188.233 260.323 188.723 260.362 189.19 260.385C189.668 260.397 190.158 260.402 190.66 260.402C191.15 260.402 191.634 260.397 192.112 260.385C192.591 260.362 193.086 260.323 193.599 260.266C193.622 260.026 193.639 259.793 193.65 259.565C193.662 259.337 193.667 259.115 193.667 258.898C193.667 258.693 193.662 258.488 193.65 258.283C193.639 258.078 193.622 257.879 193.599 257.685L200.042 257.822C199.723 258.904 199.262 259.833 198.658 260.607C198.065 261.382 197.359 262.02 196.539 262.521C195.73 263.011 194.824 263.37 193.821 263.598C192.819 263.826 191.765 263.94 190.66 263.94C189.304 263.94 188.028 263.758 186.832 263.393C185.647 263.028 184.61 262.442 183.721 261.633C182.844 260.812 182.149 259.747 181.636 258.437C181.135 257.127 180.884 255.52 180.884 253.618C180.884 252.08 181.152 250.758 181.688 249.653C182.223 248.548 182.935 247.636 183.824 246.918C184.724 246.201 185.761 245.677 186.934 245.346C188.119 245.004 189.361 244.833 190.66 244.833C191.81 244.833 192.904 244.97 193.941 245.244C194.978 245.506 195.912 245.916 196.744 246.474C197.587 247.021 198.305 247.727 198.897 248.593C199.489 249.448 199.917 250.467 200.179 251.652H193.343ZM214.893 259.462C214.961 258.494 215.007 257.554 215.03 256.643C215.064 255.731 215.081 254.831 215.081 253.942C215.081 253.02 215.064 252.114 215.03 251.225C215.007 250.325 214.961 249.396 214.893 248.439C214.506 248.382 214.118 248.348 213.731 248.337C213.355 248.314 212.973 248.303 212.586 248.303C210.991 248.303 209.453 248.479 207.972 248.833C207.938 249.448 207.903 250.057 207.869 250.661C207.846 251.265 207.835 251.869 207.835 252.473C207.835 253.68 207.881 254.888 207.972 256.096C208.074 257.292 208.222 258.545 208.416 259.855C208.678 259.878 208.94 259.89 209.202 259.89C209.476 259.89 209.755 259.89 210.04 259.89C210.826 259.89 211.623 259.855 212.432 259.787C213.252 259.719 214.073 259.611 214.893 259.462ZM221.233 254.079C221.233 255.435 220.966 256.711 220.43 257.907C219.906 259.092 219.188 260.129 218.277 261.018C217.365 261.906 216.294 262.607 215.064 263.12C213.845 263.644 212.54 263.906 211.15 263.906C209.772 263.906 208.501 263.644 207.339 263.12C206.189 262.607 205.192 261.906 204.349 261.018C203.517 260.129 202.868 259.092 202.4 257.907C201.933 256.711 201.7 255.435 201.7 254.079C201.7 252.404 201.933 250.952 202.4 249.721C202.868 248.491 203.517 247.471 204.349 246.662C205.192 245.853 206.189 245.255 207.339 244.868C208.501 244.469 209.772 244.27 211.15 244.27C212.54 244.27 213.845 244.492 215.064 244.936C216.294 245.38 217.365 246.024 218.277 246.867C219.188 247.71 219.906 248.741 220.43 249.96C220.966 251.168 221.233 252.541 221.233 254.079ZM236.648 254.814C236.671 254.529 236.694 254.25 236.717 253.977C236.74 253.692 236.751 253.407 236.751 253.122C236.751 252.142 236.648 251.174 236.443 250.217C235.384 250.262 234.33 250.336 233.282 250.439C232.245 250.542 231.197 250.678 230.137 250.849V254.25C230.137 255.743 230.137 257.224 230.137 258.693C230.137 260.152 230.149 261.621 230.171 263.103L224.087 263.53C224.122 263.108 224.139 262.692 224.139 262.282C224.15 261.872 224.156 261.456 224.156 261.035C224.156 258.391 224.104 255.777 224.002 253.19C223.911 250.604 223.774 248.007 223.592 245.397L230.171 244.833C230.171 245.153 230.166 245.472 230.154 245.791C230.143 246.098 230.137 246.411 230.137 246.73C230.798 246.252 231.459 245.887 232.12 245.637C232.792 245.386 233.401 245.198 233.948 245.073C234.575 244.936 235.184 244.856 235.777 244.833C237.121 244.902 238.323 245.209 239.383 245.756C239.827 245.984 240.266 246.28 240.699 246.645C241.132 246.998 241.519 247.437 241.861 247.961C242.203 248.474 242.476 249.083 242.681 249.79C242.886 250.485 242.989 251.293 242.989 252.216C242.989 252.535 242.972 252.871 242.938 253.225C242.903 253.566 242.858 253.931 242.801 254.318L236.648 254.814ZM261.258 249.978C260.153 249.921 259.042 249.869 257.925 249.824C256.82 249.778 255.715 249.738 254.61 249.704C254.473 251.971 254.354 254.233 254.251 256.489C254.148 258.745 254.069 261.018 254.012 263.308L249.021 263.803C249.09 259.633 249.124 255.503 249.124 251.413V249.602H247.894C247.21 249.602 246.526 249.607 245.843 249.619C245.159 249.63 244.476 249.636 243.792 249.636V245.295C244.088 245.295 244.384 245.301 244.681 245.312C244.988 245.323 245.302 245.329 245.621 245.329H249.09C249.09 244.27 249.084 243.227 249.073 242.202C249.061 241.165 249.044 240.128 249.021 239.091H255.499C255.385 240.117 255.282 241.136 255.191 242.15C255.111 243.153 255.037 244.156 254.969 245.158C256.028 245.113 257.071 245.067 258.096 245.021C259.133 244.965 260.187 244.902 261.258 244.833V249.978ZM282.176 254.985L268.812 256.062C268.868 256.768 268.948 257.469 269.051 258.164C269.153 258.859 269.284 259.559 269.444 260.266C270.446 260.334 271.415 260.368 272.349 260.368C272.862 260.368 273.357 260.362 273.836 260.351C274.314 260.328 274.81 260.3 275.323 260.266C275.346 260.038 275.363 259.81 275.374 259.582C275.385 259.354 275.391 259.126 275.391 258.898C275.391 258.693 275.385 258.494 275.374 258.3C275.374 258.095 275.357 257.89 275.323 257.685L281.766 257.822C281.447 258.904 280.985 259.833 280.381 260.607C279.789 261.382 279.083 262.02 278.262 262.521C277.453 263.011 276.548 263.37 275.545 263.598C274.542 263.826 273.488 263.94 272.383 263.94C271.028 263.94 269.751 263.758 268.555 263.393C267.37 263.028 266.333 262.442 265.445 261.633C264.568 260.812 263.873 259.747 263.36 258.437C262.859 257.127 262.608 255.52 262.608 253.618C262.608 252.08 262.876 250.758 263.411 249.653C263.947 248.548 264.659 247.636 265.547 246.918C266.447 246.201 267.484 245.677 268.658 245.346C269.843 245.004 271.084 244.833 272.383 244.833C273.739 244.833 275.009 245.016 276.194 245.38C277.391 245.745 278.427 246.315 279.305 247.089C280.193 247.864 280.894 248.855 281.407 250.063C281.919 251.271 282.176 252.712 282.176 254.387V254.985ZM268.641 252.473H275.494C275.494 251.06 275.351 249.715 275.066 248.439C274.087 248.234 273.061 248.132 271.99 248.132C270.942 248.132 269.882 248.234 268.812 248.439C268.743 249.077 268.698 249.727 268.675 250.388C268.652 251.037 268.641 251.732 268.641 252.473ZM302.53 259.018C302.53 260.021 302.273 260.858 301.761 261.53C301.248 262.191 300.576 262.721 299.744 263.12C298.912 263.53 297.967 263.815 296.907 263.974C295.848 264.145 294.771 264.23 293.677 264.23C293.073 264.23 292.424 264.191 291.729 264.111C291.045 264.042 290.356 263.911 289.661 263.718C288.966 263.535 288.288 263.291 287.627 262.983C286.978 262.664 286.386 262.265 285.85 261.787C285.315 261.308 284.853 260.744 284.466 260.095C284.09 259.445 283.833 258.688 283.697 257.822L290.635 257.753L290.909 260.727H296.224L296.617 257.292C295.91 257.132 295.101 256.996 294.19 256.882C293.278 256.768 292.344 256.631 291.387 256.472C290.43 256.301 289.49 256.084 288.567 255.822C287.645 255.56 286.824 255.201 286.106 254.746C285.389 254.29 284.808 253.715 284.363 253.02C283.919 252.325 283.697 251.464 283.697 250.439C283.697 249.334 283.965 248.405 284.5 247.653C285.035 246.89 285.736 246.28 286.602 245.825C287.479 245.358 288.471 245.016 289.576 244.799C290.681 244.583 291.803 244.458 292.942 244.423C293.546 244.423 294.196 244.458 294.891 244.526C295.597 244.594 296.298 244.72 296.993 244.902C297.688 245.073 298.354 245.312 298.992 245.62C299.642 245.927 300.217 246.32 300.718 246.799C301.231 247.266 301.647 247.836 301.966 248.508C302.296 249.169 302.484 249.949 302.53 250.849L295.813 251.14V247.773H290.037V252.319C290.778 252.478 291.604 252.604 292.515 252.695C293.427 252.775 294.344 252.883 295.267 253.02C296.189 253.156 297.084 253.344 297.95 253.583C298.827 253.823 299.602 254.165 300.274 254.609C300.958 255.053 301.504 255.629 301.915 256.335C302.325 257.041 302.53 257.936 302.53 259.018Z" fill="black"/>
<path d="M106.088 26.8685C112.508 26.8685 117.713 21.0406 117.713 13.8514C117.713 6.66229 112.508 0.834351 106.088 0.834351C99.6685 0.834351 94.4641 6.66229 94.4641 13.8514C94.4641 21.0406 99.6685 26.8685 106.088 26.8685Z" fill="black"/>
<path d="M106.088 91.9538C112.508 91.9538 117.713 86.1259 117.713 78.9368C117.713 71.7476 112.508 65.9197 106.088 65.9197C99.6685 65.9197 94.4641 71.7476 94.4641 78.9368C94.4641 86.1259 99.6685 91.9538 106.088 91.9538Z" fill="black"/>
<path d="M106.088 157.039C112.508 157.039 117.713 151.211 117.713 144.022C117.713 136.833 112.508 131.005 106.088 131.005C99.6685 131.005 94.4641 136.833 94.4641 144.022C94.4641 151.211 99.6685 157.039 106.088 157.039Z" fill="black"/>
<path d="M292.775 65.9197H151.888C145.854 65.9197 140.961 71.3979 140.961 78.1557V79.7178C140.961 86.4756 145.854 91.9538 151.888 91.9538H292.775C298.81 91.9538 303.702 86.4756 303.702 79.7178V78.1557C303.702 71.3979 298.81 65.9197 292.775 65.9197Z" fill="black"/>
<path d="M292.775 131.005H151.888C145.854 131.005 140.961 136.483 140.961 143.241V144.803C140.961 151.561 145.854 157.039 151.888 157.039H292.775C298.81 157.039 303.702 151.561 303.702 144.803V143.241C303.702 136.483 298.81 131.005 292.775 131.005Z" fill="black"/>
<path d="M292.775 0.834351H151.888C145.854 0.834351 140.961 6.31262 140.961 13.0704V14.6324C140.961 21.3902 145.854 26.8685 151.888 26.8685H292.775C298.81 26.8685 303.702 21.3902 303.702 14.6324V13.0704C303.702 6.31262 298.81 0.834351 292.775 0.834351Z" fill="black"/>
</svg>
